<?xml version="1.0" encoding="utf-8"?>
<!DOCTYPE svg PUBLIC "-//W3C//DTD SVG 1.1//EN" "http://www.w3.org/Graphics/SVG/1.1/DTD/svg11.dtd">
<svg xmlns="http://www.w3.org/2000/svg" xmlns:xlink="http://www.w3.org/1999/xlink" version="1.1" class="marks" width="348" height="242" viewBox="0 0 348 242"><rect width="348" height="242" fill="white"/><g fill="none" stroke-miterlimit="10" transform="translate(42,5)"><g class="mark-group role-frame root" role="graphics-object" aria-roledescription="group mark container"><g transform="translate(0,0)"><path class="background" aria-hidden="true" d="M0.5,0.5h200v200h-200Z" stroke="#ddd"/><g><g class="mark-group role-axis" aria-hidden="true"><g transform="translate(0.5,200.5)"><path class="background" aria-hidden="true" d="M0,0h0v0h0Z" pointer-events="none"/><g><g class="mark-rule role-axis-grid" pointer-events="none"><line transform="translate(0,-200)" x2="0" y2="200" stroke="#ddd" stroke-width="1" opacity="1"/><line transform="translate(33,-200)" x2="0" y2="200" stroke="#ddd" stroke-width="1" opacity="1"/><line transform="translate(67,-200)" x2="0" y2="200" stroke="#ddd" stroke-width="1" opacity="1"/><line transform="translate(100,-200)" x2="0" y2="200" stroke="#ddd" stroke-width="1" opacity="1"/><line transform="translate(133,-200)" x2="0" y2="200" stroke="#ddd" stroke-width="1" opacity="1"/><line transform="translate(167,-200)" x2="0" y2="200" stroke="#ddd" stroke-width="1" opacity="1"/><line transform="translate(200,-200)" x2="0" y2="200" stroke="#ddd" stroke-width="1" opacity="1"/></g></g><path class="foreground" aria-hidden="true" d="" pointer-events="none" display="none"/></g></g><g class="mark-group role-axis" aria-hidden="true"><g transform="translate(0.5,0.5)"><path class="background" aria-hidden="true" d="M0,0h0v0h0Z" pointer-events="none"/><g><g class="mark-rule role-axis-grid" pointer-events="none"><line transform="translate(0,200)" x2="200" y2="0" stroke="#ddd" stroke-width="1" opacity="1"/><line transform="translate(0,164)" x2="200" y2="0" stroke="#ddd" stroke-width="1" opacity="1"/><line transform="translate(0,127)" x2="200" y2="0" stroke="#ddd" stroke-width="1" opacity="1"/><line transform="translate(0,91)" x2="200" y2="0" stroke="#ddd" stroke-width="1" opacity="1"/><line transform="translate(0,55)" x2="200" y2="0" stroke="#ddd" stroke-width="1" opacity="1"/><line transform="translate(0,18)" x2="200" y2="0" stroke="#ddd" stroke-width="1" opacity="1"/></g></g><path class="foreground" aria-hidden="true" d="" pointer-events="none" display="none"/></g></g><g class="mark-group role-axis" role="graphics-symbol" aria-roledescription="axis" aria-label="X-axis titled 'x' for a linear scale with values from âˆ’30 to 30"><g transform="translate(0.5,200.5)"><path class="background" aria-hidden="true" d="M0,0h0v0h0Z" pointer-events="none"/><g><g class="mark-rule role-axis-tick" pointer-events="none"><line transform="translate(0,0)" x2="0" y2="5" stroke="#888" stroke-width="1" opacity="1"/><line transform="translate(33,0)" x2="0" y2="5" stroke="#888" stroke-width="1" opacity="1"/><line transform="translate(67,0)" x2="0" y2="5" stroke="#888" stroke-width="1" opacity="1"/><line transform="translate(100,0)" x2="0" y2="5" stroke="#888" stroke-width="1" opacity="1"/><line transform="translate(133,0)" x2="0" y2="5" stroke="#888" stroke-width="1" opacity="1"/><line transform="translate(167,0)" x2="0" y2="5" stroke="#888" stroke-width="1" opacity="1"/><line transform="translate(200,0)" x2="0" y2="5" stroke="#888" stroke-width="1" opacity="1"/></g><g class="mark-text role-axis-label" pointer-events="none"><text text-anchor="start" transform="translate(0,15)" font-family="sans-serif" font-size="10px" fill="#000" opacity="1">âˆ’30</text><text text-anchor="middle" transform="translate(33.33333333333333,15)" font-family="sans-serif" font-size="10px" fill="#000" opacity="1">âˆ’20</text><text text-anchor="middle" transform="translate(66.66666666666666,15)" font-family="sans-serif" font-size="10px" fill="#000" opacity="1">âˆ’10</text><text text-anchor="middle" transform="translate(100,15)" font-family="sans-serif" font-size="10px" fill="#000" opacity="1">0</text><text text-anchor="middle" transform="translate(133.33333333333331,15)" font-family="sans-serif" font-size="10px" fill="#000" opacity="1">10</text><text text-anchor="middle" transform="translate(166.66666666666669,15)" font-family="sans-serif" font-size="10px" fill="#000" opacity="1">20</text><text text-anchor="end" transform="translate(200,15)" font-family="sans-serif" font-size="10px" fill="#000" opacity="1">30</text></g><g class="mark-rule role-axis-domain" pointer-events="none"><line transform="translate(0,0)" x2="200" y2="0" stroke="#888" stroke-width="1" opacity="1"/></g><g class="mark-text role-axis-title" pointer-events="none"><text text-anchor="middle" transform="translate(100,30)" font-family="sans-serif" font-size="11px" font-weight="bold" fill="#000" opacity="1">x</text></g></g><path class="foreground" aria-hidden="true" d="" pointer-events="none" display="none"/></g></g><g class="mark-group role-axis" role="graphics-symbol" aria-roledescription="axis" aria-label="Y-axis titled 'y' for a linear scale with values from 0.0 to 1.1"><g transform="translate(0.5,0.5)"><path class="background" aria-hidden="true" d="M0,0h0v0h0Z" pointer-events="none"/><g><g class="mark-rule role-axis-tick" pointer-events="none"><line transform="translate(0,200)" x2="-5" y2="0" stroke="#888" stroke-width="1" opacity="1"/><line transform="translate(0,164)" x2="-5" y2="0" stroke="#888" stroke-width="1" opacity="1"/><line transform="translate(0,127)" x2="-5" y2="0" stroke="#888" stroke-width="1" opacity="1"/><line transform="translate(0,91)" x2="-5" y2="0" stroke="#888" stroke-width="1" opacity="1"/><line transform="translate(0,55)" x2="-5" y2="0" stroke="#888" stroke-width="1" opacity="1"/><line transform="translate(0,18)" x2="-5" y2="0" stroke="#888" stroke-width="1" opacity="1"/></g><g class="mark-text role-axis-label" pointer-events="none"><text text-anchor="end" transform="translate(-7,203)" font-family="sans-serif" font-size="10px" fill="#000" opacity="1">0.0</text><text text-anchor="end" transform="translate(-7,166.63636363636363)" font-family="sans-serif" font-size="10px" fill="#000" opacity="1">0.2</text><text text-anchor="end" transform="translate(-7,130.27272727272725)" font-family="sans-serif" font-size="10px" fill="#000" opacity="1">0.4</text><text text-anchor="end" transform="translate(-7,93.90909090909092)" font-family="sans-serif" font-size="10px" fill="#000" opacity="1">0.6</text><text text-anchor="end" transform="translate(-7,57.54545454545454)" font-family="sans-serif" font-size="10px" fill="#000" opacity="1">0.8</text><text text-anchor="end" transform="translate(-7,21.181818181818187)" font-family="sans-serif" font-size="10px" fill="#000" opacity="1">1.0</text></g><g class="mark-rule role-axis-domain" pointer-events="none"><line transform="translate(0,200)" x2="0" y2="-200" stroke="#888" stroke-width="1" opacity="1"/></g><g class="mark-text role-axis-title" pointer-events="none"><text text-anchor="middle" transform="translate(-26,100) rotate(-90) translate(0,-2)" font-family="sans-serif" font-size="11px" font-weight="bold" fill="#000" opacity="1">y</text></g></g><path class="foreground" aria-hidden="true" d="" pointer-events="none" display="none"/></g></g><g class="mark-group role-scope pathgroup" role="graphics-object" aria-roledescription="group mark container"><g transform="translate(0,0)"><path class="background" aria-hidden="true" d="M0,0h200v200h-200Z"/><g><g class="mark-line role-mark marks" clip-path="url(#clip1)" role="graphics-object" aria-roledescription="line mark container"><path aria-label="x: âˆ’30; y: 0.0333333333333; name: ð‘“, divergent" role="graphics-symbol" aria-roledescription="line mark" d="M0,193.93939393939394L0.2002002002002001,193.9272362542172L0.4004004004004002,193.91502969392417L0.6006006006006004,193.90277396319692L0.8008008008008004,193.89046876433355L1.0010010010010006,193.87811379722402L1.2012012012012008,193.86570875932577L1.401401401401401,193.85325334563913L1.6016016016016008,193.84074724868213L1.8018018018018012,193.8281901584654L2.0020020020020013,193.81558176246634L2.2022022022022014,193.80292174560344L2.4024024024024015,193.7902097902098L2.6026026026026017,193.77744557600673L2.802802802802802,193.76462878007678L3.003003003003002,193.7517590768365L3.2032032032032016,193.73883613800885L3.403403403403402,193.7258596325954L3.6036036036036023,193.71282922684793L3.803803803803803,193.6997445842399L4.004004004004003,193.6866053654375L4.204204204204203,193.67341122827014L4.404404404404403,193.6601618277011L4.604604604604603,193.646856815797L4.804804804804803,193.63349584169774L5.005005005005003,193.6200785515854L5.205205205205203,193.60660458865317L5.4054054054054035,193.5930735930736L5.605605605605604,193.57948520196663L5.805805805805804,193.5658390493672L6.006006006006004,193.5521347661923L6.206206206206204,193.53837198020761L6.406406406406403,193.52455031599416L6.606606606606605,193.51066939491378L6.806806806806804,193.4967288350747L7.0070070070070045,193.4827282512966L7.207207207207205,193.46866725507505L7.407407407407404,193.45454545454547L7.607607607607606,193.44036245444696L7.807807807807805,193.42611785608528L8.008008008008005,193.41181125729548L8.208208208208205,193.3974422524041L8.408408408408405,193.38301043219076L8.608608608608606,193.36851538384946L8.808808808808806,193.35395669094902L9.009009009009006,193.33933393339333L9.209209209209206,193.32464668738098L9.409409409409406,193.30989452536414L9.609609609609606,193.29507701600727L9.809809809809806,193.28019372414488L10.010010010010006,193.2652442107392L10.210210210210207,193.25022803283673L10.410410410410407,193.23514474352464L10.610610610610607,193.2199938918864L10.810810810810807,193.20477502295682L11.011011011011007,193.18948767767665L11.211211211211207,193.17413139284616L11.411411411411407,193.1587057010786L11.611611611611607,193.1432101307526L11.811811811811808,193.1276442059643L12.012012012012008,193.11200744647843L12.212212212212208,193.09629936767908L12.412412412412408,193.08051948051948L12.612612612612608,193.06466729147144L12.812812812812806,193.04874230247364L13.013013013013008,193.0327440108798L13.21321321321321,193.0166719094055L13.413413413413409,193.00052548607462L13.613613613613609,192.98430422416516L13.813813813813807,192.96800760215393L14.014014014014009,192.9516350936607L14.214214214214211,192.93518616739155L14.41441441441441,192.91866028708134L14.61461461461461,192.90205691143558L14.814814814814808,192.88537549407116L15.01501501501501,192.86861548345647L15.215215215215212,192.8517763228507L15.41541541541541,192.83485745024208L15.61561561561561,192.81785829828536L15.815815815815808,192.80077829423848L16.01601601601601,192.78361685989816L16.21621621621621,192.76637341153472L16.41641641641641,192.7490473598258L16.61661661661661,192.73163810978937L16.816816816816825,192.71414506071545L17.01701701701702,192.69656760609718L17.21721721721722,192.6789051335605L17.417417417417422,192.6611570247934L17.617617617617622,192.64332265547333L17.817817817817826,192.62540139519433L18.018018018018022,192.60739260739263L18.218218218218222,192.58929564927115L18.418418418418423,192.57110987172337L18.618618618618623,192.55283461925526L18.818818818818826,192.53446922990696L19.019019019019023,192.5160130351725L19.219219219219223,192.4974653599189L19.419419419419423,192.47882552230377L19.619619619619623,192.46009283369182L19.819819819819827,192.44126659856997L20.020020020020024,192.42234611446125L20.220220220220224,192.40333067183758L20.420420420420424,192.38421955403086L20.620620620620624,192.36501203714317L20.820820820820828,192.34570738995518L21.021021021021024,192.3263048738334L21.221221221221224,192.30680374263602L21.421421421421424,192.28720324261727L21.621621621621625,192.26750261233022L21.82182182182183,192.2477010825282L22.022022022022025,192.22779787606487L22.222222222222225,192.2077922077922L22.422422422422425,192.18768328445748L22.622622622622625,192.16747030459837L22.82282282282283,192.1471524584365L23.023023023023026,192.12672892776922L23.223223223223226,192.10619888585992L23.423423423423426,192.0855614973262L23.623623623623626,192.06481591802694L23.82382382382383,192.04396129494685L24.024024024024026,192.02299676607976L24.224224224224226,192.00192146030983L24.424424424424426,191.9807344972908L24.624624624624627,191.95943498732345L24.82482482482483,191.9380220312311L25.025025025025027,191.91649472023303L25.225225225225227,191.894852135816L25.42542542542543,191.8730933496034L25.62562562562563,191.8512174232228L25.825825825825827,191.82922340817078L26.026026026026027,191.80711034567597L26.226226226226228,191.78487726655976L26.42642642642643,191.7625231910946L26.62662662662663,191.74004712886023L26.826826826826828,191.7174480785972L27.027027027027028,191.69472502805834L27.227227227227228,191.6718769538577L27.427427427427432,191.64890282131663L27.627627627627632,191.6258015843078L27.82782782782783,191.60257218509648L28.02802802802803,191.57921355417878L28.22822822822823,191.55572461011792L28.428428428428433,191.53210425937698L28.628628628628633,191.50835139614944L28.82882882882883,191.48446490218643L29.02902902902903,191.46044364662137L29.22922922922923,191.43628648579144L29.429429429429433,191.4119922630561L29.629629629629633,191.38755980861245L29.82982982982983,191.3629879393075L30.03003003003003,191.33827545844713L30.23023023023023,191.31342115560193L30.430430430430434,191.2884238064094L30.630630630630634,191.26328217237307L30.83083083083083,191.2379950006578L31.03103103103103,191.2125610238818L31.23123123123123,191.18697895990474L31.431431431431434,191.1612475116125L31.631631631631635,191.13536536669773L31.83183183183183,191.10933119743692L32.032032032032035,191.08314366046324L32.232232232232235,191.05680139653552L32.432432432432435,191.03030303030303L32.632632632632635,191.0036471700662L32.83283283283283,190.97683240753284L33.033033033033036,190.94985731757032L33.233233233233236,190.92272045795283L33.433433433433436,190.89542036910458L33.633633633633636,190.86795557383795L33.83383383383383,190.84032457708707L34.034034034034036,190.81252586563664L34.234234234234236,190.7845579078456L34.434434434434436,190.75641915336573L34.63463463463464,190.72810803285535L34.83483483483483,190.69962295768747L35.03503503503504,190.6709623196526L35.23523523523524,190.6421244906562L35.43543543543544,190.61310782241014L35.63563563563564,190.58391064611902L35.83583583583583,190.55453127215998L36.03603603603604,190.52496798975673L36.23623623623624,190.49521906664765L36.43643643643644,190.4652827487473L36.63663663663664,190.4351572598018L36.83683683683683,190.40484080103732L37.03703703703704,190.37433155080214L37.23723723723724,190.34362766420182L37.43743743743744,190.31272727272727L37.63763763763764,190.28162848387566L37.83783783783783,190.25032938076416L38.03803803803804,190.21882802173593L38.23823823823824,190.18712243995876L38.43843843843844,190.15521064301552L38.63863863863864,190.12309061248703L38.83883883883883,190.09076030352625L39.03903903903904,190.05821764442453L39.23923923923924,190.02546053616894L39.43943943943944,189.992486851991L39.63963963963964,189.9592944369064L39.83983983983983,189.92588110724552L40.04004004004004,189.89224465017455L40.24024024024024,189.85838282320694L40.44044044044044,189.82429335370512L40.64064064064064,189.7899739383719L40.84084084084083,189.7554222427319L41.04104104104104,189.72063590060196L41.24124124124124,189.68561251355118L41.44144144144144,189.65034965034965L41.64164164164164,189.61484484640573L41.841841841841834,189.579095603192L42.04204204204204,189.54309938765897L42.24224224224224,189.506853631637L42.44244244244244,189.4703557312253L42.64264264264264,189.43360304616849L42.842842842842835,189.39659289921985L43.04304304304304,189.3593225754913L43.24324324324324,189.3217893217893L43.44344344344344,189.28399034593727L43.64364364364364,189.24592281608267L43.843843843843835,189.20758385999028L44.04404404404404,189.1689705643194L44.24424424424424,189.1300799738861L44.44444444444444,189.0909090909091L44.64464464464464,189.05145487423968L44.844844844844836,189.0117142385745L45.04504504504504,188.97168405365127L45.24524524524524,188.93136114342695L45.44544544544544,188.8907422852377L45.645645645645644,188.84982420894022L45.84584584584584,188.8086035960343L46.046046046046044,188.7670770787654L46.246246246246244,188.72524123920772L46.446446446446444,188.68309260832626L46.646646646646644,188.6406276650179L46.846846846846844,188.59784283513096L47.047047047047045,188.55473449046227L47.247247247247245,188.5112989477316L47.44744744744745,188.46753246753246L47.64764764764765,188.42343125325917L47.847847847847845,188.37899145000873L48.048048048048045,188.3342091434577L48.248248248248245,188.28908035871285L48.44844844844845,188.24360105913505L48.64864864864865,188.19776714513557L48.848848848848846,188.15157445294432L49.049049049049046,188.10501875334882L49.249249249249246,188.05809575040345L49.44944944944945,188.01080108010802L49.64964964964965,187.96313030905475L49.849849849849846,187.915078933043L50.050050050050054,187.86664237566043L50.25025025025025,187.81781598683008L50.45045045045045,187.7685950413223L50.650650650650654,187.71897473723033L50.85085085085085,187.66895019440844L51.051051051051054,187.61851645287229L51.25125125125125,187.5676684711592L51.45145145145145,187.51640112464855L51.651651651651655,187.46470920383965L51.85185185185185,187.4125874125874L52.052052052052055,187.36003036629342L52.25225225225225,187.30703259005145L52.45245245245245,187.25358851674642L52.652652652652655,187.19969248510475L52.85285285285285,187.14533873769543L53.053053053053056,187.09052141887963L53.25325325325325,187.03523457270782L53.453453453453456,186.97947214076248L53.653653653653656,186.92322795994502L53.85385385385386,186.86649576020508L54.054054054054056,186.80926916221034L54.25425425425426,186.75154167495523L54.454454454454456,186.6933066933067L54.65465465465466,186.63455749548464L54.854854854854864,186.57528724047572L55.05505505505506,186.51548896537759L55.255255255255264,186.45515558267235L55.45545545545546,186.39427987742593L55.65565565565566,186.33285450441207L55.855855855855864,186.2708719851577L56.05605605605606,186.20832470490785L56.256256256256265,186.14520490950696L56.45645645645646,186.08150470219437L56.65665665665666,186.01721604031073L56.856856856856865,185.9523307319131L57.05705705705706,185.88684043229497L57.257257257257265,185.82073664040877L57.45745745745746,185.7540106951872L57.65765765765766,185.68665377176018L57.857857857857866,185.61865687756423L58.05805805805806,185.5500108483402L58.258258258258266,185.4807063440157L58.45845845845846,185.41073384446878L58.65865865865866,185.3400836451684L58.858858858858866,185.26874585268746L59.05905905905906,185.19671038008448L59.25925925925927,185.12396694214877L59.45945945945946,185.05050505050505L59.65965965965966,184.97631400857207L59.85985985985987,184.90138290637043L60.06006006006006,184.8257006151743L60.26026026026027,184.74925578200137L60.46046046046046,184.67203682393557L60.66066066066066,184.5940319222762L60.86086086086087,184.5152290165078L61.06106106106106,184.4356157980837L61.26126126126127,184.3551797040169L61.46146146146146,184.27390791027153L61.66166166166166,184.19178732494657L61.86186186186187,184.10880458124552L62.06206206206206,184.02494603022308L62.26226226226227,183.9401977333012L62.46246246246246,183.85454545454544L62.66266266266266,183.76797465269314L62.86286286286287,183.6804704729233L63.06306306306306,183.5920177383592L63.26326326326327,183.50260094129305L63.46346346346346,183.41220423412204L63.66366366366366,183.32081141998498L63.86386386386387,183.22840594308738L64.06406406406407,183.13497087870348L64.26426426426427,183.04048892284186L64.46446446446447,182.9449423815621L64.66466466466466,182.8483131599279L64.86486486486487,182.75058275058277L65.06506506506507,182.6517322219328L65.26526526526527,182.55174220592087L65.46546546546547,182.4505928853755L65.66566566566566,182.34826398091704L65.86586586586587,182.24473473740338L66.06606606606607,182.13998390989542L66.26626626626627,182.0339897491233L66.46646646646647,181.9267299864315L66.66666666666666,181.8181818181818L66.86686686686687,181.7083218895908L67.06706706706707,181.59712627797734L67.26726726726727,181.48457047539617L67.46746746746747,181.3706293706294L67.66766766766766,181.25527723050942L67.86786786786787,181.13848768054373L68.06806806806807,181.02023368481048L68.26826826826827,180.9004875250932L68.46846846846847,180.77922077922076L68.66866866866866,180.65640429857683L68.86886886886887,180.5320081847413L69.06906906906907,180.40600176522508L69.26926926926927,180.27835356825585L69.46946946946947,180.1490312965723L69.66966966966966,180.01800180018L69.86986986986987,179.88523104802175L70.07007007007007,179.7506840985102L70.27027027027027,179.61432506887053L70.47047047047047,179.47611710323574L70.67067067067066,179.33602233943532L70.87087087087087,179.19400187441425L71.07107107107107,179.0500157282164L71.27127127127127,178.90402280646182L71.47147147147147,178.755980861244L71.67167167167166,178.60584645036943L71.87187187187187,178.45357489485605L72.07207207207207,178.2991202346041L72.27227227227228,178.1424351821464L72.47247247247248,177.98347107438016L72.67267267267266,177.82217782217782L72.87287287287288,177.65850385776585L73.07307307307308,177.49239607975667L73.27327327327328,177.3237997957099L73.47347347347348,177.15265866209262L73.67367367367366,176.97891462150017L73.87387387387388,176.80250783699057L74.07407407407408,176.62337662337663L74.27427427427428,176.4414573753095L74.47447447447448,176.25668449197863L74.67467467467466,176.0689902982393L74.87487487487488,175.8783049619703L75.07507507507508,175.68455640744799L75.27527527527528,175.48767022451233L75.47547547547548,175.28756957328386L75.67567567567566,175.0841750841751L75.87587587587588,174.87740475292344L76.07607607607608,174.66717383035376L76.27627627627628,174.45339470655927L76.47647647647648,174.2359767891683L76.67667667667666,174.0148263753414L76.87687687687688,173.78984651711923L77.07707707707708,173.56093687971418L77.27727727727728,173.32799359231078L77.47747747747748,173.0909090909091L77.67767767767766,172.849571952711L77.87787787787788,172.60386672151378L78.07807807807808,172.35367372353673L78.27827827827828,172.09886887306243L78.47847847847848,171.83932346723046L78.67867867867866,171.57490396927017L78.87887887887888,171.30547177940542L79.07907907907908,171.03088299260548L79.27927927927928,170.75098814229247L79.47947947947948,170.46563192904657L79.67967967967967,170.17465293327362L79.87987987987988,169.87788331071914L80.08008008008008,169.57514846962084L80.28028028028028,169.26626672819566L80.48048048048048,168.95104895104896L80.68068068068067,168.6292981629769L80.88088088088088,168.30080913850546L81.08108108108108,167.96536796536796L81.28128128128128,167.62275157997084L81.48148148148148,167.27272727272728L81.68168168168167,166.9150521609538L81.88188188188188,166.5494726268207L82.08208208208208,166.17572371762316L82.28228228228228,165.7935285053929L82.48248248248248,165.4025974025974L82.68268268268267,165.00262743037308L82.88288288288288,164.59330143540672L83.08308308308308,164.17428725121033L83.28328328328328,163.74523679912903L83.48348348348348,163.30578512396693L83.68368368368367,162.85554935861683L83.88388388388388,162.3941276115189L84.08408408408408,161.92109777015438L84.28428428428428,161.43601621308628L84.48448448448448,160.9384164222874L84.68468468468467,160.42780748663102L84.88488488488488,159.90367248645393L85.08508508508508,159.3654667480171L85.28528528528528,158.81261595547312L85.48548548548548,158.2445141065831L85.68568568568567,157.66052129688495L85.88588588588588,157.05996131528047L86.08608608608608,156.4421190320471L86.28628628628628,155.80623755806238L86.48648648648648,155.15151515151516L86.68668668668668,154.4771018455229L86.8868868868869,153.7820957668286L87.08708708708708,153.06553911205074L87.2872872872873,152.3264137437366L87.4874874874875,151.56363636363636L87.68768768768768,150.7760532150776L87.8878878878879,149.96243425995493L88.08808808808809,149.12146676852558L88.2882882882883,148.25174825174824L88.48848848848849,147.35177865612647L88.68868868868869,146.41995172968626L88.8888888888889,145.45454545454547L89.08908908908909,144.45371142618848L89.2892892892893,143.41546304163128L89.4894894894895,142.33766233766235L89.68968968968969,141.2180052956752L89.8898898898899,140.05400540054006L90.09009009009009,138.84297520661158L90.2902902902903,137.58200562324274L90.49049049049049,136.26794258373204L90.69069069069069,134.89736070381232L90.8908908908909,133.46653346653346L91.09109109109109,131.97139938712974L91.2912912912913,130.4075235109718L91.4914914914915,128.7700534759358L91.69169169169169,127.05366922234393L91.8918918918919,125.25252525252526L92.09209209209209,123.36018411967783L92.2922922922923,121.36953955135775L92.49249249249249,119.27272727272728L92.69269269269269,117.06102117061023L92.8928928928929,114.7247119078105L93.09309309309309,112.25296442687748L93.2932932932933,109.63364993215741L93.4934934934935,106.85314685314684L93.69369369369369,103.89610389610388L93.8938938938939,100.74515648286142L94.09409409409409,97.38058551617874L94.2942942942943,93.77990430622012L94.49449449449449,89.91735537190084L94.69469469469469,85.76329331046313L94.8948948948949,81.28342245989306L95.09509509509509,76.43784786641929L95.2952952952953,71.17988394584138L95.4954954954955,65.45454545454548L95.69569569569569,59.196617336152244L95.8958958958959,52.32815964523283L96.09609609609609,44.755244755244775L96.2962962962963,36.363636363636395L96.49649649649649,27.012987012987022L96.69669669669669,18.181818181818187L96.8968968968969,18.181818181818187L97.09709709709709,18.181818181818187L97.2972972972973,18.181818181818187L97.4974974974975,18.181818181818187L97.69769769769769,18.181818181818187L97.8978978978979,18.181818181818187L98.09809809809809,18.181818181818187L98.2982982982983,18.181818181818187L98.49849849849849,18.181818181818187L98.69869869869869,18.181818181818187L98.8988988988989,18.181818181818187L99.09909909909909,18.181818181818187L99.2992992992993,18.181818181818187L99.4994994994995,18.181818181818187L99.69969969969969,18.181818181818187L99.8998998998999,18.181818181818187L100.10010010010011,18.181818181818187L100.30030030030031,18.181818181818187L100.5005005005005,18.181818181818187L100.7007007007007,18.181818181818187L100.9009009009009,18.181818181818187L101.10110110110111,18.181818181818187L101.30130130130131,18.181818181818187L101.50150150150151,18.181818181818187L101.7017017017017,18.181818181818187L101.9019019019019,18.181818181818187L102.10210210210211,18.181818181818187L102.30230230230231,18.181818181818187L102.5025025025025,18.181818181818187L102.7027027027027,18.181818181818187L102.9029029029029,18.181818181818187L103.10310310310311,18.181818181818187L103.30330330330331,18.181818181818187L103.50350350350351,27.012987012987022L103.7037037037037,36.363636363636395L103.9039039039039,44.755244755244775L104.10410410410411,52.32815964523283L104.30430430430431,59.196617336152244L104.5045045045045,65.45454545454548L104.7047047047047,71.17988394584138L104.9049049049049,76.43784786641929L105.10510510510511,81.28342245989306L105.30530530530531,85.76329331046313L105.50550550550551,89.91735537190084L105.7057057057057,93.77990430622012L105.9059059059059,97.38058551617874L106.10610610610611,100.74515648286142L106.30630630630631,103.89610389610388L106.5065065065065,106.85314685314684L106.70670670670673,109.63364993215741L106.90690690690691,112.25296442687748L107.10710710710711,114.7247119078105L107.30730730730731,117.06102117061023L107.50750750750753,119.27272727272728L107.70770770770773,121.36953955135775L107.90790790790791,123.36018411967783L108.10810810810811,125.25252525252526L108.30830830830831,127.05366922234393L108.50850850850853,128.7700534759358L108.70870870870873,130.4075235109718L108.90890890890891,131.97139938712974L109.10910910910911,133.46653346653346L109.30930930930931,134.89736070381232L109.50950950950953,136.26794258373204L109.70970970970973,137.58200562324274L109.90990990990991,138.84297520661158L110.11011011011011,140.05400540054006L110.31031031031031,141.2180052956752L110.51051051051053,142.33766233766235L110.71071071071073,143.41546304163128L110.91091091091091,144.45371142618848L111.11111111111111,145.45454545454547L111.31131131131131,146.41995172968626L111.51151151151153,147.35177865612647L111.71171171171173,148.25174825174824L111.91191191191191,149.12146676852558L112.11211211211211,149.96243425995493L112.31231231231232,150.7760532150776L112.51251251251253,151.56363636363636L112.71271271271273,152.3264137437366L112.91291291291292,153.06553911205074L113.11311311311312,153.7820957668286L113.31331331331332,154.4771018455229L113.51351351351353,155.15151515151516L113.71371371371373,155.80623755806238L113.91391391391392,156.4421190320471L114.11411411411412,157.05996131528047L114.31431431431432,157.66052129688495L114.51451451451453,158.2445141065831L114.71471471471473,158.81261595547312L114.91491491491492,159.3654667480171L115.11511511511512,159.90367248645393L115.31531531531532,160.42780748663102L115.51551551551553,160.9384164222874L115.71571571571573,161.43601621308628L115.91591591591592,161.92109777015438L116.11611611611612,162.3941276115189L116.31631631631632,162.85554935861683L116.51651651651653,163.30578512396693L116.71671671671673,163.74523679912903L116.91691691691692,164.17428725121033L117.11711711711712,164.59330143540672L117.31731731731732,165.00262743037308L117.51751751751753,165.4025974025974L117.71771771771773,165.7935285053929L117.91791791791792,166.17572371762316L118.11811811811812,166.5494726268207L118.31831831831832,166.9150521609538L118.51851851851853,167.27272727272728L118.71871871871873,167.62275157997084L118.91891891891892,167.96536796536796L119.11911911911912,168.30080913850546L119.31931931931932,168.6292981629769L119.51951951951953,168.95104895104896L119.71971971971973,169.26626672819566L119.91991991991992,169.57514846962084L120.12012012012012,169.87788331071914L120.32032032032032,170.17465293327362L120.52052052052053,170.46563192904657L120.72072072072073,170.75098814229247L120.92092092092092,171.03088299260548L121.12112112112112,171.30547177940542L121.32132132132132,171.57490396927017L121.52152152152154,171.83932346723046L121.72172172172174,172.09886887306243L121.92192192192192,172.35367372353673L122.12212212212212,172.60386672151378L122.32232232232232,172.849571952711L122.52252252252254,173.0909090909091L122.72272272272274,173.32799359231078L122.92292292292292,173.56093687971418L123.12312312312312,173.78984651711923L123.32332332332332,174.0148263753414L123.52352352352354,174.2359767891683L123.72372372372374,174.45339470655927L123.92392392392392,174.66717383035376L124.12412412412412,174.87740475292344L124.32432432432432,175.0841750841751L124.52452452452454,175.28756957328386L124.72472472472474,175.48767022451233L124.92492492492492,175.68455640744799L125.12512512512512,175.8783049619703L125.32532532532532,176.0689902982393L125.52552552552554,176.25668449197863L125.72572572572574,176.4414573753095L125.92592592592592,176.62337662337663L126.12612612612612,176.80250783699057L126.32632632632632,176.97891462150017L126.52652652652654,177.15265866209262L126.72672672672674,177.3237997957099L126.92692692692692,177.49239607975667L127.12712712712712,177.65850385776585L127.32732732732732,177.82217782217782L127.52752752752754,177.98347107438016L127.72772772772774,178.1424351821464L127.92792792792793,178.2991202346041L128.12812812812814,178.45357489485605L128.32832832832833,178.60584645036943L128.52852852852854,178.755980861244L128.72872872872873,178.90402280646182L128.92892892892894,179.0500157282164L129.12912912912913,179.19400187441425L129.3293293293293,179.33602233943532L129.52952952952955,179.47611710323574L129.72972972972974,179.61432506887053L129.92992992992993,179.7506840985102L130.13013013013014,179.88523104802175L130.33033033033033,180.01800180018L130.53053053053054,180.1490312965723L130.73073073073073,180.27835356825585L130.93093093093094,180.40600176522508L131.13113113113113,180.5320081847413L131.3313313313313,180.65640429857683L131.53153153153156,180.77922077922076L131.73173173173174,180.9004875250932L131.93193193193193,181.02023368481048L132.13213213213214,181.13848768054373L132.33233233233233,181.25527723050942L132.53253253253254,181.3706293706294L132.73273273273273,181.48457047539617L132.93293293293294,181.59712627797734L133.13313313313313,181.7083218895908L133.33333333333331,181.8181818181818L133.53353353353356,181.9267299864315L133.73373373373374,182.0339897491233L133.93393393393393,182.13998390989542L134.13413413413414,182.24473473740338L134.33433433433433,182.34826398091704L134.53453453453454,182.4505928853755L134.73473473473473,182.55174220592087L134.93493493493494,182.6517322219328L135.13513513513513,182.75058275058277L135.33533533533532,182.8483131599279L135.53553553553556,182.9449423815621L135.73573573573574,183.04048892284186L135.93593593593593,183.13497087870348L136.13613613613614,183.22840594308738L136.33633633633633,183.32081141998498L136.53653653653654,183.41220423412204L136.73673673673673,183.50260094129305L136.93693693693695,183.5920177383592L137.13713713713713,183.6804704729233L137.33733733733732,183.76797465269314L137.53753753753756,183.85454545454544L137.73773773773775,183.9401977333012L137.93793793793793,184.02494603022308L138.13813813813815,184.10880458124552L138.33833833833833,184.19178732494657L138.53853853853855,184.27390791027153L138.73873873873873,184.3551797040169L138.93893893893895,184.4356157980837L139.13913913913913,184.5152290165078L139.33933933933932,184.5940319222762L139.53953953953956,184.67203682393557L139.73973973973975,184.74925578200137L139.93993993993993,184.8257006151743L140.14014014014015,184.90138290637043L140.34034034034033,184.97631400857207L140.54054054054055,185.05050505050505L140.74074074074073,185.12396694214877L140.94094094094095,185.19671038008448L141.14114114114113,185.26874585268746L141.34134134134132,185.3400836451684L141.54154154154156,185.41073384446878L141.74174174174175,185.4807063440157L141.94194194194193,185.5500108483402L142.14214214214215,185.61865687756423L142.34234234234233,185.68665377176018L142.54254254254255,185.7540106951872L142.74274274274273,185.82073664040877L142.94294294294295,185.88684043229497L143.14314314314313,185.9523307319131L143.34334334334332,186.01721604031073L143.54354354354356,186.08150470219437L143.74374374374375,186.14520490950696L143.94394394394394,186.20832470490785L144.14414414414415,186.2708719851577L144.34434434434434,186.33285450441207L144.54454454454455,186.39427987742593L144.74474474474474,186.45515558267235L144.94494494494495,186.51548896537759L145.14514514514514,186.57528724047572L145.34534534534532,186.63455749548464L145.54554554554556,186.6933066933067L145.74574574574575,186.75154167495523L145.94594594594594,186.80926916221034L146.14614614614615,186.86649576020508L146.34634634634634,186.92322795994502L146.54654654654655,186.97947214076248L146.74674674674674,187.03523457270782L146.94694694694695,187.09052141887963L147.14714714714714,187.14533873769543L147.34734734734732,187.19969248510475L147.54754754754757,187.25358851674642L147.74774774774775,187.30703259005145L147.94794794794794,187.36003036629342L148.14814814814815,187.4125874125874L148.34834834834834,187.46470920383965L148.54854854854855,187.51640112464855L148.74874874874874,187.5676684711592L148.94894894894895,187.61851645287229L149.14914914914914,187.66895019440844L149.34934934934932,187.71897473723033L149.54954954954957,187.7685950413223L149.74974974974975,187.81781598683008L149.94994994994994,187.86664237566043L150.15015015015015,187.915078933043L150.35035035035034,187.96313030905475L150.55055055055055,188.01080108010802L150.75075075075074,188.05809575040345L150.95095095095095,188.10501875334882L151.15115115115114,188.15157445294432L151.35135135135133,188.19776714513557L151.55155155155157,188.24360105913505L151.75175175175175,188.28908035871285L151.95195195195194,188.3342091434577L152.15215215215215,188.37899145000873L152.35235235235234,188.42343125325917L152.55255255255256,188.46753246753246L152.75275275275274,188.5112989477316L152.95295295295296,188.55473449046227L153.15315315315314,188.59784283513096L153.35335335335333,188.6406276650179L153.55355355355357,188.68309260832626L153.75375375375376,188.72524123920772L153.95395395395397,188.7670770787654L154.15415415415416,188.8086035960343L154.35435435435437,188.84982420894022L154.55455455455456,188.8907422852377L154.75475475475477,188.93136114342695L154.95495495495496,188.97168405365127L155.15515515515517,189.0117142385745L155.35535535535533,189.05145487423968L155.55555555555557,189.0909090909091L155.75575575575576,189.1300799738861L155.95595595595597,189.1689705643194L156.15615615615616,189.20758385999028L156.35635635635637,189.24592281608267L156.55655655655656,189.28399034593727L156.75675675675677,189.3217893217893L156.95695695695696,189.3593225754913L157.15715715715717,189.39659289921985L157.35735735735733,189.43360304616849L157.55755755755757,189.4703557312253L157.75775775775776,189.506853631637L157.95795795795797,189.54309938765897L158.15815815815816,189.579095603192L158.35835835835837,189.61484484640573L158.55855855855856,189.65034965034965L158.75875875875877,189.68561251355118L158.95895895895896,189.72063590060196L159.15915915915917,189.7554222427319L159.35935935935933,189.7899739383719L159.55955955955957,189.82429335370512L159.75975975975976,189.85838282320694L159.95995995995997,189.89224465017455L160.16016016016016,189.92588110724552L160.36036036036037,189.9592944369064L160.56056056056056,189.992486851991L160.76076076076077,190.02546053616894L160.96096096096096,190.05821764442453L161.16116116116117,190.09076030352625L161.36136136136133,190.12309061248703L161.56156156156158,190.15521064301552L161.76176176176176,190.18712243995876L161.96196196196198,190.21882802173593L162.16216216216216,190.25032938076416L162.36236236236238,190.28162848387566L162.56256256256256,190.31272727272727L162.76276276276278,190.34362766420182L162.96296296296296,190.37433155080214L163.16316316316318,190.40484080103732L163.36336336336333,190.4351572598018L163.56356356356358,190.4652827487473L163.76376376376376,190.49521906664765L163.96396396396398,190.52496798975673L164.16416416416416,190.55453127215998L164.36436436436438,190.58391064611902L164.56456456456456,190.61310782241014L164.76476476476478,190.6421244906562L164.96496496496496,190.6709623196526L165.16516516516518,190.69962295768747L165.36536536536534,190.72810803285535L165.56556556556558,190.75641915336573L165.76576576576576,190.7845579078456L165.96596596596598,190.81252586563664L166.16616616616616,190.84032457708707L166.36636636636638,190.86795557383795L166.56656656656656,190.89542036910458L166.76676676676678,190.92272045795283L166.96696696696696,190.94985731757032L167.16716716716718,190.97683240753284L167.36736736736734,191.0036471700662L167.56756756756758,191.03030303030303L167.76776776776777,191.05680139653552L167.96796796796798,191.08314366046324L168.16816816816817,191.10933119743692L168.36836836836838,191.13536536669773L168.56856856856857,191.1612475116125L168.76876876876878,191.18697895990474L168.96896896896897,191.2125610238818L169.16916916916918,191.2379950006578L169.36936936936934,191.26328217237307L169.56956956956958,191.2884238064094L169.76976976976977,191.31342115560193L169.96996996996998,191.33827545844713L170.17017017017017,191.3629879393075L170.37037037037038,191.38755980861245L170.57057057057057,191.4119922630561L170.77077077077078,191.43628648579144L170.97097097097097,191.46044364662137L171.17117117117118,191.48446490218643L171.37137137137134,191.50835139614944L171.57157157157158,191.53210425937698L171.77177177177177,191.55572461011792L171.97197197197198,191.57921355417878L172.17217217217217,191.60257218509648L172.37237237237238,191.6258015843078L172.57257257257257,191.64890282131663L172.77277277277278,191.6718769538577L172.97297297297297,191.69472502805834L173.17317317317318,191.7174480785972L173.37337337337334,191.74004712886023L173.57357357357358,191.7625231910946L173.77377377377377,191.78487726655976L173.97397397397398,191.80711034567597L174.17417417417417,191.82922340817078L174.37437437437438,191.8512174232228L174.57457457457457,191.8730933496034L174.77477477477478,191.894852135816L174.97497497497497,191.91649472023303L175.17517517517518,191.9380220312311L175.37537537537534,191.95943498732345L175.57557557557558,191.9807344972908L175.77577577577577,192.00192146030983L175.97597597597598,192.02299676607976L176.17617617617617,192.04396129494685L176.37637637637638,192.06481591802694L176.57657657657657,192.0855614973262L176.77677677677679,192.10619888585992L176.97697697697697,192.12672892776922L177.17717717717719,192.1471524584365L177.37737737737734,192.16747030459837L177.57757757757759,192.18768328445748L177.77777777777777,192.2077922077922L177.977977977978,192.22779787606487L178.17817817817817,192.2477010825282L178.3783783783784,192.26750261233022L178.57857857857857,192.28720324261727L178.7787787787788,192.30680374263602L178.97897897897897,192.3263048738334L179.1791791791792,192.34570738995518L179.37937937937934,192.36501203714317L179.5795795795796,192.38421955403086L179.77977977977977,192.40333067183758L179.97997997998,192.42234611446125L180.18018018018017,192.44126659856997L180.3803803803804,192.46009283369182L180.58058058058057,192.47882552230377L180.7807807807808,192.4974653599189L180.98098098098097,192.5160130351725L181.1811811811812,192.53446922990696L181.38138138138135,192.55283461925526L181.5815815815816,192.57110987172337L181.78178178178177,192.58929564927115L181.981981981982,192.60739260739263L182.18218218218217,192.62540139519433L182.3823823823824,192.64332265547333L182.58258258258257,192.6611570247934L182.7827827827828,192.6789051335605L182.98298298298297,192.69656760609718L183.1831831831832,192.71414506071545L183.38338338338338,192.73163810978937L183.5835835835836,192.7490473598258L183.7837837837838,192.76637341153472L183.983983983984,192.78361685989816L184.18418418418418,192.80077829423848L184.3843843843844,192.81785829828536L184.5845845845846,192.83485745024208L184.7847847847848,192.8517763228507L184.98498498498498,192.86861548345647L185.1851851851852,192.88537549407116L185.38538538538538,192.90205691143558L185.5855855855856,192.91866028708134L185.7857857857858,192.93518616739155L185.985985985986,192.9516350936607L186.18618618618618,192.96800760215393L186.3863863863864,192.98430422416516L186.5865865865866,193.00052548607462L186.7867867867868,193.0166719094055L186.986986986987,193.0327440108798L187.1871871871872,193.04874230247364L187.38738738738738,193.06466729147144L187.5875875875876,193.08051948051948L187.7877877877878,193.09629936767908L187.987987987988,193.11200744647843L188.18818818818818,193.1276442059643L188.3883883883884,193.1432101307526L188.5885885885886,193.1587057010786L188.7887887887888,193.17413139284616L188.98898898898898,193.18948767767665L189.1891891891892,193.20477502295682L189.38938938938938,193.2199938918864L189.5895895895896,193.23514474352464L189.7897897897898,193.25022803283673L189.98998998999,193.2652442107392L190.19019019019018,193.28019372414488L190.3903903903904,193.29507701600727L190.5905905905906,193.30989452536414L190.7907907907908,193.32464668738098L190.990990990991,193.33933393339333L191.1911911911912,193.35395669094902L191.39139139139138,193.36851538384946L191.5915915915916,193.38301043219076L191.7917917917918,193.3974422524041L191.991991991992,193.41181125729548L192.19219219219218,193.42611785608528L192.3923923923924,193.44036245444696L192.5925925925926,193.45454545454547L192.7927927927928,193.46866725507505L192.99299299299298,193.4827282512966L193.1931931931932,193.4967288350747L193.39339339339338,193.51066939491378L193.5935935935936,193.52455031599416L193.7937937937938,193.53837198020761L193.993993993994,193.5521347661923L194.19419419419418,193.5658390493672L194.3943943943944,193.57948520196663L194.5945945945946,193.5930735930736L194.7947947947948,193.60660458865317L194.994994994995,193.6200785515854L195.1951951951952,193.63349584169774L195.39539539539538,193.646856815797L195.5955955955956,193.6601618277011L195.7957957957958,193.67341122827014L195.995995995996,193.6866053654375L196.19619619619618,193.6997445842399L196.3963963963964,193.71282922684793L196.5965965965966,193.7258596325954L196.7967967967968,193.73883613800885L196.99699699699698,193.7517590768365L197.1971971971972,193.76462878007678L197.39739739739738,193.77744557600673L197.5975975975976,193.7902097902098L197.7977977977978,193.80292174560344L197.997997997998,193.81558176246634L198.19819819819818,193.8281901584654L198.3983983983984,193.84074724868213L198.5985985985986,193.85325334563913L198.7987987987988,193.86570875932577L198.998998998999,193.87811379722402L199.1991991991992,193.89046876433355L199.39939939939939,193.90277396319692L199.5995995995996,193.91502969392417L199.7997997997998,193.9272362542172L200,193.93939393939394" stroke="#4c78a8" stroke-width="2"/></g></g><path class="foreground" aria-hidden="true" d="" display="none"/></g><g transform="translate(0,0)"><path class="background" aria-hidden="true" d="M0,0h200v200h-200Z"/><g><g class="mark-line role-mark marks" clip-path="url(#clip2)" role="graphics-object" aria-roledescription="line mark container"><path aria-label="x: âˆ’30; y: 0.00111111111111; name: ð‘“Â², convergent" role="graphics-symbol" aria-roledescription="line mark" d="M0,199.7979797979798L0.2002002002002001,199.79716847268347L0.4004004004004002,199.79635225005796L0.6006006006006004,199.79553109060873L0.8008008008008004,199.7947049544423L1.0010010010010006,199.79387380126144L1.2012012012012008,199.79303759036023L1.401401401401401,199.79219628061907L1.6016016016016008,199.7913498304996L1.8018018018018012,199.79049819803964L2.0020020020020013,199.78964134084794L2.2022022022022014,199.78877921609887L2.4024024024024015,199.78791178052717L2.6026026026026017,199.78703899042242L2.802802802802802,199.78616080162362L3.003003003003002,199.78527716951356L3.2032032032032016,199.78438804901313L3.403403403403402,199.78349339457557L3.6036036036036023,199.7825931601807L3.803803803803803,199.781687299329L4.004004004004003,199.78077576503551L4.204204204204203,199.77985850982384L4.404404404404403,199.77893548571984L4.604604604604603,199.77800664424558L4.804804804804803,199.77707193641277L5.005005005005003,199.77613131271633L5.205205205205203,199.77518472312795L5.4054054054054035,199.77423211708927L5.605605605605604,199.77327344350527L5.805805805805804,199.77230865073744L6.006006006006004,199.7713376865966L6.206206206206204,199.7703604983361L6.406406406406403,199.7693770326445L6.606606606606605,199.76838723563841L6.806806806806804,199.76739105285498L7.0070070070070045,199.76638842924456L7.207207207207205,199.76537930916288L7.407407407407404,199.76436363636364L7.607607607607606,199.76334135399034L7.807807807807805,199.76231240456858L8.008008008008005,199.76127672999775L8.208208208208205,199.76023427154314L8.408408408408405,199.7591849698273L8.608608608608606,199.75812876482166L8.808808808808806,199.7570655958382L9.009009009009006,199.75599540152035L9.209209209209206,199.7549181198344L9.409409409409406,199.75383368806035L9.609609609609606,199.75274204278298L9.809809809809806,199.75164311988237L10.010010010010006,199.7505368545246L10.210210210210207,199.74942318115214L10.410410410410407,199.74830203347415L10.610610610610607,199.74717334445668L10.810810810810807,199.74603704631252L11.011011011011007,199.74489307049114L11.211211211211207,199.7437413476683L11.411411411411407,199.7425818077355L11.611611611611607,199.74141437978943L11.811811811811808,199.74023899212102L12.012012012012008,199.73905557220448L12.212212212212208,199.7378640466861L12.412412412412408,199.73666434137292L12.612612612612608,199.73545638122107L12.812812812812806,199.7342400903242L13.013013013013008,199.73301539190138L13.21321321321321,199.73178220828513L13.413413413413409,199.730540460909L13.613613613613609,199.72929007029515L13.813813813813807,199.7280309560415L14.014014014014009,199.72676303680896L14.214214214214211,199.7254862303082L14.41441441441441,199.72420045328633L14.61461461461461,199.72290562151323L14.814814814814808,199.721601649768L15.01501501501501,199.72028845182462L15.215215215215212,199.71896594043795L15.41541541541541,199.71763402732907L15.61561561561561,199.7162926231707L15.815815815815808,199.7149416375721L16.01601601601601,199.7135809790639L16.21621621621621,199.71221055508258L16.41641641641641,199.71083027195473L16.61661661661661,199.70944003488114L16.816816816816825,199.70803974792037L17.01701701701702,199.7066293139723L17.21721721721722,199.70520863476128L17.417417417417422,199.70377761081892L17.617617617617622,199.7023361414669L17.817817817817826,199.700884124799L18.018018018018022,199.69942145766322L18.218218218218222,199.6979480356435L18.418418418418423,199.69646375304097L18.618618618618623,199.69496850285512L18.818818818818826,199.69346217676437L19.019019019019023,199.6919446651066L19.219219219219223,199.69041585685912L19.419419419419423,199.6888756396183L19.619619619619623,199.68732389957898L19.819819819819827,199.6857605215136L20.020020020020024,199.6841853887504L20.220220220220224,199.68259838315205L20.420420420420424,199.68099938509337L20.620620620620624,199.67938827343866L20.820820820820828,199.67776492551897L21.021021021021024,199.67612921710855L21.221221221221224,199.67448102240124L21.421421421421424,199.67282021398617L21.621621621621625,199.67114666282325L21.82182182182183,199.6694602382179L22.022022022022025,199.66776080779584L22.222222222222225,199.6660482374768L22.422422422422425,199.6643223914483L22.622622622622625,199.6625831321386L22.82282282282283,199.6608303201893L23.023023023023026,199.65906381442747L23.223223223223226,199.6572834718372L23.423423423423426,199.65548914753066L23.623623623623626,199.65368069471862L23.82382382382383,199.65185796468032L24.024024024024026,199.65002080673315L24.224224224224226,199.6481690682012L24.424424424424426,199.64630259438383L24.624624624624627,199.64442122852307L24.82482482482483,199.64252481177095L25.025025025025027,199.6406131831559L25.225225225225227,199.63868617954844L25.42542542542543,199.63674363562657L25.62562562562563,199.63478538384027L25.825825825825827,199.6328112543753L26.026026026026027,199.6308210751164L26.226226226226228,199.62881467160983L26.42642642642643,199.6267918670251L26.62662662662663,199.624752482116L26.826826826826828,199.62269633518096L27.027027027027028,199.62062324202242L27.227227227227228,199.61853301590574L27.427427427427432,199.61642546751705L27.627627627627632,199.6143004049204L27.82782782782783,199.61215763351416L28.02802802802803,199.6099969559863L28.22822822822823,199.60781817226908L28.428428428428433,199.60562107949266L28.628628628628633,199.60340547193798L28.82882882882883,199.60117114098847L29.02902902902903,199.59891787508107L29.22922922922923,199.5966454596561L29.429429429429433,199.59435367710606L29.629629629629633,199.59204230672373L29.82982982982983,199.58971112464897L30.03003003003003,199.58735990381444L30.23023023023023,199.58498841389033L30.430430430430434,199.58259642122795L30.630630630630634,199.58018368880235L30.83083083083083,199.57774997615329L31.03103103103103,199.57529503932548L31.23123123123123,199.5728186308076L31.431431431431434,199.57032049946963L31.631631631631635,199.56780039049931L31.83183183183183,199.56525804533723L32.032032032032035,199.56269320161036L32.232232232232235,199.56010559306446L32.432432432432435,199.55749494949495L32.632632632632635,199.55486099667638L32.83283283283283,199.55220345629039L33.033033033033036,199.54952204585214L33.233233233233236,199.54681647863544L33.433433433433436,199.54408646359576L33.633633633633636,199.54133170529232L33.83383383383383,199.53855190380787L34.034034034034036,199.53574675466723L34.234234234234236,199.5329159487538L34.434434434434436,199.53005917222455L34.63463463463464,199.5271761064228L34.83483483483483,199.52426642778954L35.03503503503504,199.52132980777262L35.23523523523524,199.51836591273394L35.43543543543544,199.51537440385468L35.63563563563564,199.5123549370385L35.83583583583583,199.5093071628127L36.03603603603604,199.50623072622676L36.23623623623624,199.5031252667494L36.43643643643644,199.49999041816267L36.63663663663664,199.49682580845402L36.83683683683683,199.4936310597061L37.03703703703704,199.49040578798366L37.23723723723724,199.48714960321837L37.43743743743744,199.4838621090909L37.63763763763764,199.48054290291023L37.83783783783783,199.47719157549025L38.03803803803804,199.4738077110239L38.23823823823824,199.47039088695402L38.43843843843844,199.46694067384132L38.63863863863864,199.46345663522973L38.83883883883883,199.45993832750807L39.03903903903904,199.45638529976904L39.23923923923924,199.4527970936646L39.43943943943944,199.44917324325834L39.63963963963964,199.44551327487395L39.83983983983983,199.44181670694056L40.04004004004004,199.4380830498344L40.24024024024024,199.43431180571656L40.44044044044044,199.43050246836702L40.64064064064064,199.42665452301483L40.84084084084083,199.42276744616407L41.04104104104104,199.41884070541605L41.24124124124124,199.41487375928665L41.44144144144144,199.4108660570199L41.64164164164164,199.40681703839675L41.841841841841834,199.40272613353923L42.04204204204204,199.39859276270994L42.24224224224224,199.39441633610662L42.44244244244244,199.39019625365185L42.64264264264264,199.38593190477732L42.842842842842835,199.3816226682032L43.04304304304304,199.37726791171153L43.24324324324324,199.3728669919146L43.44344344344344,199.36841925401717L43.64364364364364,199.36392403157294L43.843843843843835,199.3593806462347L44.04404404404404,199.3547884074988L44.24424424424424,199.3501466124424L44.44444444444444,199.34545454545454L44.64464464464464,199.34071147796055L44.844844844844836,199.3359166681389L45.04504504504504,199.3310693606313L45.24524524524524,199.32616878624518L45.44544544544544,199.32121416164847L45.645645645645644,199.31620468905655L45.84584584584584,199.31113955591118L46.046046046046044,199.3060179345508L46.246246246246244,199.30083898187266L46.446446446446444,199.29560183898553L46.646646646646644,199.29030563085382L46.846846846846844,199.28494946593193L47.047047047047045,199.279532435789L47.247247247247245,199.27405361472384L47.44744744744745,199.2685120593692L47.64764764764765,199.26290680828592L47.847847847847845,199.25723688154565L48.048048048048045,199.2515012803028L48.248248248248245,199.24569898635423L48.44844844844845,199.23982896168778L48.64864864864865,199.23389014801757L48.848848848848846,199.2278814663073L49.049049049049046,199.22180181628L49.249249249249246,199.21565007591406L49.44944944944945,199.20942510092596L49.64964964964965,199.20312572423762L49.849849849849846,199.1967507554298L50.050050050050054,199.19029898017934L50.25025025025025,199.18376915968096L50.45045045045045,199.1771600300526L50.650650650650654,199.17047030172367L50.85085085085085,199.1636986588061L51.051051051051054,199.15684375844714L51.25125125125125,199.14990423016346L51.45145145145145,199.14287867515628L51.651651651651655,199.13576566560633L51.85185185185185,199.12856374394835L52.052052052052055,199.12127142212438L52.25225225225225,199.1138871808149L52.45245245245245,199.1064094686477L52.652652652652655,199.09883670138265L52.85285285285285,199.09116726107274L53.053053053053056,199.08339949519979L53.25325325325325,199.07553171578408L53.453453453453456,199.0675621984675L53.653653653653656,199.05948918156838L53.85385385385386,199.0513108651081L54.054054054054056,199.0430254098074L54.25425425425426,199.03463093605254L54.454454454454456,199.0261255228288L54.65465465465466,199.01750720662173L54.854854854854864,199.00877398028348L55.05505505505506,198.99992379186432L55.255255255255264,198.99095454340713L55.45545545545546,198.98186408970403L55.65565565565566,198.97265023701337L55.855855855855864,198.9633107417364L56.05605605605606,198.9538433090511L56.256256256256265,198.94424559150247L56.45645645645646,198.9345151875473L56.65665665665666,198.9246496400516L56.856856856856865,198.91464643473947L57.05705705705706,198.90450299859071L57.257257257257265,198.89421669818645L57.45745745745746,198.88378483799937L57.65765765765766,198.8732046586279L57.857857857857866,198.8624733349712L58.05805805805806,198.85158797434303L58.258258258258266,198.8405456145221L58.45845845845846,198.82934322173688L58.65865865865866,198.81797768858138L58.858858858858866,198.80644583186006L59.05905905905906,198.79474439035897L59.25925925925927,198.78287002253944L59.45945945945946,198.77081930415264L59.65965965965966,198.75858872577035L59.85985985985987,198.74617469022976L60.06006006006006,198.73357350998825L60.26026026026027,198.7207814043845L60.46046046046046,198.70779449680268L60.66066066066066,198.69460881173487L60.86086086086087,198.68122027173837L61.06106106106106,198.66762469428326L61.26126126126127,198.65381778848516L61.46146146146146,198.6397951517196L61.66166166166166,198.62555226611153L61.86186186186187,198.61108449489626L62.06206206206206,198.59638707864494L62.26226226226227,198.58145513134994L62.46246246246246,198.56628363636364L62.66266266266266,198.55086744218414L62.86286286286287,198.5352012580818L63.06306306306306,198.51927964955925L63.26326326326327,198.50309703363774L63.46346346346346,198.48664767396235L63.66366366366366,198.46992567571763L63.86386386386387,198.45292498034573L64.06406406406407,198.43563936005802L64.26426426426427,198.41806241213064L64.46446446446447,198.4001875529747L64.66466466466466,198.38200801197056L64.86486486486487,198.36351682505529L65.06506506506507,198.3447068280526L65.26526526526527,198.32557064973247L65.46546546546547,198.3061007045884L65.66566566566566,198.28628918531933L65.86586586586587,198.26612805500156L66.06606606606607,198.2456090389366L66.26626626626627,198.22472361615965L66.46646646646647,198.20346301059155L66.66666666666666,198.1818181818182L66.86686686686687,198.1597798154785L67.06706706706707,198.13733831324208L67.26726726726727,198.11448378235684L67.46746746746747,198.09120602474448L67.66766766766766,198.06749452562218L67.86786786786787,198.0433384416265L68.06806806806807,198.01872658841438L68.26826826826827,197.99364742771485L68.46846846846847,197.96808905380334L68.66866866866866,197.94203917936937L68.86886886886887,197.91548512074561L69.06906906906907,197.888413782466L69.26926926926927,197.86081164111698L69.46946946946947,197.83266472844542L69.66966966966966,197.80395861368314L69.86986986986987,197.7746783850469L70.07007007007007,197.7448086303692L70.27027027027027,197.71433341681274L70.47047047047047,197.6832362696195L70.67067067067066,197.65150014984025L70.87087087087087,197.61910743098966L71.07107107107107,197.5860398745661L71.27127127127127,197.55227860437344L71.47147147147147,197.51780407957693L71.67167167167166,197.48259606642156L71.87187187187187,197.4466336085363L72.07207207207207,197.40989499574306L72.27227227227228,197.3723577312833L72.47247247247248,197.3339984973704L72.67267267267266,197.29479311896893L72.87287287287288,197.25471652569595L73.07307307307308,197.21374271173195L73.27327327327328,197.17184469362226L73.47347347347348,197.12899446584032L73.67367367367366,197.08516295397703L73.87387387387388,197.04031996540914L74.07407407407408,196.99443413729128L74.27427427427428,196.94747288170353L74.47447447447448,196.89940232777602L74.67467467467466,196.85018726059832L74.87487487487488,196.79979105670762L75.07507507507508,196.7481756159358L75.27527527527528,196.69530128937757L75.47547547547548,196.64112680322594L75.67567567567566,196.5856091782018L75.87587587587588,196.5287036442836L76.07607607607608,196.47036355042167L76.27627627627628,196.4105402688963L76.47647647647648,196.34918309395448L76.67667667667666,196.2862391343299L76.87687687687688,196.2216531992211L77.07707707707708,196.1553676772685L77.27727727727728,196.08732240803502L77.47747747747748,196.01745454545454L77.67767767767766,195.9456984126694L77.87787787787788,195.8719853476308L78.07807807807808,195.79624353878435L78.27827827827828,195.7183978501059L78.47847847847848,195.63836963469197L78.67867867867866,195.55607653604085L78.87887887887888,195.47143227608626L79.07907907907908,195.3843464289654L79.27927927927928,195.29472417941227L79.47947947947948,195.20246606457195L79.67967967967967,195.10746769792124L79.87987987987988,195.00961947386543L80.08008008008008,194.9088062514491L80.28028028028028,194.80490701547672L80.48048048048048,194.69779451317913L80.68068068068067,194.58733486438928L80.88088088088088,194.473387142996L81.08108108108108,194.35580292723148L81.28128128128128,194.23442581611246L81.48148148148148,194.10909090909092L81.68168168168167,193.97962424568175L81.88188188188188,193.845842201509L82.08208208208208,193.70755083685393L82.28228228228228,193.5645451933875L82.48248248248248,193.41660853432282L82.68268268268267,193.263511522725L82.88288288288288,193.10501133215814L83.08308308308308,192.94085068322667L83.28328328328328,192.77075679886823L83.48348348348348,192.5944402704733L83.68368368368367,192.4115938260242L83.88388388388388,192.221890990457L84.08408408408408,192.02498462733422L84.28428428428428,191.8205053496546L84.48448448448448,191.60805978620755L84.68468468468467,191.38722868826673L84.88488488488488,191.15756485959548L85.08508508508508,190.91859089066423L85.28528528528528,190.66979667562757L85.48548548548548,190.41063668792563L85.68568568568567,190.14052698731655L85.88588588588588,189.85884192765135L86.08608608608608,189.56491053069905L86.28628628628628,189.2580124867407L86.48648648648648,188.93737373737375L86.68668668668668,188.60216158989408L86.8868868868869,188.25147930561369L87.08708708708708,187.88436009636658L87.2872872872873,187.49976045406638L87.4874874874875,187.09655272727272L87.68768768768768,186.6735168460332L87.8878878878879,186.22933108145867L88.08808808808809,185.76256170917566L88.2882882882883,185.27165142549757L88.48848848848849,184.75490634129574L88.68868868868869,184.21048135042966L88.8888888888889,183.63636363636365L89.08908908908909,183.0303540412117L89.2892892892893,182.39004597463853L89.4894894894895,181.71280148423006L89.68968968968969,180.995724042194L89.8898898898899,180.23562752314834L90.09009009009009,179.42900075131482L90.2902902902903,178.57196687890703L90.49049049049049,177.6602367161924L90.69069069069069,176.68905496168762L90.8908908908909,175.6531380707205L91.09109109109109,174.54660224260024L91.2912912912913,173.3628796886823L91.4914914914915,172.09462094998426L91.69169169169169,170.7335805434223L91.8918918918919,169.27048260381594L92.09209209209209,167.69486242006673L92.2922922922923,165.99487879298977L92.49249249249249,164.15709090909093L92.69269269269269,162.16619184905917L92.8928928928929,160.00468882436746L93.09309309309309,157.65251761471043L93.2932932932933,155.08657526478868L93.4934934934935,152.28015061861214L93.69369369369369,149.2022263450835L93.8938938938939,145.81661821113582L94.09409409409409,142.08090674048734L94.2942942942943,137.94510198942334L94.49449449449449,133.34996243425996L94.69469469469469,128.22486164600798L94.8948948948949,122.48505819440076L95.09509509509509,116.02817008064821L95.2952952952953,108.72957734886208L95.4954954954955,100.43636363636365L95.69569569569569,90.9592408672993L95.8958958958959,80.06165161429888L96.09609609609609,67.44486282947824L96.2962962962963,52.727272727272776L96.49649649649649,35.41521335807052L96.69669669669669,18.181818181818187L96.8968968968969,18.181818181818187L97.09709709709709,18.181818181818187L97.2972972972973,18.181818181818187L97.4974974974975,18.181818181818187L97.69769769769769,18.181818181818187L97.8978978978979,18.181818181818187L98.09809809809809,18.181818181818187L98.2982982982983,18.181818181818187L98.49849849849849,18.181818181818187L98.69869869869869,18.181818181818187L98.8988988988989,18.181818181818187L99.09909909909909,18.181818181818187L99.2992992992993,18.181818181818187L99.4994994994995,18.181818181818187L99.69969969969969,18.181818181818187L99.8998998998999,18.181818181818187L100.10010010010011,18.181818181818187L100.30030030030031,18.181818181818187L100.5005005005005,18.181818181818187L100.7007007007007,18.181818181818187L100.9009009009009,18.181818181818187L101.10110110110111,18.181818181818187L101.30130130130131,18.181818181818187L101.50150150150151,18.181818181818187L101.7017017017017,18.181818181818187L101.9019019019019,18.181818181818187L102.10210210210211,18.181818181818187L102.30230230230231,18.181818181818187L102.5025025025025,18.181818181818187L102.7027027027027,18.181818181818187L102.9029029029029,18.181818181818187L103.10310310310311,18.181818181818187L103.30330330330331,18.181818181818187L103.50350350350351,35.41521335807052L103.7037037037037,52.727272727272776L103.9039039039039,67.44486282947824L104.10410410410411,80.06165161429888L104.30430430430431,90.9592408672993L104.5045045045045,100.43636363636365L104.7047047047047,108.72957734886208L104.9049049049049,116.02817008064821L105.10510510510511,122.48505819440076L105.30530530530531,128.22486164600798L105.50550550550551,133.34996243425996L105.7057057057057,137.94510198942334L105.9059059059059,142.08090674048734L106.10610610610611,145.81661821113582L106.30630630630631,149.2022263450835L106.5065065065065,152.28015061861214L106.70670670670673,155.08657526478868L106.90690690690691,157.65251761471043L107.10710710710711,160.00468882436746L107.30730730730731,162.16619184905917L107.50750750750753,164.15709090909093L107.70770770770773,165.99487879298977L107.90790790790791,167.69486242006673L108.10810810810811,169.27048260381594L108.30830830830831,170.7335805434223L108.50850850850853,172.09462094998426L108.70870870870873,173.3628796886823L108.90890890890891,174.54660224260024L109.10910910910911,175.6531380707205L109.30930930930931,176.68905496168762L109.50950950950953,177.6602367161924L109.70970970970973,178.57196687890703L109.90990990990991,179.42900075131482L110.11011011011011,180.23562752314834L110.31031031031031,180.995724042194L110.51051051051053,181.71280148423006L110.71071071071073,182.39004597463853L110.91091091091091,183.0303540412117L111.11111111111111,183.63636363636365L111.31131131131131,184.21048135042966L111.51151151151153,184.75490634129574L111.71171171171173,185.27165142549757L111.91191191191191,185.76256170917566L112.11211211211211,186.22933108145867L112.31231231231232,186.6735168460332L112.51251251251253,187.09655272727272L112.71271271271273,187.49976045406638L112.91291291291292,187.88436009636658L113.11311311311312,188.25147930561369L113.31331331331332,188.60216158989408L113.51351351351353,188.93737373737375L113.71371371371373,189.2580124867407L113.91391391391392,189.56491053069905L114.11411411411412,189.85884192765135L114.31431431431432,190.14052698731655L114.51451451451453,190.41063668792563L114.71471471471473,190.66979667562757L114.91491491491492,190.91859089066423L115.11511511511512,191.15756485959548L115.31531531531532,191.38722868826673L115.51551551551553,191.60805978620755L115.71571571571573,191.8205053496546L115.91591591591592,192.02498462733422L116.11611611611612,192.221890990457L116.31631631631632,192.4115938260242L116.51651651651653,192.5944402704733L116.71671671671673,192.77075679886823L116.91691691691692,192.94085068322667L117.11711711711712,193.10501133215814L117.31731731731732,193.263511522725L117.51751751751753,193.41660853432282L117.71771771771773,193.5645451933875L117.91791791791792,193.70755083685393L118.11811811811812,193.845842201509L118.31831831831832,193.97962424568175L118.51851851851853,194.10909090909092L118.71871871871873,194.23442581611246L118.91891891891892,194.35580292723148L119.11911911911912,194.473387142996L119.31931931931932,194.58733486438928L119.51951951951953,194.69779451317913L119.71971971971973,194.80490701547672L119.91991991991992,194.9088062514491L120.12012012012012,195.00961947386543L120.32032032032032,195.10746769792124L120.52052052052053,195.20246606457195L120.72072072072073,195.29472417941227L120.92092092092092,195.3843464289654L121.12112112112112,195.47143227608626L121.32132132132132,195.55607653604085L121.52152152152154,195.63836963469197L121.72172172172174,195.7183978501059L121.92192192192192,195.79624353878435L122.12212212212212,195.8719853476308L122.32232232232232,195.9456984126694L122.52252252252254,196.01745454545454L122.72272272272274,196.08732240803502L122.92292292292292,196.1553676772685L123.12312312312312,196.2216531992211L123.32332332332332,196.2862391343299L123.52352352352354,196.34918309395448L123.72372372372374,196.4105402688963L123.92392392392392,196.47036355042167L124.12412412412412,196.5287036442836L124.32432432432432,196.5856091782018L124.52452452452454,196.64112680322594L124.72472472472474,196.69530128937757L124.92492492492492,196.7481756159358L125.12512512512512,196.79979105670762L125.32532532532532,196.85018726059832L125.52552552552554,196.89940232777602L125.72572572572574,196.94747288170353L125.92592592592592,196.99443413729128L126.12612612612612,197.04031996540914L126.32632632632632,197.08516295397703L126.52652652652654,197.12899446584032L126.72672672672674,197.17184469362226L126.92692692692692,197.21374271173195L127.12712712712712,197.25471652569595L127.32732732732732,197.29479311896893L127.52752752752754,197.3339984973704L127.72772772772774,197.3723577312833L127.92792792792793,197.40989499574306L128.12812812812814,197.4466336085363L128.32832832832833,197.48259606642156L128.52852852852854,197.51780407957693L128.72872872872873,197.55227860437344L128.92892892892894,197.5860398745661L129.12912912912913,197.61910743098966L129.3293293293293,197.65150014984025L129.52952952952955,197.6832362696195L129.72972972972974,197.71433341681274L129.92992992992993,197.7448086303692L130.13013013013014,197.7746783850469L130.33033033033033,197.80395861368314L130.53053053053054,197.83266472844542L130.73073073073073,197.86081164111698L130.93093093093094,197.888413782466L131.13113113113113,197.91548512074561L131.3313313313313,197.94203917936937L131.53153153153156,197.96808905380334L131.73173173173174,197.99364742771485L131.93193193193193,198.01872658841438L132.13213213213214,198.0433384416265L132.33233233233233,198.06749452562218L132.53253253253254,198.09120602474448L132.73273273273273,198.11448378235684L132.93293293293294,198.13733831324208L133.13313313313313,198.1597798154785L133.33333333333331,198.1818181818182L133.53353353353356,198.20346301059155L133.73373373373374,198.22472361615965L133.93393393393393,198.2456090389366L134.13413413413414,198.26612805500156L134.33433433433433,198.28628918531933L134.53453453453454,198.3061007045884L134.73473473473473,198.32557064973247L134.93493493493494,198.3447068280526L135.13513513513513,198.36351682505529L135.33533533533532,198.38200801197056L135.53553553553556,198.4001875529747L135.73573573573574,198.41806241213064L135.93593593593593,198.43563936005802L136.13613613613614,198.45292498034573L136.33633633633633,198.46992567571763L136.53653653653654,198.48664767396235L136.73673673673673,198.50309703363774L136.93693693693695,198.51927964955925L137.13713713713713,198.5352012580818L137.33733733733732,198.55086744218414L137.53753753753756,198.56628363636364L137.73773773773775,198.58145513134994L137.93793793793793,198.59638707864494L138.13813813813815,198.61108449489626L138.33833833833833,198.62555226611153L138.53853853853855,198.6397951517196L138.73873873873873,198.65381778848516L138.93893893893895,198.66762469428326L139.13913913913913,198.68122027173837L139.33933933933932,198.69460881173487L139.53953953953956,198.70779449680268L139.73973973973975,198.7207814043845L139.93993993993993,198.73357350998825L140.14014014014015,198.74617469022976L140.34034034034033,198.75858872577035L140.54054054054055,198.77081930415264L140.74074074074073,198.78287002253944L140.94094094094095,198.79474439035897L141.14114114114113,198.80644583186006L141.34134134134132,198.81797768858138L141.54154154154156,198.82934322173688L141.74174174174175,198.8405456145221L141.94194194194193,198.85158797434303L142.14214214214215,198.8624733349712L142.34234234234233,198.8732046586279L142.54254254254255,198.88378483799937L142.74274274274273,198.89421669818645L142.94294294294295,198.90450299859071L143.14314314314313,198.91464643473947L143.34334334334332,198.9246496400516L143.54354354354356,198.9345151875473L143.74374374374375,198.94424559150247L143.94394394394394,198.9538433090511L144.14414414414415,198.9633107417364L144.34434434434434,198.97265023701337L144.54454454454455,198.98186408970403L144.74474474474474,198.99095454340713L144.94494494494495,198.99992379186432L145.14514514514514,199.00877398028348L145.34534534534532,199.01750720662173L145.54554554554556,199.0261255228288L145.74574574574575,199.03463093605254L145.94594594594594,199.0430254098074L146.14614614614615,199.0513108651081L146.34634634634634,199.05948918156838L146.54654654654655,199.0675621984675L146.74674674674674,199.07553171578408L146.94694694694695,199.08339949519979L147.14714714714714,199.09116726107274L147.34734734734732,199.09883670138265L147.54754754754757,199.1064094686477L147.74774774774775,199.1138871808149L147.94794794794794,199.12127142212438L148.14814814814815,199.12856374394835L148.34834834834834,199.13576566560633L148.54854854854855,199.14287867515628L148.74874874874874,199.14990423016346L148.94894894894895,199.15684375844714L149.14914914914914,199.1636986588061L149.34934934934932,199.17047030172367L149.54954954954957,199.1771600300526L149.74974974974975,199.18376915968096L149.94994994994994,199.19029898017934L150.15015015015015,199.1967507554298L150.35035035035034,199.20312572423762L150.55055055055055,199.20942510092596L150.75075075075074,199.21565007591406L150.95095095095095,199.22180181628L151.15115115115114,199.2278814663073L151.35135135135133,199.23389014801757L151.55155155155157,199.23982896168778L151.75175175175175,199.24569898635423L151.95195195195194,199.2515012803028L152.15215215215215,199.25723688154565L152.35235235235234,199.26290680828592L152.55255255255256,199.2685120593692L152.75275275275274,199.27405361472384L152.95295295295296,199.279532435789L153.15315315315314,199.28494946593193L153.35335335335333,199.29030563085382L153.55355355355357,199.29560183898553L153.75375375375376,199.30083898187266L153.95395395395397,199.3060179345508L154.15415415415416,199.31113955591118L154.35435435435437,199.31620468905655L154.55455455455456,199.32121416164847L154.75475475475477,199.32616878624518L154.95495495495496,199.3310693606313L155.15515515515517,199.3359166681389L155.35535535535533,199.34071147796055L155.55555555555557,199.34545454545454L155.75575575575576,199.3501466124424L155.95595595595597,199.3547884074988L156.15615615615616,199.3593806462347L156.35635635635637,199.36392403157294L156.55655655655656,199.36841925401717L156.75675675675677,199.3728669919146L156.95695695695696,199.37726791171153L157.15715715715717,199.3816226682032L157.35735735735733,199.38593190477732L157.55755755755757,199.39019625365185L157.75775775775776,199.39441633610662L157.95795795795797,199.39859276270994L158.15815815815816,199.40272613353923L158.35835835835837,199.40681703839675L158.55855855855856,199.4108660570199L158.75875875875877,199.41487375928665L158.95895895895896,199.41884070541605L159.15915915915917,199.42276744616407L159.35935935935933,199.42665452301483L159.55955955955957,199.43050246836702L159.75975975975976,199.43431180571656L159.95995995995997,199.4380830498344L160.16016016016016,199.44181670694056L160.36036036036037,199.44551327487395L160.56056056056056,199.44917324325834L160.76076076076077,199.4527970936646L160.96096096096096,199.45638529976904L161.16116116116117,199.45993832750807L161.36136136136133,199.46345663522973L161.56156156156158,199.46694067384132L161.76176176176176,199.47039088695402L161.96196196196198,199.4738077110239L162.16216216216216,199.47719157549025L162.36236236236238,199.48054290291023L162.56256256256256,199.4838621090909L162.76276276276278,199.48714960321837L162.96296296296296,199.49040578798366L163.16316316316318,199.4936310597061L163.36336336336333,199.49682580845402L163.56356356356358,199.49999041816267L163.76376376376376,199.5031252667494L163.96396396396398,199.50623072622676L164.16416416416416,199.5093071628127L164.36436436436438,199.5123549370385L164.56456456456456,199.51537440385468L164.76476476476478,199.51836591273394L164.96496496496496,199.52132980777262L165.16516516516518,199.52426642778954L165.36536536536534,199.5271761064228L165.56556556556558,199.53005917222455L165.76576576576576,199.5329159487538L165.96596596596598,199.53574675466723L166.16616616616616,199.53855190380787L166.36636636636638,199.54133170529232L166.56656656656656,199.54408646359576L166.76676676676678,199.54681647863544L166.96696696696696,199.54952204585214L167.16716716716718,199.55220345629039L167.36736736736734,199.55486099667638L167.56756756756758,199.55749494949495L167.76776776776777,199.56010559306446L167.96796796796798,199.56269320161036L168.16816816816817,199.56525804533723L168.36836836836838,199.56780039049931L168.56856856856857,199.57032049946963L168.76876876876878,199.5728186308076L168.96896896896897,199.57529503932548L169.16916916916918,199.57774997615329L169.36936936936934,199.58018368880235L169.56956956956958,199.58259642122795L169.76976976976977,199.58498841389033L169.96996996996998,199.58735990381444L170.17017017017017,199.58971112464897L170.37037037037038,199.59204230672373L170.57057057057057,199.59435367710606L170.77077077077078,199.5966454596561L170.97097097097097,199.59891787508107L171.17117117117118,199.60117114098847L171.37137137137134,199.60340547193798L171.57157157157158,199.60562107949266L171.77177177177177,199.60781817226908L171.97197197197198,199.6099969559863L172.17217217217217,199.61215763351416L172.37237237237238,199.6143004049204L172.57257257257257,199.61642546751705L172.77277277277278,199.61853301590574L172.97297297297297,199.62062324202242L173.17317317317318,199.62269633518096L173.37337337337334,199.624752482116L173.57357357357358,199.6267918670251L173.77377377377377,199.62881467160983L173.97397397397398,199.6308210751164L174.17417417417417,199.6328112543753L174.37437437437438,199.63478538384027L174.57457457457457,199.63674363562657L174.77477477477478,199.63868617954844L174.97497497497497,199.6406131831559L175.17517517517518,199.64252481177095L175.37537537537534,199.64442122852307L175.57557557557558,199.64630259438383L175.77577577577577,199.6481690682012L175.97597597597598,199.65002080673315L176.17617617617617,199.65185796468032L176.37637637637638,199.65368069471862L176.57657657657657,199.65548914753066L176.77677677677679,199.6572834718372L176.97697697697697,199.65906381442747L177.17717717717719,199.6608303201893L177.37737737737734,199.6625831321386L177.57757757757759,199.6643223914483L177.77777777777777,199.6660482374768L177.977977977978,199.66776080779584L178.17817817817817,199.6694602382179L178.3783783783784,199.67114666282325L178.57857857857857,199.67282021398617L178.7787787787788,199.67448102240124L178.97897897897897,199.67612921710855L179.1791791791792,199.67776492551897L179.37937937937934,199.67938827343866L179.5795795795796,199.68099938509337L179.77977977977977,199.68259838315205L179.97997997998,199.6841853887504L180.18018018018017,199.6857605215136L180.3803803803804,199.68732389957898L180.58058058058057,199.6888756396183L180.7807807807808,199.69041585685912L180.98098098098097,199.6919446651066L181.1811811811812,199.69346217676437L181.38138138138135,199.69496850285512L181.5815815815816,199.69646375304097L181.78178178178177,199.6979480356435L181.981981981982,199.69942145766322L182.18218218218217,199.700884124799L182.3823823823824,199.7023361414669L182.58258258258257,199.70377761081892L182.7827827827828,199.70520863476128L182.98298298298297,199.7066293139723L183.1831831831832,199.70803974792037L183.38338338338338,199.70944003488114L183.5835835835836,199.71083027195473L183.7837837837838,199.71221055508258L183.983983983984,199.7135809790639L184.18418418418418,199.7149416375721L184.3843843843844,199.7162926231707L184.5845845845846,199.71763402732907L184.7847847847848,199.71896594043795L184.98498498498498,199.72028845182462L185.1851851851852,199.721601649768L185.38538538538538,199.72290562151323L185.5855855855856,199.72420045328633L185.7857857857858,199.7254862303082L185.985985985986,199.72676303680896L186.18618618618618,199.7280309560415L186.3863863863864,199.72929007029515L186.5865865865866,199.730540460909L186.7867867867868,199.73178220828513L186.986986986987,199.73301539190138L187.1871871871872,199.7342400903242L187.38738738738738,199.73545638122107L187.5875875875876,199.73666434137292L187.7877877877878,199.7378640466861L187.987987987988,199.73905557220448L188.18818818818818,199.74023899212102L188.3883883883884,199.74141437978943L188.5885885885886,199.7425818077355L188.7887887887888,199.7437413476683L188.98898898898898,199.74489307049114L189.1891891891892,199.74603704631252L189.38938938938938,199.74717334445668L189.5895895895896,199.74830203347415L189.7897897897898,199.74942318115214L189.98998998999,199.7505368545246L190.19019019019018,199.75164311988237L190.3903903903904,199.75274204278298L190.5905905905906,199.75383368806035L190.7907907907908,199.7549181198344L190.990990990991,199.75599540152035L191.1911911911912,199.7570655958382L191.39139139139138,199.75812876482166L191.5915915915916,199.7591849698273L191.7917917917918,199.76023427154314L191.991991991992,199.76127672999775L192.19219219219218,199.76231240456858L192.3923923923924,199.76334135399034L192.5925925925926,199.76436363636364L192.7927927927928,199.76537930916288L192.99299299299298,199.76638842924456L193.1931931931932,199.76739105285498L193.39339339339338,199.76838723563841L193.5935935935936,199.7693770326445L193.7937937937938,199.7703604983361L193.993993993994,199.7713376865966L194.19419419419418,199.77230865073744L194.3943943943944,199.77327344350527L194.5945945945946,199.77423211708927L194.7947947947948,199.77518472312795L194.994994994995,199.77613131271633L195.1951951951952,199.77707193641277L195.39539539539538,199.77800664424558L195.5955955955956,199.77893548571984L195.7957957957958,199.77985850982384L195.995995995996,199.78077576503551L196.19619619619618,199.781687299329L196.3963963963964,199.7825931601807L196.5965965965966,199.78349339457557L196.7967967967968,199.78438804901313L196.99699699699698,199.78527716951356L197.1971971971972,199.78616080162362L197.39739739739738,199.78703899042242L197.5975975975976,199.78791178052717L197.7977977977978,199.78877921609887L197.997997997998,199.78964134084794L198.19819819819818,199.79049819803964L198.3983983983984,199.7913498304996L198.5985985985986,199.79219628061907L198.7987987987988,199.79303759036023L198.998998998999,199.79387380126144L199.1991991991992,199.7947049544423L199.39939939939939,199.79553109060873L199.5995995995996,199.79635225005796L199.7997997997998,199.79716847268347L200,199.7979797979798" stroke="#f58518" stroke-width="2"/></g></g><path class="foreground" aria-hidden="true" d="" display="none"/></g></g><g class="mark-group role-legend" role="graphics-symbol" aria-roledescription="legend" aria-label="Symbol legend for stroke color with 2 values: ð‘“, divergent, ð‘“Â², convergent"><g transform="translate(218,0)"><path class="background" aria-hidden="true" d="M0,0h83v24h-83Z" pointer-events="none"/><g><g class="mark-group role-legend-entry"><g transform="translate(0,0)"><path class="background" aria-hidden="true" d="M0,0h0v0h0Z" pointer-events="none"/><g><g class="mark-group role-scope" role="graphics-object" aria-roledescription="group mark container"><g transform="translate(0,0)"><path class="background" aria-hidden="true" d="M0,0h83v11h-83Z" pointer-events="none" opacity="1"/><g><g class="mark-symbol role-legend-symbol" pointer-events="none"><path transform="translate(6,6)" d="M-5,0L5,0" stroke="#4c78a8" stroke-width="1.5" opacity="1"/></g><g class="mark-text role-legend-label" pointer-events="none"><text text-anchor="start" transform="translate(16,9)" font-family="sans-serif" font-size="10px" fill="#000" opacity="1">ð‘“, divergent</text></g></g><path class="foreground" aria-hidden="true" d="" pointer-events="none" display="none"/></g><g transform="translate(0,13)"><path class="background" aria-hidden="true" d="M0,0h83v11h-83Z" pointer-events="none" opacity="1"/><g><g class="mark-symbol role-legend-symbol" pointer-events="none"><path transform="translate(6,6)" d="M-5,0L5,0" stroke="#f58518" stroke-width="1.5" opacity="1"/></g><g class="mark-text role-legend-label" pointer-events="none"><text text-anchor="start" transform="translate(16,9)" font-family="sans-serif" font-size="10px" fill="#000" opacity="1">ð‘“Â², convergent</text></g></g><path class="foreground" aria-hidden="true" d="" pointer-events="none" display="none"/></g></g></g><path class="foreground" aria-hidden="true" d="" pointer-events="none" display="none"/></g></g></g><path class="foreground" aria-hidden="true" d="" pointer-events="none" display="none"/></g></g></g><path class="foreground" aria-hidden="true" d="" display="none"/></g></g></g><defs><clipPath id="clip1"><rect x="0" y="0" width="200" height="200"/></clipPath><clipPath id="clip2"><rect x="0" y="0" width="200" height="200"/></clipPath></defs></svg>
