<?xml version="1.0" encoding="utf-8"?>
<!DOCTYPE svg PUBLIC "-//W3C//DTD SVG 1.1//EN" "http://www.w3.org/Graphics/SVG/1.1/DTD/svg11.dtd">
<svg xmlns="http://www.w3.org/2000/svg" xmlns:xlink="http://www.w3.org/1999/xlink" version="1.1" class="marks" width="344" height="242" viewBox="0 0 344 242"><rect width="344" height="242" fill="white"/><g fill="none" stroke-miterlimit="10" transform="translate(38,5)"><g class="mark-group role-frame root" role="graphics-object" aria-roledescription="group mark container"><g transform="translate(0,0)"><path class="background" aria-hidden="true" d="M0.5,0.5h200v200h-200Z" stroke="#ddd"/><g><g class="mark-group role-axis" aria-hidden="true"><g transform="translate(0.5,200.5)"><path class="background" aria-hidden="true" d="M0,0h0v0h0Z" pointer-events="none"/><g><g class="mark-rule role-axis-grid" pointer-events="none"><line transform="translate(0,-200)" x2="0" y2="200" stroke="#ddd" stroke-width="1" opacity="1"/><line transform="translate(33,-200)" x2="0" y2="200" stroke="#ddd" stroke-width="1" opacity="1"/><line transform="translate(67,-200)" x2="0" y2="200" stroke="#ddd" stroke-width="1" opacity="1"/><line transform="translate(100,-200)" x2="0" y2="200" stroke="#ddd" stroke-width="1" opacity="1"/><line transform="translate(133,-200)" x2="0" y2="200" stroke="#ddd" stroke-width="1" opacity="1"/><line transform="translate(167,-200)" x2="0" y2="200" stroke="#ddd" stroke-width="1" opacity="1"/><line transform="translate(200,-200)" x2="0" y2="200" stroke="#ddd" stroke-width="1" opacity="1"/></g></g><path class="foreground" aria-hidden="true" d="" pointer-events="none" display="none"/></g></g><g class="mark-group role-axis" aria-hidden="true"><g transform="translate(0.5,0.5)"><path class="background" aria-hidden="true" d="M0,0h0v0h0Z" pointer-events="none"/><g><g class="mark-rule role-axis-grid" pointer-events="none"><line transform="translate(0,200)" x2="200" y2="0" stroke="#ddd" stroke-width="1" opacity="1"/><line transform="translate(0,164)" x2="200" y2="0" stroke="#ddd" stroke-width="1" opacity="1"/><line transform="translate(0,127)" x2="200" y2="0" stroke="#ddd" stroke-width="1" opacity="1"/><line transform="translate(0,91)" x2="200" y2="0" stroke="#ddd" stroke-width="1" opacity="1"/><line transform="translate(0,55)" x2="200" y2="0" stroke="#ddd" stroke-width="1" opacity="1"/><line transform="translate(0,18)" x2="200" y2="0" stroke="#ddd" stroke-width="1" opacity="1"/></g></g><path class="foreground" aria-hidden="true" d="" pointer-events="none" display="none"/></g></g><g class="mark-group role-axis" role="graphics-symbol" aria-roledescription="axis" aria-label="X-axis titled 'x' for a linear scale with values from 0 to 30"><g transform="translate(0.5,200.5)"><path class="background" aria-hidden="true" d="M0,0h0v0h0Z" pointer-events="none"/><g><g class="mark-rule role-axis-tick" pointer-events="none"><line transform="translate(0,0)" x2="0" y2="5" stroke="#888" stroke-width="1" opacity="1"/><line transform="translate(33,0)" x2="0" y2="5" stroke="#888" stroke-width="1" opacity="1"/><line transform="translate(67,0)" x2="0" y2="5" stroke="#888" stroke-width="1" opacity="1"/><line transform="translate(100,0)" x2="0" y2="5" stroke="#888" stroke-width="1" opacity="1"/><line transform="translate(133,0)" x2="0" y2="5" stroke="#888" stroke-width="1" opacity="1"/><line transform="translate(167,0)" x2="0" y2="5" stroke="#888" stroke-width="1" opacity="1"/><line transform="translate(200,0)" x2="0" y2="5" stroke="#888" stroke-width="1" opacity="1"/></g><g class="mark-text role-axis-label" pointer-events="none"><text text-anchor="start" transform="translate(0,15)" font-family="sans-serif" font-size="10px" fill="#000" opacity="1">0</text><text text-anchor="middle" transform="translate(33.33333333333333,15)" font-family="sans-serif" font-size="10px" fill="#000" opacity="1">5</text><text text-anchor="middle" transform="translate(66.66666666666666,15)" font-family="sans-serif" font-size="10px" fill="#000" opacity="1">10</text><text text-anchor="middle" transform="translate(100,15)" font-family="sans-serif" font-size="10px" fill="#000" opacity="1">15</text><text text-anchor="middle" transform="translate(133.33333333333331,15)" font-family="sans-serif" font-size="10px" fill="#000" opacity="1">20</text><text text-anchor="middle" transform="translate(166.66666666666669,15)" font-family="sans-serif" font-size="10px" fill="#000" opacity="1">25</text><text text-anchor="end" transform="translate(200,15)" font-family="sans-serif" font-size="10px" fill="#000" opacity="1">30</text></g><g class="mark-rule role-axis-domain" pointer-events="none"><line transform="translate(0,0)" x2="200" y2="0" stroke="#888" stroke-width="1" opacity="1"/></g><g class="mark-text role-axis-title" pointer-events="none"><text text-anchor="middle" transform="translate(100,30)" font-family="sans-serif" font-size="11px" font-weight="bold" fill="#000" opacity="1">x</text></g></g><path class="foreground" aria-hidden="true" d="" pointer-events="none" display="none"/></g></g><g class="mark-group role-axis" role="graphics-symbol" aria-roledescription="axis" aria-label="Y-axis titled 'y' for a linear scale with values from 0.0 to 1.1"><g transform="translate(0.5,0.5)"><path class="background" aria-hidden="true" d="M0,0h0v0h0Z" pointer-events="none"/><g><g class="mark-rule role-axis-tick" pointer-events="none"><line transform="translate(0,200)" x2="-5" y2="0" stroke="#888" stroke-width="1" opacity="1"/><line transform="translate(0,164)" x2="-5" y2="0" stroke="#888" stroke-width="1" opacity="1"/><line transform="translate(0,127)" x2="-5" y2="0" stroke="#888" stroke-width="1" opacity="1"/><line transform="translate(0,91)" x2="-5" y2="0" stroke="#888" stroke-width="1" opacity="1"/><line transform="translate(0,55)" x2="-5" y2="0" stroke="#888" stroke-width="1" opacity="1"/><line transform="translate(0,18)" x2="-5" y2="0" stroke="#888" stroke-width="1" opacity="1"/></g><g class="mark-text role-axis-label" pointer-events="none"><text text-anchor="end" transform="translate(-7,203)" font-family="sans-serif" font-size="10px" fill="#000" opacity="1">0.0</text><text text-anchor="end" transform="translate(-7,166.63636363636363)" font-family="sans-serif" font-size="10px" fill="#000" opacity="1">0.2</text><text text-anchor="end" transform="translate(-7,130.27272727272725)" font-family="sans-serif" font-size="10px" fill="#000" opacity="1">0.4</text><text text-anchor="end" transform="translate(-7,93.90909090909092)" font-family="sans-serif" font-size="10px" fill="#000" opacity="1">0.6</text><text text-anchor="end" transform="translate(-7,57.54545454545454)" font-family="sans-serif" font-size="10px" fill="#000" opacity="1">0.8</text><text text-anchor="end" transform="translate(-7,21.181818181818187)" font-family="sans-serif" font-size="10px" fill="#000" opacity="1">1.0</text></g><g class="mark-rule role-axis-domain" pointer-events="none"><line transform="translate(0,200)" x2="0" y2="-200" stroke="#888" stroke-width="1" opacity="1"/></g><g class="mark-text role-axis-title" pointer-events="none"><text text-anchor="middle" transform="translate(-30,98)" font-family="sans-serif" font-size="11px" font-weight="bold" fill="#000" opacity="1">y</text></g></g><path class="foreground" aria-hidden="true" d="" pointer-events="none" display="none"/></g></g><g class="mark-group role-scope pathgroup" role="graphics-object" aria-roledescription="group mark container"><g transform="translate(0,0)"><path class="background" aria-hidden="true" d="M0,0h200v200h-200Z"/><g><g class="mark-line role-mark marks" clip-path="url(#clip1)" role="graphics-object" aria-roledescription="line mark container"><path aria-label="x: 0; y: 1; name: ğ‘“, divergent" role="graphics-symbol" aria-roledescription="line mark" d="M0,18.181818181818187L0.8032128514056224,37.73216031280546L1.6064257028112447,53.486319505736965L2.4096385542168677,66.45213193885762L3.2128514056224895,77.30968218773097L4.0160642570281135,86.53451811346548L4.819277108433735,94.46916719643994L5.622489959839358,101.36660724896021L6.425702811244979,107.41773563859454L7.228915662650602,112.76931161324227L8.032128514056227,117.53601589667164L8.835341365461847,121.80876118699953L9.63855421686747,125.66054635020154L10.441767068273093,129.15066154502773L11.244979919678716,132.3277619241745L12.048192771084338,135.2321498244245L12.851405622489958,137.89749345304904L13.654618473895583,140.3521379805965L14.457831325301203,142.6201175250605L15.261044176706829,144.72194472194474L16.064257028112454,146.67523289431418L16.867469879518072,148.49519081600994L17.670682730923694,150.1950195019502L18.473895582329316,151.78623293639268L19.27710843373494,153.27891922319168L20.080321285140563,154.6819546819547L20.883534136546185,156.0031804929764L21.686746987951807,157.249549317538L22.489959839357432,158.427247683446L23.29317269076305,159.54179868388985L24.096385542168676,160.59814858770474L24.899598393574294,161.60074022669443L25.702811244979916,162.55357545680127L26.506024096385545,163.4602685450143L27.309236947791167,164.32409198366648L28.11244979919679,165.14801595633003L28.915662650602407,165.93474245844448L29.718875502008036,166.68673489865543L30.522088353413658,167.40624386412725L31.32530120481928,168.09532961752836L32.12851405622491,168.75588179936005L32.93172690763052,169.38963673243592L33.734939759036145,169.99819266220857L34.53815261044176,170.58302321460218L35.34136546184739,171.14548930992527L36.144578313253014,171.68684973563023L36.94779116465863,172.208270550812L37.75100401606426,172.71083347032715L38.55421686746988,173.19554335540127L39.357429718875494,173.66333491987942L40.16064257028113,174.1150787462966L40.963855421686745,174.5515866932393L41.76706827309237,174.97361676466156L42.570281124497996,175.38187750259527L43.373493975903614,175.77703195680724L44.17670682730924,176.1597012781847L44.979919678714865,176.53046797681324L45.78313253012048,176.88987888069053L46.5863453815261,177.2384478266831L47.38955823293172,177.5766581115764L48.19277108433735,177.90496472780515L48.99598393574297,178.2237964056146L49.79919678714859,178.5335574809259L50.602409638554214,178.8346296060181L51.40562248995983,179.12737331824468L52.20883534136546,179.41212948034232L53.01204819277109,179.6892206044292L53.8152610441767,179.95895207050586L54.61847389558233,180.2216132491362L55.42168674698795,180.47747853698695L56.22489959839358,180.72680831301523L57.028112449799195,180.96984982230884L57.831325301204814,181.20683799388658L58.63453815261044,181.4379961981438L59.43775100401607,181.66353694907767L60.24096385542169,181.88366255593147L61.044176706827315,182.09856572845896L61.84738955823293,182.3084301396142L62.65060240963856,182.5134309491204L63.45381526104418,182.7137352910549L64.25702811244982,182.9095027283023L65.06024096385542,183.10088567647358L65.86345381526104,183.2880297996577L66.66666666666666,183.4710743801653L67.46987951807229,183.65015266423717L68.27309236947791,183.8253921855208L69.07630522088353,183.99691506796492L69.87951807228916,184.16483830964418L70.68273092369478,184.32927404890023L71.4859437751004,184.49032981407083L72.28915662650603,184.6481087579765L73.09236947791165,184.8027098782386L73.89558232931726,184.95422822441765L74.6987951807229,185.10275509288343L75.50200803212851,185.24837821025503L76.30522088353415,185.39118190618674L77.10843373493977,185.53124727621372L77.91164658634538,185.668652335319L78.71485943775099,185.80347216283246L79.51807228915662,185.9357790392273L80.32128514056225,186.06564257533788L81.12449799196787,186.1931298344839L81.92771084337349,186.31830544795187L82.73092369477911,186.4412317242506L83.53413654618474,186.56196875252974L84.33734939759036,186.68057450052154L85.14056224899599,186.79710490734115L85.94377510040161,186.91161397145785L86.74698795180723,187.02415383412804L87.55020080321285,187.13477485856004L88.35341365461848,187.24352570506417L89.1566265060241,187.35045340242323L89.95983935742973,187.45560341570317L90.76305220883535,187.55901971070975L91.56626506024097,187.66074481528284L92.3694779116466,187.76081987760818L93.1726907630522,187.85928472171435L93.97590361445782,187.95617790031199L94.77911646586344,188.05153674512346L95.58232931726907,188.1453974148397L96.3855421686747,188.2377949408347L97.18875502008032,188.32876327075863L97.99196787148594,188.4183353101235L98.79518072289156,188.5065429619885L99.59839357429718,188.59341716484573L100.40160642570282,188.67898792880038L101.20481927710843,188.7632843701347L102.00803212851406,188.84633474433917L102.81124497991966,188.9281664776896L103.6144578313253,189.00880619744422L104.41767068273091,189.08827976073096L105.22088353413655,189.1666122821902L106.02409638554218,189.24382816043544L106.82730923694778,189.3199511033906L107.6305220883534,189.3950041525586L108.43373493975903,189.4690097062742L109.23694779116467,189.54198954198955L110.04016064257027,189.61396483764L110.8433734939759,189.68495619213323L111.64658634538152,189.75498364500402L112.44979919678715,189.82406669527373L113.25301204819279,189.89222431955187L114.05622489959839,189.9594749894151L114.85943775100402,190.0258366880971L115.66265060240963,190.09132692652062L116.46586345381526,190.1559627587025L117.26907630522088,190.21976079655926L118.07228915662651,190.28273722414096L118.87550200803214,190.34490781131856L119.67871485943775,190.4062879269491L120.48192771084338,190.46689255154195L121.285140562249,190.52673628944817L122.08835341365463,190.58583338059321L122.89156626506023,190.64419771177364L123.69477911646587,190.70184282753598L124.4979919678715,190.75878194065578L125.30120481927712,190.81502794223425L126.10441767068275,190.87059341142827L126.90763052208835,190.92549062482917L127.71084337349399,190.97973156550563L128.51405622489963,191.03332793172365L129.3172690763052,191.08629114535788L130.12048192771084,191.1386323600064L130.92369477911646,191.19036246882132L131.72690763052208,191.24149211206668L132.5301204819277,191.29203168441484L133.33333333333331,191.34199134199136L134.13654618473896,191.39138100917907L134.93975903614458,191.4402103851905L135.7429718875502,191.4884889504179L136.54618473895582,191.5362259725692L137.34939759036143,191.5834305125995L138.15261044176705,191.63011143044423L138.9558232931727,191.6762773905631L139.75903614457832,191.72193686730165L140.56224899598394,191.76709815007686L141.36546184738955,191.81176934839442L142.16867469879517,191.85595839670313L142.9718875502008,191.89967305909335L143.77510040160644,191.9429209338446L144.57831325301206,191.98570945782842L145.38152610441767,192.02804591077174L146.1847389558233,192.06993741938564L146.9879518072289,192.11139096136483L147.79116465863453,192.15241336926204L148.59437751004018,192.19301133424258L149.3975903614458,192.23319140972254L150.2008032128514,192.2729600148955L151.00401606425703,192.31232343815125L151.80722891566265,192.35128784039074L152.6104417670683,192.3898592582405L153.41365461847388,192.42804360717054L154.21686746987953,192.46584668451868L155.02008032128515,192.5032741724247L155.82329317269077,192.54033164067766L156.62650602409641,192.57702454947903L157.42971887550198,192.61335825212478L158.23293172690762,192.64933799760882L159.03614457831324,192.6849689331512L159.83935742971886,192.72025610665264L160.6425702811245,192.7552044690787L161.4457831325301,192.7898188767754L162.24899598393574,192.82410409371892L163.05220883534136,192.85806479370135L163.85542168674698,192.8917055624545L164.65863453815263,192.92503089971444L165.46184738955822,192.95804522122768L166.26506024096386,192.99075286070178L167.06827309236948,193.02315807170177L167.8714859437751,193.05526502949422L168.67469879518072,193.08707783284055L169.47791164658634,193.1186005057414L170.28112449799198,193.1498369991334L171.08433734939757,193.18079119253994L171.88755020080322,193.21146689567743L172.69076305220884,193.2418678500183L173.49397590361446,193.2719977303125L174.29718875502007,193.30186014606787L175.1004016064257,193.331458642992L175.90361445783134,193.36079670439548L176.70682730923696,193.38987775255842L177.51004016064257,193.41870515006144L178.3132530120482,193.44728220108158L179.1164658634538,193.47561215265497L179.91967871485946,193.50369819590654L180.72289156626508,193.53154346724858L181.5261044176707,193.55915104954798L182.3293172690763,193.5865239732643L183.13253012048193,193.61366521755858L183.93574297188755,193.64057771137416L184.7389558232932,193.66726433449054L185.54216867469881,193.6937279185503L186.3453815261044,193.71997124806114L187.14859437751002,193.74599706137212L187.95180722891564,193.77180805162646L188.7550200803213,193.79740686769048L189.55823293172688,193.82279611505973L190.36144578313252,193.84797835674314L191.16465863453814,193.87295611412543L191.96787148594376,193.8977318678087L192.7710843373494,193.9223080584337L193.574297188755,193.9466870874813L194.37751004016064,193.97087131805472L195.18072289156626,193.99486307564302L195.98393574297188,194.0186646488668L196.78714859437753,194.04227829020564L197.59036144578312,194.06570621670897L198.39357429718876,194.08895061068975L199.19678714859435,194.11201362040222L200,194.1348973607038" stroke="#4c78a8" stroke-width="2"/></g></g><path class="foreground" aria-hidden="true" d="" display="none"/></g><g transform="translate(0,0)"><path class="background" aria-hidden="true" d="M0,0h200v200h-200Z"/><g><g class="mark-line role-mark marks" clip-path="url(#clip2)" role="graphics-object" aria-roledescription="line mark container"><path aria-label="x: 0; y: 1; name: ğ‘“Â², convergent" role="graphics-symbol" aria-roledescription="line mark" d="M0,18.181818181818187L0.8032128514056224,55.18031511788013L1.6064257028112447,81.93557785413756L2.4096385542168677,101.9073181497804L3.2128514056224895,117.20897253318432L4.0160642570281135,129.19071431141077L4.819277108433735,138.74783830282877L5.622489959839358,146.49299608930522L6.425702811244979,152.85688379143158L7.228915662650602,158.14943851964802L8.032128514056227,162.59830229193304L8.835341365461847,166.3737159508858L9.63855421686747,169.60505097077206L10.441767068273093,172.39204182271033L11.244979919678716,174.81257506594835L12.048192771084338,176.92819070998814L12.851405622489958,178.78803274322252L13.654618473895583,180.4317290608281L14.457831325301203,181.89151997939172L15.261044176706829,183.19385132571946L16.064257028112454,184.36058067218403L16.867469879518072,185.40990047006426L17.670682730923694,186.35705154673883L18.473895582329316,187.21487966044918L19.27710843373494,187.99427336075823L20.080321285140563,188.70451122703375L20.883534136546185,189.35353930296515L21.686746987951807,189.9481943154551L22.489959839357432,190.4943844565455L23.29317269076305,190.99723670445806L24.096385542168676,191.46121757905874L24.899598393574294,191.89023266874207L25.702811244979916,192.28770908911787L26.506024096385545,192.65666413858642L27.309236947791167,192.9997627296556L28.11244979919679,193.31936564520876L28.915662650602407,193.61757025745123L29.718875502008036,193.89624502558144L30.522088353413658,194.1570588352539L31.32530120481928,194.4015060428221L32.12851405622491,194.63092792825444L32.93172690763052,194.8465311334527L33.734939759036145,195.04940356056323L34.53815261044176,195.2405281224405L35.34136546184739,195.42079467059997L36.144578313253014,195.5910103715897L36.94779116465863,195.75190875822724L37.75100401606426,195.90415764563681L38.55421686746988,196.04836607193306L39.357429718875494,196.18509039851656L40.16064257028113,196.31483968429265L40.963855421686745,196.43808043092557L41.76706827309237,196.55524078186883L42.570281124497996,196.66671424586525L43.373493975903614,196.77286300548153L44.17670682730924,196.87402086270035L44.979919678714865,196.97049586636936L45.78313253012048,197.06257266017965L46.5863453815261,197.15051458463756L47.38955823293172,197.23456556205176L48.19277108433735,197.31495178976255L48.99598393574297,197.39188326358732L49.79919678714859,197.46555515066407L50.602409638554214,197.53614902847053L51.40562248995983,197.60383400472242L52.20883534136546,197.66876773106193L53.01204819277109,197.7310973218945L53.8152610441767,197.79096018838246L54.61847389558233,197.8484847964329L55.42168674698795,197.90379135649408L56.22489959839358,197.95699245208206L57.028112449799195,198.00819361317988L57.831325301204814,198.05749383996584L58.63453815261044,198.10498608172932L59.43775100401607,198.1507576753019L60.24096385542169,198.1948907468695L61.044176706827315,198.23746258061934L61.84738955823293,198.27854595731299L62.65060240963856,198.3182094655585L63.45381526104418,198.35651778826752L64.25702811244982,198.39353196653352L65.06024096385542,198.42930964294212L65.86345381526104,198.4639052861258L66.66666666666666,198.49737039819684L67.46987951807229,198.52975370653488L68.27309236947791,198.56110134126283L69.07630522088353,198.5914569996194L69.87951807228916,198.6208620983216L70.68273092369478,198.6493559149104L71.4859437751004,198.67697571898034L72.28915662650603,198.70375689411196L73.09236947791165,198.72973305125257L73.89558232931726,198.75493613422398L74.6987951807229,198.77939651797564L75.50200803212851,198.80314310014776L76.30522088353415,198.82620338646032L77.10843373493977,198.8486035703986L77.91164658634538,198.87036860762723L78.71485943775099,198.8915222855269L79.51807228915662,198.9120872882161L80.32128514056225,198.9320852573897L81.12449799196787,198.9515368492792L81.92771084337349,198.97046178801452L82.73092369477911,198.98887891564493L83.53413654618474,199.00680623905606L84.33734939759036,199.02426097400115L85.14056224899599,199.04125958644732L85.94377510040161,199.05781783142325L86.74698795180723,199.07395078953795L87.55020080321285,199.08967290133032L88.35341365461848,199.10499799959453L89.1566265060241,199.11993933981654L89.95983935742973,199.13450962884735L90.76305220883535,199.1487210519282L91.56626506024097,199.16258529817537L92.3694779116466,199.1761135846241L93.1726907630522,199.1893166789238L93.97590361445782,199.20220492077087L94.77911646586344,199.21478824215774L95.58232931726907,199.2270761865135L96.3855421686747,199.2390779268038L97.18875502008032,199.25080228265503L97.99196787148594,199.26225773656196L98.79518072289156,199.2734524492346L99.59839357429718,199.2843942741362L100.40160642570282,199.29509077126065L101.20481927710843,199.30554922019448L102.00803212851406,199.31577663250565L102.81124497991966,199.32577976349833L103.6144578313253,199.33556512337063L104.41767068273091,199.34513898780958L105.22088353413655,199.35450740805584L106.02409638554218,199.36367622046765L106.82730923694778,199.37265105561318L107.6305220883534,199.3814373469166L108.43373493975903,199.39004033888398L109.23694779116467,199.3984650949308L110.04016064257027,199.4067165048342L110.8433734939759,199.41479929182984L111.64658634538152,199.42271801937227L112.44979919678715,199.4304770975777L113.25301204819279,199.43808078936559L114.05622489959839,199.445533216315L114.85943775100402,199.4528383642512L115.66265060240963,199.46000008857598L116.46586345381526,199.46702211935573L117.26907630522088,199.47390806617915L118.07228915662651,199.48066142279697L118.87550200803214,199.48728557155434L119.67871485943775,199.49378378762668L120.48192771084338,199.50015924306885L121.285140562249,199.50641501068688L122.08835341365463,199.51255406774126L122.89156626506023,199.51857929948991L123.69477911646587,199.52449350257885L124.4979919678715,199.53029938828809L125.30120481927712,199.53599958563933L126.10441767068275,199.541596644373L126.90763052208835,199.54709303779964L127.71084337349399,199.55249116553316L128.51405622489963,199.55779335610998L129.3172690763052,199.5630018695007L130.12048192771084,199.5681188995188L130.92369477911646,199.57314657613085L131.72690763052208,199.57808696767356L132.5301204819277,199.5829420829812L133.33333333333331,199.58771387342816L134.13654618473896,199.5924042348898L134.93975903614458,199.5970150096261L135.7429718875502,199.60154798809063L136.54618473895582,199.60600491066924L137.34939759036143,199.61038746935066L138.15261044176705,199.6146973093327L138.9558232931727,199.61893603056632L139.75903614457832,199.62310518924082L140.56224899598394,199.62720629921242L141.36546184738955,199.6312408333786L142.16867469879517,199.63521022500072L142.9718875502008,199.6391158689773L143.77510040160644,199.64295912306946L144.57831325301206,199.64674130908114L145.38152610441767,199.6504637139958L146.1847389558233,199.65412759107147L146.9879518072289,199.65773416089561L147.79116465863453,199.66128461240186L148.59437751004018,199.66478010385003L149.3975903614458,199.66822176377096L150.2008032128514,199.67161069187728L151.00401606425703,199.67494795994222L151.80722891566265,199.67823461264695L152.6104417670683,199.68147166839836L153.41365461847388,199.684660120118L154.21686746987953,199.6878009360035L155.02008032128515,199.69089506026393L155.82329317269077,199.6939434138291L156.62650602409641,199.6969468950353L157.42971887550198,199.69990638028702L158.23293172690762,199.70282272469632L159.03614457831324,199.7056967627007L159.83935742971886,199.70852930866L160.6425702811245,199.71132115743328L161.4457831325301,199.71407308493662L162.24899598393574,199.7167858486822L163.05220883534136,199.71946018829968L163.85542168674698,199.7220968260404L164.65863453815263,199.72469646726503L165.46184738955822,199.72725980091548L166.26506024096386,199.72978749997134L167.06827309236948,199.73228022189147L167.8714859437751,199.7347386090419L168.67469879518072,199.7371632891094L169.47791164658634,199.7395548755023L170.28112449799198,199.74191396773858L171.08433734939757,199.74424115182143L171.88755020080322,199.74653700060335L172.69076305220884,199.7488020741386L173.49397590361446,199.75103692002494L174.29718875502007,199.7532420737344L175.1004016064257,199.7554180589343L175.90361445783134,199.757565387798L176.70682730923696,199.75968456130633L177.51004016064257,199.76177606953996L178.3132530120482,199.76384039196256L179.1164658634538,199.76587799769578L179.91967871485946,199.76788934578573L180.72289156626508,199.76987488546146L181.5261044176707,199.77183505638604L182.3293172690763,199.77377028889967L183.13253012048193,199.77568100425617L183.93574297188755,199.7775676148521L184.7389558232932,199.7794305244493L185.54216867469881,199.781270128391L186.3453815261044,199.7830868138115L187.14859437751002,199.78488095984L187.95180722891564,199.78665293779818L188.7550200803213,199.78840311139265L189.55823293172688,199.79013183690134L190.36144578313252,199.79183946335496L191.16465863453814,199.79352633271313L191.96787148594376,199.79519278003565L192.7710843373494,199.7968391336488L193.574297188755,199.79846571530723L194.37751004016064,199.800072840351L195.18072289156626,199.80166081785848L195.98393574297188,199.80322995079507L196.78714859437753,199.80478053615755L197.59036144578312,199.80631286511476L198.39357429718876,199.80782722314424L199.19678714859435,199.8093238901652L200,199.81080314066787" stroke="#f58518" stroke-width="2"/></g></g><path class="foreground" aria-hidden="true" d="" display="none"/></g></g><g class="mark-group role-legend" role="graphics-symbol" aria-roledescription="legend" aria-label="Symbol legend for stroke color with 2 values: ğ‘“, divergent, ğ‘“Â², convergent"><g transform="translate(218,0)"><path class="background" aria-hidden="true" d="M0,0h83v24h-83Z" pointer-events="none"/><g><g class="mark-group role-legend-entry"><g transform="translate(0,0)"><path class="background" aria-hidden="true" d="M0,0h0v0h0Z" pointer-events="none"/><g><g class="mark-group role-scope" role="graphics-object" aria-roledescription="group mark container"><g transform="translate(0,0)"><path class="background" aria-hidden="true" d="M0,0h83v11h-83Z" pointer-events="none" opacity="1"/><g><g class="mark-symbol role-legend-symbol" pointer-events="none"><path transform="translate(6,6)" d="M-5,0L5,0" stroke="#4c78a8" stroke-width="1.5" opacity="1"/></g><g class="mark-text role-legend-label" pointer-events="none"><text text-anchor="start" transform="translate(16,9)" font-family="sans-serif" font-size="10px" fill="#000" opacity="1">ğ‘“, divergent</text></g></g><path class="foreground" aria-hidden="true" d="" pointer-events="none" display="none"/></g><g transform="translate(0,13)"><path class="background" aria-hidden="true" d="M0,0h83v11h-83Z" pointer-events="none" opacity="1"/><g><g class="mark-symbol role-legend-symbol" pointer-events="none"><path transform="translate(6,6)" d="M-5,0L5,0" stroke="#f58518" stroke-width="1.5" opacity="1"/></g><g class="mark-text role-legend-label" pointer-events="none"><text text-anchor="start" transform="translate(16,9)" font-family="sans-serif" font-size="10px" fill="#000" opacity="1">ğ‘“Â², convergent</text></g></g><path class="foreground" aria-hidden="true" d="" pointer-events="none" display="none"/></g></g></g><path class="foreground" aria-hidden="true" d="" pointer-events="none" display="none"/></g></g></g><path class="foreground" aria-hidden="true" d="" pointer-events="none" display="none"/></g></g></g><path class="foreground" aria-hidden="true" d="" display="none"/></g></g></g><defs><clipPath id="clip1"><rect x="0" y="0" width="200" height="200"/></clipPath><clipPath id="clip2"><rect x="0" y="0" width="200" height="200"/></clipPath></defs></svg>
