<?xml version="1.0" encoding="utf-8"?>
<!DOCTYPE svg PUBLIC "-//W3C//DTD SVG 1.1//EN" "http://www.w3.org/Graphics/SVG/1.1/DTD/svg11.dtd">
<svg xmlns="http://www.w3.org/2000/svg" xmlns:xlink="http://www.w3.org/1999/xlink" version="1.1" class="marks" width="338" height="247" viewBox="0 0 338 247"><rect width="338" height="247" fill="white"/><g fill="none" stroke-miterlimit="10" transform="translate(35,10)"><g class="mark-group role-frame root" role="graphics-object" aria-roledescription="group mark container"><g transform="translate(0,0)"><path class="background" aria-hidden="true" d="M0.5,0.5h200v200h-200Z" stroke="#ddd"/><g><g class="mark-group role-axis" aria-hidden="true"><g transform="translate(0.5,200.5)"><path class="background" aria-hidden="true" d="M0,0h0v0h0Z" pointer-events="none"/><g><g class="mark-rule role-axis-grid" pointer-events="none"><line transform="translate(0,-200)" x2="0" y2="200" stroke="#ddd" stroke-width="1" opacity="1"/><line transform="translate(40,-200)" x2="0" y2="200" stroke="#ddd" stroke-width="1" opacity="1"/><line transform="translate(80,-200)" x2="0" y2="200" stroke="#ddd" stroke-width="1" opacity="1"/><line transform="translate(120,-200)" x2="0" y2="200" stroke="#ddd" stroke-width="1" opacity="1"/><line transform="translate(160,-200)" x2="0" y2="200" stroke="#ddd" stroke-width="1" opacity="1"/><line transform="translate(200,-200)" x2="0" y2="200" stroke="#ddd" stroke-width="1" opacity="1"/></g></g><path class="foreground" aria-hidden="true" d="" pointer-events="none" display="none"/></g></g><g class="mark-group role-axis" aria-hidden="true"><g transform="translate(0.5,0.5)"><path class="background" aria-hidden="true" d="M0,0h0v0h0Z" pointer-events="none"/><g><g class="mark-rule role-axis-grid" pointer-events="none"><line transform="translate(0,200)" x2="200" y2="0" stroke="#ddd" stroke-width="1" opacity="1"/><line transform="translate(0,150)" x2="200" y2="0" stroke="#ddd" stroke-width="1" opacity="1"/><line transform="translate(0,100)" x2="200" y2="0" stroke="#ddd" stroke-width="1" opacity="1"/><line transform="translate(0,50)" x2="200" y2="0" stroke="#ddd" stroke-width="1" opacity="1"/><line transform="translate(0,0)" x2="200" y2="0" stroke="#ddd" stroke-width="1" opacity="1"/></g></g><path class="foreground" aria-hidden="true" d="" pointer-events="none" display="none"/></g></g><g class="mark-group role-axis" role="graphics-symbol" aria-roledescription="axis" aria-label="X-axis titled 'x' for a linear scale with values from 0.0 to 0.5"><g transform="translate(0.5,200.5)"><path class="background" aria-hidden="true" d="M0,0h0v0h0Z" pointer-events="none"/><g><g class="mark-rule role-axis-tick" pointer-events="none"><line transform="translate(0,0)" x2="0" y2="5" stroke="#888" stroke-width="1" opacity="1"/><line transform="translate(40,0)" x2="0" y2="5" stroke="#888" stroke-width="1" opacity="1"/><line transform="translate(80,0)" x2="0" y2="5" stroke="#888" stroke-width="1" opacity="1"/><line transform="translate(120,0)" x2="0" y2="5" stroke="#888" stroke-width="1" opacity="1"/><line transform="translate(160,0)" x2="0" y2="5" stroke="#888" stroke-width="1" opacity="1"/><line transform="translate(200,0)" x2="0" y2="5" stroke="#888" stroke-width="1" opacity="1"/></g><g class="mark-text role-axis-label" pointer-events="none"><text text-anchor="start" transform="translate(0,15)" font-family="sans-serif" font-size="10px" fill="#000" opacity="1">0.0</text><text text-anchor="middle" transform="translate(40,15)" font-family="sans-serif" font-size="10px" fill="#000" opacity="1">0.1</text><text text-anchor="middle" transform="translate(80,15)" font-family="sans-serif" font-size="10px" fill="#000" opacity="1">0.2</text><text text-anchor="middle" transform="translate(120,15)" font-family="sans-serif" font-size="10px" fill="#000" opacity="1">0.3</text><text text-anchor="middle" transform="translate(160,15)" font-family="sans-serif" font-size="10px" fill="#000" opacity="1">0.4</text><text text-anchor="end" transform="translate(200,15)" font-family="sans-serif" font-size="10px" fill="#000" opacity="1">0.5</text></g><g class="mark-rule role-axis-domain" pointer-events="none"><line transform="translate(0,0)" x2="200" y2="0" stroke="#888" stroke-width="1" opacity="1"/></g><g class="mark-text role-axis-title" pointer-events="none"><text text-anchor="middle" transform="translate(100,30)" font-family="sans-serif" font-size="11px" font-weight="bold" fill="#000" opacity="1">x</text></g></g><path class="foreground" aria-hidden="true" d="" pointer-events="none" display="none"/></g></g><g class="mark-group role-axis" role="graphics-symbol" aria-roledescription="axis" aria-label="Y-axis titled 'y' for a linear scale with values from 0 to 40"><g transform="translate(0.5,0.5)"><path class="background" aria-hidden="true" d="M0,0h0v0h0Z" pointer-events="none"/><g><g class="mark-rule role-axis-tick" pointer-events="none"><line transform="translate(0,200)" x2="-5" y2="0" stroke="#888" stroke-width="1" opacity="1"/><line transform="translate(0,150)" x2="-5" y2="0" stroke="#888" stroke-width="1" opacity="1"/><line transform="translate(0,100)" x2="-5" y2="0" stroke="#888" stroke-width="1" opacity="1"/><line transform="translate(0,50)" x2="-5" y2="0" stroke="#888" stroke-width="1" opacity="1"/><line transform="translate(0,0)" x2="-5" y2="0" stroke="#888" stroke-width="1" opacity="1"/></g><g class="mark-text role-axis-label" pointer-events="none"><text text-anchor="end" transform="translate(-7,203)" font-family="sans-serif" font-size="10px" fill="#000" opacity="1">0</text><text text-anchor="end" transform="translate(-7,153)" font-family="sans-serif" font-size="10px" fill="#000" opacity="1">10</text><text text-anchor="end" transform="translate(-7,103)" font-family="sans-serif" font-size="10px" fill="#000" opacity="1">20</text><text text-anchor="end" transform="translate(-7,53)" font-family="sans-serif" font-size="10px" fill="#000" opacity="1">30</text><text text-anchor="end" transform="translate(-7,3)" font-family="sans-serif" font-size="10px" fill="#000" opacity="1">40</text></g><g class="mark-rule role-axis-domain" pointer-events="none"><line transform="translate(0,200)" x2="0" y2="-200" stroke="#888" stroke-width="1" opacity="1"/></g><g class="mark-text role-axis-title" pointer-events="none"><text text-anchor="middle" transform="translate(-27,98)" font-family="sans-serif" font-size="11px" font-weight="bold" fill="#000" opacity="1">y</text></g></g><path class="foreground" aria-hidden="true" d="" pointer-events="none" display="none"/></g></g><g class="mark-group role-scope pathgroup" role="graphics-object" aria-roledescription="group mark container"><g transform="translate(0,0)"><path class="background" aria-hidden="true" d="M0,0h200v200h-200Z"/><g><g class="mark-line role-mark marks" clip-path="url(#clip1)" role="graphics-object" aria-roledescription="line mark container"><path aria-label="x: 0; y: 0; name: ð‘“, convergent" role="graphics-symbol" aria-roledescription="line mark" d="M0.20020020020020018,-18.494966386270086L0.40040040040040037,46.96519370720891L0.6006006006006006,75.96512099436059L0.8008008008008007,93.25251680686495L1.001001001001001,105.05001250625389L1.2012012012012012,113.7585620455267L1.4014014014014013,120.52684280959846L1.6016016016016015,125.98259685360445L1.8018018018018018,130.5016778712433L2.002002002002002,134.32468606366152L2.2022022022022023,137.61373217851363L2.4024024024024024,140.48256049718032L2.6026026026026026,143.0136491450925L2.8028028028028027,145.2684577224299L3.003003003003003,147.29384781498598L3.203203203203203,149.12625840343247L3.4034034034034035,150.79450863503178L3.6036036036036037,152.3217312357363L3.8038038038038042,153.72673827011732L4.004004004004004,155.02500625312697L4.2042042042042045,156.2293999568241L4.404404404404405,157.35071306457414L4.604604604604605,158.39807803926126L4.804804804804805,159.37928102276337L5.005005005005005,160.301006722746L5.205205205205205,161.16903096948636L5.405405405405405,161.98837366478688L5.605605605605605,162.76342140479923L5.805805805805806,163.49802663603273L6.006006006006006,164.19558847379366L6.206206206206207,164.85911906073005L6.406406406406406,165.49129842680222L6.606606606606606,166.0945201335806L6.806806806806807,166.6709294782821L7.007007007007007,167.22245564964743L7.207207207207207,167.75083893562166L7.4074074074074066,168.25765385825233L7.6076076076076085,168.74432893724727L7.807807807807808,169.21216364783658L8.008008008008009,169.66234303183077L8.208208208208207,170.09595033628864L8.408408408408409,170.51397798693338L8.608608608608609,170.91733714956027L8.80880880880881,171.3068660892568L9.00900900900901,171.6833375020846L9.20920920920921,172.04746496523535L9.40940940940941,172.39990862824448L9.60960960960961,172.74128024859016L9.80980980980981,173.07214765910425L10.01001001001001,173.39303874144179L10.21021021021021,173.70444496887964L10.41041041041041,174.00682457254626L10.61061061061061,174.30060537748864L10.81081081081081,174.5861873485089L11.01101101101101,174.86394488022995L11.21121121121121,175.13422886121495L11.411411411411411,175.3973685380221L11.611611611611613,175.65367320171526L11.811811811811811,175.90343371647566L12.012012012012011,176.14692390749298L12.212212212212211,176.3844018231945L12.412412412412413,176.6161108850404L12.612612612612612,176.84228093653283L12.812812812812812,177.06312920171624L13.013013013013014,177.27886116225494L13.213213213213212,177.48967136113816L13.413413413413414,177.69574414015827L13.613613613613614,177.8972543175159L13.813813813813812,178.09436781121357L14.014014014014014,178.28724221329014L14.214214214214213,178.47602731941228L14.414414414414415,178.66086561786815L14.614614614614615,178.8418927415903L14.814814814814813,179.01923788646684L15.015015015015015,179.19302419887214L15.215215215215217,179.36336913505866L15.415415415415415,179.53038479479326L15.615615615615615,179.6941782313908L15.815815815815814,179.8548517400939L16.016016016016017,180.01250312656347L16.216216216216218,180.1672259570811L16.416416416416414,180.31910979191764L16.616616616616618,180.46824040319035L16.816816816816818,180.61469997841206L17.017017017017018,180.7585673108306L17.217217217217218,180.89991797755926L17.417417417417415,181.03882450641282L17.61761761761762,181.17535653228708L17.81781781781782,181.3095809438461L18.01801801801802,181.4415620212205L18.21821821821822,181.57136156535984L18.41841841841842,181.69903901963062L18.61861861861862,181.82465158420376L18.81881881881882,181.9482543237306L19.01901901901902,182.06990026876878L19.21921921921922,182.18964051138167L19.41941941941942,182.30752429530335L19.61961961961962,182.42359910102985L19.81981981981982,182.5379107261712L20.02002002002002,182.65050336137298L20.22022022022022,182.76141966209298L20.42042042042042,182.87070081649804L20.62062062062062,182.97838660972636L20.82082082082082,183.08451548474318L21.02102102102102,183.1891246000009L21.22122122122122,183.29224988410039L21.42142142142142,183.39392608763586L21.62162162162162,183.49418683239344L21.82182182182182,183.59306465806128L22.02202202202202,183.69059106659904L22.22222222222222,183.78679656440357L22.42242242242242,183.88171070239963L22.62262262262262,183.97536211417452L22.822822822822822,184.0677785522692L23.023023023023022,184.15898692272958L23.223223223223226,184.24901331801638L23.423423423423422,184.33788304836415L23.623623623623622,184.42562067167609L23.823823823823822,184.51225002203356L24.024024024024023,184.59779423689685L24.224224224224226,184.68227578306636L24.424424424424423,184.76571648147143L24.624624624624623,184.8481375308482L24.824824824824827,184.92955953036503L25.025025025025027,185.0100025012508L25.225225225225223,185.08948590747661L25.425425425425423,185.16802867554077L25.625625625625624,185.24564921340112L25.825825825825827,185.32236542859937L26.026026026026027,185.3981947456167L26.226226226226224,185.47315412249935L26.426426426426424,185.54726006679033L26.626626626626624,185.6205286508007L26.826826826826828,185.69297552625338L27.027027027027028,185.76461593832866L27.227227227227228,185.83546473914106L27.427427427427425,185.905536400674L27.627627627627625,185.97484502719806L27.82782782782783,186.04340436719684L28.02802802802803,186.1112278248237L28.22822822822823,186.17832847091057L28.428428428428425,186.2447190535497L28.628628628628626,186.31041200826783L28.82882882882883,186.37541946781081L29.02902902902903,186.4397532715567L29.22922922922923,186.50342497457345L29.429429429429426,186.56644585633722L29.629629629629626,186.62882692912618L29.82982982982983,186.69057894610376L30.03003003003003,186.75171240910532L30.23023023023023,186.81223757614052L30.430430430430434,186.87216446862362L30.630630630630627,186.93150287834393L30.83083083083083,186.9902623741863L31.03103103103103,187.04845230861335L31.23123123123123,187.1060818239183L31.431431431431434,187.16315985825858L31.631631631631627,187.2196951514793L31.83183183183183,187.2756962507345L32.032032032032035,187.33117151591537L32.232232232232235,187.38612912489225L32.432432432432435,187.44057707857877L32.63263263263263,187.49452320582466L32.83283283283283,187.54797516814432L33.033033033033036,187.60094046428736L33.233233233233236,187.65342643465772L33.433433433433436,187.70544026558682L33.633633633633636,187.7569889934667L33.83383383383383,187.80807950874845L34.034034034034036,187.85871855981108L34.234234234234236,187.90891275670577L34.434434434434436,187.95866857478015L34.63463463463464,188.0079923581873L34.83483483483483,188.0568903232836L35.03503503503504,188.1053685619197L35.23523523523524,188.1534330446284L35.43543543543544,188.20108962371341L35.63563563563564,188.24834403624257L35.83583583583583,188.29520190694876L36.03603603603604,188.34166875104233L36.23623623623624,188.38774997693784L36.43643643643644,188.43345088889816L36.63663663663664,188.4787766895992L36.83683683683684,188.52373248261767L37.03703703703704,188.568323274845L37.23723723723724,188.6125539788296L37.43743743743744,188.65642941505007L37.63763763763764,188.69995431412227L37.83783783783784,188.74313331894137L38.03803803803804,188.78597098676258L38.23823823823824,188.82847179122115L38.43843843843844,188.87064012429508L38.63863863863864,188.91248029821128L38.83883883883884,188.95399654729803L39.03903903903904,188.9951930297849L39.23923923923924,189.03607382955215L39.43943943943944,189.0766429578312L39.63963963963964,189.11690435485804L39.83983983983984,189.15686189148033L40.04004004004004,189.1965193707209L40.24024024024024,189.23588052929796L40.44044044044044,189.27494903910414L40.64064064064064,189.3137285086451L40.84084084084084,189.3522224844398L41.04104104104104,189.39043445238255L41.24124124124124,189.428367839069L41.44144144144144,189.4660260130871L41.64164164164164,189.50341228627312L41.84184184184184,189.5405299149355L42.04204204204204,189.5773821010458L42.24224224224224,189.6139719933992L42.44244244244244,189.65030268874432L42.64264264264264,189.68637723288438L42.84284284284284,189.72219862174958L43.04304304304304,189.757769802442L43.24324324324324,189.79309367425446L43.44344344344344,189.8281730896627L43.64364364364364,189.86301085529317L43.84384384384384,189.89760973286607L44.04404404404404,189.93197244011498L44.24424424424424,189.96610165168357L44.44444444444444,190L44.64464464464464,190.03367007612974L44.84484484484484,190.0671144306075L45.04504504504504,190.10033557424865L45.24524524524524,190.1333359789412L45.44544544544545,190.16611807841804L45.645645645645644,190.19868426901104L45.845845845845844,190.23103691038676L46.046046046046044,190.26317832626458L46.246246246246244,190.2951108051177L46.44644644644645,190.32683660085763L46.646646646646644,190.35835793350236L46.846846846846844,190.38967698982879L47.047047047047045,190.42079592401006L47.247247247247245,190.45171685823783L47.44744744744745,190.48244188333015L47.647647647647645,190.5129730593254L47.847847847847845,190.5433124160622L48.048048048048045,190.5734619537465L48.248248248248245,190.60342364350532L48.44844844844845,190.6331994279281L48.64864864864865,190.66279122159563L48.848848848848846,190.69220091159727L49.049049049049046,190.7214303580363L49.249249249249246,190.75048139452406L49.44944944944945,190.77935582866328L49.64964964964965,190.80805544252019L49.849849849849846,190.83658199308675L50.050050050050054,190.8649372127323L50.25025025025025,190.89312280964546L50.45045045045045,190.9211404682664L50.650650650650654,190.94899184970967L50.85085085085085,190.97667859217773L51.051051051051054,191.00420231136587L51.25125125125125,191.03156460085813L51.45145145145145,191.0587670325148L51.651651651651655,191.08581115685178L51.85185185185185,191.11269850341174L52.052052052052055,191.13943058112744L52.25225225225225,191.1660088786776L52.45245245245245,191.1924348648347L52.652652652652655,191.21870998880644L52.85285285285285,191.24483568056908L53.053053053053056,191.27081335119462L53.25325325325325,191.29664439317077L53.453453453453456,191.32233018071452L53.653653653653656,191.34787207007912L53.85385385385385,191.3732713998551L54.054054054054056,191.39852949126458L54.25425425425425,191.42364764845018L54.454454454454456,191.44862715875794L54.65465465465466,191.47346929301406L54.85485485485485,191.4981753057969L55.05505505505506,191.52274643570274L55.25525525525525,191.5471839056068L55.45545545545546,191.5714889229188L55.65565565565566,191.5956626798336L55.85585585585585,191.61970635357667L56.05605605605606,191.64362110664507L56.25625625625625,191.66740808704333L56.45645645645646,191.69106842851508L56.65665665665666,191.71460325076995L56.85685685685685,191.73801365970616L57.05705705705706,191.7613007476287L57.25725725725725,191.78446559346352L57.45745745745746,191.80750926296744L57.65765765765766,191.8304328089341L57.85785785785785,191.85323727139587L58.05805805805806,191.8759236778223L58.25825825825825,191.89849304331435L58.45845845845846,191.92094637079515L58.65865865865866,191.94328465119733L58.85885885885885,191.96550886364668L59.05905905905906,191.98761997564225L59.25925925925925,192.00961894323342L59.45945945945946,192.03150671119354L59.65965965965966,192.0532842131902L59.85985985985987,192.07495237195272L60.06006006006006,192.09651209943607L60.26026026026025,192.1179642969824L60.46046046046046,192.1393098554791L60.66066066066066,192.16054965551425L60.86086086086087,192.18168456752935L61.06106106106106,192.2027154519688L61.261261261261254,192.22364315942738L61.46146146146146,192.2444685307946L61.66166166166166,192.26519239739665L61.86186186186187,192.28581558113564L62.06206206206206,192.3063388946268L62.262262262262254,192.32676314133266L62.46246246246246,192.3470891156954L62.66266266266266,192.36731760326646L62.86286286286287,192.38744938083423L63.06306306306306,192.40748521654913L63.263263263263255,192.42742587004696L63.46346346346346,192.44727209256965L63.66366366366366,192.46702462708421L63.86386386386387,192.4866842083997L64.06406406406407,192.50625156328175L64.26426426426426,192.52572741056562L64.46446446446447,192.54511246126708L64.66466466466466,192.56440741869142L64.86486486486487,192.58361297854054L65.06506506506507,192.6027298290185L65.26526526526526,192.62175865093488L65.46546546546547,192.64070011780677L65.66566566566566,192.65955489595882L65.86586586586587,192.67832364462177L66.06606606606607,192.69700701602915L66.26626626626627,192.71560565551252L66.46646646646647,192.73412020159518L66.66666666666666,192.7525512860841L66.86686686686687,192.77089953416063L67.06706706706707,192.78916556446939L67.26726726726727,192.80734998920605L67.46746746746747,192.82545341420334L67.66766766766766,192.84347643901606L67.86786786786787,192.86141965700426L68.06806806806807,192.87928365541532L68.26826826826827,192.8970690154648L68.46846846846847,192.91477631241577L68.66866866866866,192.93240611565693L68.86886886886887,192.94995898877963L69.06906906906907,192.9674354896534L69.26926926926927,192.98483617050059L69.46946946946947,193.00216157796945L69.66966966966966,193.0194122532064L69.86986986986987,193.03658873192705L70.07007007007007,193.05369154448599L70.27027027027027,193.07072121594553L70.47047047047047,193.0876782661435L70.67067067067066,193.10456320976002L70.87087087087087,193.1213765563827L71.07107107107107,193.1381188105717L71.27127127127127,193.15479047192306L71.47147147147147,193.1713920351313L71.67167167167166,193.18792399005136L71.87187187187187,193.20438682175885L72.07207207207207,193.22078101061027L72.27227227227228,193.23710703230157L72.47247247247248,193.25336535792636L72.67267267267268,193.2695564540328L72.87287287287288,193.28568078267992L73.07307307307308,193.30173880149306L73.27327327327328,193.3177309637183L73.47347347347348,193.33365771827638L73.67367367367368,193.3495195098153L73.87387387387388,193.36531677876286L74.07407407407408,193.38104996137776L74.27427427427428,193.3967194898002L74.47447447447448,193.41232579210188L74.67467467467468,193.42786929233506L74.87487487487488,193.4433504105809L75.07507507507508,193.4587695629972L75.27527527527528,193.4741271618653L75.47547547547548,193.48942361563658L75.67567567567568,193.5046593289778L75.87587587587588,193.51983470281635L76.07607607607608,193.5349501343844L76.27627627627628,193.55000601726255L76.47647647647648,193.56500274142294L76.67667667667668,193.57994069327177L76.87687687687688,193.59482025569085L77.07707707707708,193.6096418080791L77.27727727727728,193.624405726393L77.47747747747748,193.63911238318676L77.67767767767768,193.6537621476517L77.87787787787788,193.6683553856552L78.07807807807808,193.68289245977917L78.27827827827828,193.69737372935782L78.47847847847848,193.7117995505149L78.67867867867868,193.72617027620066L78.87887887887888,193.7404862562279L79.07907907907908,193.7547478373079L79.27927927927928,193.7689553630856L79.47947947947948,193.78310917417448L79.67967967967968,193.79720960819074L79.87987987987988,193.81125699978713L80.08008008008008,193.8252516806865L80.28028028028028,193.83919397971437L80.48048048048048,193.85308422283168L80.68068068068068,193.8669227331667L80.88088088088088,193.8807098310465L81.08108108108108,193.8944458340282L81.28128128128128,193.90813105692973L81.48148148148148,193.92176581186004L81.68168168168168,193.935350408249L81.88188188188188,193.94888515287695L82.08208208208208,193.9623703499038L82.28228228228228,193.97580630089763L82.48248248248248,193.98919330486316L82.68268268268268,194.00253165826967L82.88288288288288,194.01582165507844L83.08308308308308,194.02906358677018L83.28328328328328,194.0422577423716L83.48348348348348,194.05540440848222L83.68368368368368,194.06850386930032L83.88388388388388,194.08155640664873L84.08408408408408,194.09456230000046L84.28428428428428,194.1075218265036L84.48448448448448,194.1204352610064L84.68468468468468,194.1333028760815L84.88488488488488,194.1461249420502L85.08508508508508,194.15890172700637L85.28528528528528,194.17163349683986L85.4854854854855,194.1843205152599L85.68568568568568,194.19696304381793L85.88588588588588,194.20956134193023L86.08608608608608,194.22211566690038L86.28628628628628,194.23462627394122L86.48648648648648,194.24709341619672L86.68668668668668,194.25951734476348L86.88688688688688,194.27189830871194L87.08708708708708,194.2842365551074L87.28728728728728,194.29653232903064L87.4874874874875,194.30878587359848L87.68768768768768,194.3209974299839L87.88788788788789,194.33316723743593L88.08808808808809,194.34529553329952L88.28828828828829,194.35738255303477L88.48848848848849,194.36942853023623L88.68868868868869,194.38143369665187L88.88888888888889,194.3933982822018L89.08908908908909,194.4053225149967L89.28928928928929,194.4172066213562L89.4894894894895,194.4290508258268L89.68968968968969,194.44085535119982L89.88988988988989,194.45262041852885L90.09009009009009,194.46434624714726L90.29029029029029,194.47603305468536L90.49049049049049,194.48768105708726L90.69069069069069,194.49929046862778L90.8908908908909,194.51086150192887L91.09109109109109,194.52239436797606L91.29129129129129,194.5338892761346L91.4914914914915,194.54534643416534L91.69169169169169,194.55676604824066L91.8918918918919,194.56814832295987L92.09209209209209,194.5794934613648L92.29229229229229,194.5908016649548L92.49249249249249,194.60207313370194L92.69269269269269,194.6133080660658L92.8928928928929,194.62450665900818L93.09309309309309,194.6356691080075L93.29329329329329,194.6467956070733L93.4934934934935,194.6578863487602L93.69369369369369,194.6689415241821L93.8938938938939,194.6799613230258L94.09409409409409,194.69094593356496L94.29429429429429,194.70189554267327L94.49449449449449,194.71281033583804L94.69469469469469,194.72369049717332L94.8948948948949,194.73453620943295L95.09509509509509,194.74534765402348L95.29529529529529,194.7561250110168L95.4954954954955,194.76686845916288L95.69569569569569,194.7775781759022L95.8958958958959,194.788254337378L96.09609609609609,194.79889711844842L96.29629629629629,194.80950669269862L96.49649649649649,194.8200832324527L96.69669669669669,194.83062690878523L96.8968968968969,194.84113789153318L97.09709709709709,194.85161634930716L97.2972972972973,194.86206244950296L97.4974974974975,194.87247635831264L97.69769769769769,194.88285824073571L97.8978978978979,194.89320826059014L98.09809809809809,194.90352658052308L98.2982982982983,194.91381336202178L98.49849849849849,194.9240687654241L98.69869869869869,194.93429294992896L98.8988988988989,194.94448607360684L99.09909909909909,194.95464829340997L99.2992992992993,194.96477976518253L99.4994994994995,194.97488064367053L99.69969969969969,194.984951082532L99.8998998998999,194.99499123434657L100.10010010010011,195.00500125062538L100.30030030030031,195.0149812818205L100.5005005005005,195.0249314773345L100.7007007007007,195.03485198552985L100.9009009009009,195.04474295373834L101.10110110110111,195.05460452826992L101.30130130130131,195.06443685442224L101.50150150150151,195.07424007648927L101.7017017017017,195.08401433777038L101.9019019019019,195.0937597805791L102.10210210210211,195.10347654625178L102.30230230230231,195.11316477515635L102.5025025025025,195.12282460670056L102.7027027027027,195.1324561793407L102.9029029029029,195.14205963058976L103.10310310310311,195.15163509702572L103.30330330330331,195.16118271429968L103.50350350350351,195.17070261714403L103.7037037037037,195.18019493938036L103.9039039039039,195.18965981392725L104.10410410410411,195.19909737280835L104.30430430430431,195.20850774715987L104.5045045045045,195.2178910672384L104.7047047047047,195.2272474624284L104.9049049049049,195.23657706124968L105.10510510510511,195.24587999136483L105.30530530530531,195.2551563795866L105.50550550550551,195.26440635188513L105.7057057057057,195.27363003339516L105.9059059059059,195.28282754842303L106.10610610610611,195.29199902045391L106.30630630630631,195.30114457215853L106.5065065065065,195.31026432540034L106.7067067067067,195.31935840124208L106.90690690690691,195.32842691995265L107.10710710710711,195.3374700010138L107.30730730730731,195.34648776312667L107.50750750750751,195.3554803242185L107.7077077077077,195.36444780144885L107.90790790790791,195.37339031121624L108.10810810810811,195.38230796916434L108.30830830830831,195.39120089018834L108.5085085085085,195.40006918844122L108.7087087087087,195.4089129773397L108.90890890890891,195.41773236957053L109.10910910910911,195.42652747709644L109.30930930930931,195.4352984111622L109.50950950950951,195.4440452823003L109.7097097097097,195.452768200337L109.90990990990991,195.46146727439816L110.11011011011011,195.47014261291483L110.31031031031031,195.47879432362893L110.5105105105105,195.48742251359903L110.7107107107107,195.4960272892057L110.91091091091091,195.5046087561572L111.11111111111111,195.51316701949486L111.31131131131131,195.52170218359842L111.51151151151151,195.53021435219148L111.7117117117117,195.5387036283468L111.91191191191191,195.5471701144914L112.11211211211211,195.55561391241184L112.31231231231232,195.56403512325952L112.5125125125125,195.5724338475554L112.7127127127127,195.58081018519545L112.91291291291292,195.58916423545526L113.11311311311312,195.59749609699534L113.31331331331332,195.6058058678657L113.51351351351352,195.61409364551093L113.7137137137137,195.62235952677486L113.91391391391392,195.63060360790533L114.11411411411412,195.63882598455896L114.31431431431432,195.6470267518058L114.5145145145145,195.6552060041339L114.7147147147147,195.6633638354539L114.91491491491492,195.67150033910357L115.11511511511512,195.67961560785224L115.31531531531532,195.68770973390542L115.51551551551552,195.69578280890892L115.7157157157157,195.70383492395348L115.91591591591592,195.71186616957888L116.11611611611612,195.71987663577838L116.31631631631632,195.72786641200278L116.5165165165165,195.73583558716484L116.7167167167167,195.74378424964323L116.91691691691692,195.75171248728674L117.11711711711712,195.7596203874183L117.31731731731732,195.7675080368392L117.51751751751752,195.77537552183273L117.7177177177177,195.7832229281686L117.91791791791792,195.79105034110654L118.11811811811812,195.79885784540025L118.31831831831832,195.80664552530135L118.5185185185185,195.81441346456307L118.7187187187187,195.82216174644424L118.91891891891892,195.82989045371272L119.11911911911912,195.83759966864943L119.31931931931932,195.84528947305188L119.51951951951952,195.85295994823775L119.71971971971973,195.86061117504866L119.91991991991992,195.86824323385363L120.12012012012012,195.8758562045527L120.32032032032032,195.8834501665803L120.5205205205205,195.891025198909L120.72072072072073,195.89858138005275L120.92092092092092,195.90611878807024L121.12112112112112,195.91363750056854L121.32132132132132,195.92113759470618L121.52152152152152,195.9286191471967L121.72172172172174,195.9360822343118L121.92192192192192,195.9435269318847L122.12212212212212,195.95095331531328L122.32232232232232,195.9583614595634L122.52252252252251,195.96575143917195L122.72272272272274,195.97312332825013L122.92292292292292,195.98047720048646L123.12312312312312,195.98781312914994L123.32332332332332,195.99513118709316L123.52352352352352,196.00243144675517L123.72372372372374,196.00971398016466L123.92392392392392,196.0169788589429L124.12412412412412,196.0242261543067L124.32432432432432,196.0314559370712L124.52452452452451,196.03866827765304L124.72472472472474,196.04586324607305L124.92492492492492,196.05304091195913L125.12512512512512,196.0602013445492L125.32532532532532,196.0673446126938L125.52552552552552,196.07447078485902L125.72572572572574,196.0815799291293L125.92592592592592,196.08867211320992L126.12612612612612,196.09574740443006L126.32632632632632,196.1028058697451L126.52652652652651,196.10984757573965L126.72672672672674,196.1168725886299L126.92692692692692,196.12388097426637L127.12712712712712,196.13087279813652L127.32732732732732,196.13784812536724L127.52752752752752,196.14480702072748L127.72772772772774,196.15174954863073L127.92792792792793,196.15867577313745L128.12812812812814,196.16558575795767L128.32832832832833,196.17247956645355L128.5285285285285,196.17935726164146L128.72872872872873,196.1862189061948L128.92892892892894,196.19306456244612L129.12912912912913,196.19989429238964L129.3293293293293,196.20670815768358L129.52952952952953,196.21350621965243L129.72972972972974,196.22028853928938L129.92992992992993,196.22705517725856L130.13013013013014,196.23380619389727L130.33033033033033,196.24054164921836L130.5305305305305,196.24726160291232L130.73073073073073,196.25396611434968L130.93093093093094,196.26065524258308L131.13113113113113,196.2673290463494L131.3313313313313,196.27398758407216L131.53153153153156,196.28063091386343L131.73173173173174,196.2872590935261L131.93193193193193,196.29387218055595L132.13213213213214,196.30047023214368L132.33233233233233,196.30705330517713L132.53253253253254,196.31362145624323L132.73273273273273,196.32017474163004L132.93293293293294,196.32671321732886L133.13313313313313,196.33323693903617L133.33333333333331,196.33974596215563L133.53353353353356,196.34624034180004L133.73373373373374,196.35272013279342L133.93393393393393,196.35918538967275L134.13413413413414,196.36563616669008L134.33433433433433,196.37207251781436L134.53453453453454,196.37849449673334L134.73473473473473,196.38490215685545L134.93493493493494,196.39129555131166L135.13513513513513,196.39767473295737L135.33533533533532,196.40403975437422L135.53553553553556,196.41039066787192L135.73573573573574,196.41672752549L135.93593593593593,196.42305037899962L136.13613613613614,196.42935927990555L136.33633633633633,196.43565427944753L136.53653653653654,196.44193542860236L136.73673673673673,196.44820277808554L136.93693693693695,196.4544563783529L137.13713713713713,196.46069627960236L137.33733733733732,196.4669225317757L137.53753753753756,196.47313518456016L137.73773773773775,196.47933428739006L137.93793793793793,196.4855198894486L138.13813813813815,196.49169203966935L138.33833833833833,196.49785078673793L138.53853853853855,196.50399617909363L138.73873873873873,196.5101282649311L138.93893893893895,196.51624709220167L139.13913913913913,196.5223527086153L139.33933933933932,196.5284451616418L139.53953953953956,196.53452449851255L139.73973973973975,196.54059076622207L139.93993993993993,196.54664401152942L140.14014014014015,196.55268428095985L140.34034034034033,196.55871162080615L140.54054054054055,196.56472607713027L140.74074074074073,196.57072769576476L140.94094094094095,196.5767165223142L141.14114114114113,196.58269260215673L141.34134134134132,196.58865598044537L141.54154154154156,196.59460670210962L141.74174174174175,196.6005448118567L141.94194194194193,196.60647035417318L142.14214214214215,196.6123833733261L142.34234234234233,196.61828391336465L142.54254254254255,196.62417201812127L142.74274274274273,196.63004773121332L142.94294294294295,196.63591109604414L143.14314314314313,196.64176215580463L143.34334334334332,196.64760095347438L143.54354354354356,196.65342753182318L143.74374374374375,196.65924193341226L143.94394394394394,196.66504420059562L144.14414414414415,196.67083437552117L144.34434434434436,196.67661250013228L144.54454454454455,196.68237861616888L144.74474474474474,196.6881327651688L144.94494494494495,196.6938749884689L145.14514514514514,196.69960532720654L145.34534534534535,196.7053238223206L145.54554554554556,196.71103051455285L145.74574574574575,196.71672544444908L145.94594594594594,196.72240865236037L146.14614614614615,196.7280801784443L146.34634634634637,196.733740062666L146.54654654654655,196.7393883447996L146.74674674674674,196.74502506442914L146.94694694694695,196.7506502609499L147.14714714714714,196.75626397356942L147.34734734734735,196.76186624130884L147.54754754754757,196.76745710300384L147.74774774774775,196.7730365973059L147.94794794794794,196.77860476268333L148.14814814814815,196.78416163742253L148.34834834834837,196.78970725962884L148.54854854854855,196.79524166722803L148.74874874874874,196.8007648979669L148.94894894894895,196.80627698941478L149.14914914914914,196.81177797896444L149.34934934934935,196.81726790383306L149.54954954954957,196.82274680106343L149.74974974974975,196.82821470752504L149.94994994994994,196.83367165991487L150.15015015015015,196.83911769475873L150.35035035035037,196.84455284841206L150.55055055055055,196.84997715706112L150.75075075075074,196.8553906567238L150.95095095095095,196.8607933832509L151.15115115115114,196.86618537232675L151.35135135135135,196.8715666594707L151.55155155155157,196.87693728003754L151.75175175175175,196.88229726921898L151.95195195195194,196.88764666204423L152.15215215215215,196.89298549338127L152.35235235235237,196.8983137979376L152.55255255255256,196.90363161026116L152.75275275275274,196.90893896474154L152.95295295295296,196.9142358956106L153.15315315315314,196.91952243694354L153.35335335335336,196.9247986226599L153.55355355355357,196.93006448652432L153.75375375375376,196.93532006214753L153.95395395395394,196.94056538298724L154.15415415415416,196.94580048234897L154.35435435435437,196.95102539338714L154.55455455455456,196.95624014910564L154.75475475475474,196.961444782359L154.95495495495496,196.96663932585307L155.15515515515514,196.97182381214603L155.35535535535536,196.976998273649L155.55555555555557,196.98216274262728L155.75575575575576,196.98731725120075L155.95595595595594,196.99246183134514L156.15615615615616,196.99759651489245L156.35635635635637,197.00272133353215L156.55655655655656,197.00783631881168L156.75675675675674,197.0129415021376L156.95695695695696,197.01803691477608L157.15715715715717,197.02312258785383L157.35735735735736,197.02819855235902L157.55755755755757,197.0332648391419L157.75775775775776,197.03832147891563L157.95795795795794,197.0433685022571L158.15815815815816,197.04840593960773L158.35835835835837,197.05343382127413L158.55855855855856,197.05845217742905L158.75875875875874,197.06346103811185L158.95895895895896,197.0684604332296L159.15915915915917,197.0734503925576L159.35935935935936,197.07843094574017L159.55955955955957,197.0834021222914L159.75975975975976,197.08836395159597L159.95995995995995,197.0933164629097L160.16016016016016,197.09825968536046L160.36036036036037,197.1031936479487L160.56056056056056,197.1081183795484L160.76076076076075,197.11303390890754L160.96096096096096,197.11794026464898L161.16116116116117,197.1228374752711L161.36136136136136,197.12772556914837L161.56156156156158,197.13260457453237L161.76176176176176,197.13747451955206L161.96196196196195,197.1423354322148L162.16216216216216,197.14718734040684L162.36236236236238,197.15203027189403L162.56256256256256,197.15686425432258L162.76276276276275,197.16168931521952L162.96296296296296,197.1665054819936L163.16316316316318,197.17131278193577L163.36336336336336,197.17611124221992L163.56356356356358,197.18090088990343L163.76376376376376,197.18568175192797L163.96396396396395,197.19045385511996L164.16416416416416,197.19521722619126L164.36436436436438,197.19997189173998L164.56456456456456,197.2047178782507L164.76476476476475,197.20945521209558L164.96496496496496,197.21418391953452L165.16516516516518,197.21890402671613L165.36536536536536,197.2236155596781L165.56556556556558,197.22831854434796L165.76576576576576,197.23301300654356L165.96596596596595,197.23769897197369L166.16616616616616,197.24237646623877L166.36636636636638,197.24704551483129L166.56656656656656,197.25170614313657L166.76676676676675,197.25635837643313L166.96696696696696,197.26100223989337L167.16716716716718,197.2656377585843L167.36736736736736,197.27026495746773L167.56756756756758,197.27488386140126L167.76776776776777,197.27949449513852L167.96796796796795,197.28409688332985L168.16816816816817,197.28869105052289L168.36836836836838,197.2932770211631L168.56856856856857,197.29785481959425L168.76876876876875,197.30242447005904L168.96896896896897,197.30698599669958L169.16916916916918,197.311539423558L169.36936936936937,197.31608477457686L169.56956956956958,197.32062207359985L169.76976976976977,197.32515134437216L169.96996996996998,197.32967261054105L170.17017017017017,197.33418589565642L170.37037037037038,197.33869122317128L170.57057057057057,197.3431886164422L170.77077077077075,197.34767809873L170.970970970971,197.35215969320006L171.17117117117118,197.35663342292293L171.37137137137137,197.36109931087478L171.57157157157158,197.36555737993794L171.77177177177177,197.3700076529014L171.97197197197198,197.3744501524612L172.17217217217217,197.378884901221L172.37237237237238,197.3833119216926L172.57257257257257,197.38773123629633L172.77277277277275,197.39214286736157L172.97297297297297,197.39654683712723L173.17317317317318,197.40094316774218L173.37337337337337,197.40533188126577L173.57357357357358,197.40971299966827L173.77377377377377,197.41408654483135L173.97397397397398,197.4184525385485L174.17417417417417,197.42281100252552L174.37437437437438,197.42716195838096L174.57457457457457,197.43150542764658L174.77477477477476,197.43584143176778L174.974974974975,197.44016999210407L175.17517517517518,197.44449112992947L175.37537537537537,197.44880486643302L175.57557557557558,197.45311122271914L175.77577577577577,197.4574102198081L175.97597597597598,197.46170187863646L176.17617617617617,197.4659862200575L176.37637637637638,197.47026326484155L176.57657657657657,197.4745330336766L176.77677677677676,197.47879554716857L176.97697697697697,197.4830508258418L177.17717717717719,197.48729889013933L177.37737737737737,197.49153976042356L177.57757757757759,197.49577345697645L177.77777777777777,197.5L177.977977977978,197.50421940961667L178.17817817817817,197.50843170586973L178.3783783783784,197.51263690872375L178.57857857857857,197.51683503806487L178.77877877877876,197.52102611370134L178.978978978979,197.5252101553638L179.1791791791792,197.5293871827057L179.37937937937937,197.53355721530374L179.5795795795796,197.53772027265816L179.77977977977977,197.5418763741932L179.97997997998,197.5460255392575L180.18018018018017,197.55016778712434L180.3803803803804,197.55430313699216L180.58058058058057,197.55843160798494L180.78078078078076,197.56255321915242L180.98098098098097,197.5666679894706L181.1811811811812,197.57077593784211L181.38138138138137,197.57487708309648L181.5815815815816,197.57897144399058L181.7817817817818,197.58305903920902L181.981981981982,197.58713988736434L182.18218218218217,197.59121400699752L182.3823823823824,197.5952814165783L182.58258258258257,197.59934213450552L182.7827827827828,197.60339617910748L182.982982982983,197.6074435686422L183.1831831831832,197.61148432129795L183.38338338338338,197.61551845519338L183.5835835835836,197.61954598837806L183.7837837837838,197.62356693883268L183.983983983984,197.62758132446942L184.18418418418418,197.63158916313228L184.3843843843844,197.6355904725975L184.58458458458458,197.6395852705738L184.7847847847848,197.64357357470269L184.98498498498498,197.64755540255885L185.1851851851852,197.65153077165047L185.38538538538538,197.65549969941952L185.5855855855856,197.6594622032421L185.7857857857858,197.66341830042882L185.985985985986,197.66736800822494L186.18618618618618,197.6713113438109L186.3863863863864,197.6752483243025L186.58658658658658,197.67917896675118L186.7867867867868,197.68310328814454L186.986986986987,197.68702130540638L187.1871871871872,197.6909330353972L187.38738738738738,197.6948384949144L187.5875875875876,197.69873770069265L187.7877877877878,197.7026306694041L187.987987987988,197.70651741765886L188.18818818818818,197.71039796200503L188.3883883883884,197.71427231892926L188.58858858858858,197.71814050485685L188.7887887887888,197.7220025361522L188.98898898898898,197.72585842911892L189.1891891891892,197.72970820000032L189.38938938938938,197.7335518649795L189.5895895895896,197.7373894401798L189.7897897897898,197.7412209416651L189.98998998999,197.74504638543976L190.19019019019018,197.74886578744946L190.3903903903904,197.75267916358095L190.59059059059058,197.75648652966268L190.7907907907908,197.76028790146495L190.990990990991,197.76408329470013L191.1911911911912,197.76787272502304L191.39139139139138,197.7716562080311L191.5915915915916,197.77543375926476L191.7917917917918,197.77920539420765L191.991991991992,197.78297112828687L192.19219219219218,197.78673097687326L192.3923923923924,197.7904849552816L192.59259259259258,197.7942330787711L192.7927927927928,197.7979753625453L192.99299299299298,197.80171182175266L193.1931931931932,197.80544247148666L193.39339339339338,197.80916732678605L193.5935935935936,197.81288640263512L193.7937937937938,197.81659971396402L193.993993993994,197.82030727564896L194.19419419419418,197.8240091025124L194.3943943943944,197.8277052093234L194.5945945945946,197.8313956107978L194.7947947947948,197.83508032159853L194.994994994995,197.8387593563358L195.1951951951952,197.84243272956732L195.39539539539538,197.84610045579862L195.5955955955956,197.84976254948327L195.7957957957958,197.8534190250231L195.995995995996,197.85706989676837L196.19619619619618,197.86071517901814L196.3963963963964,197.86435488602044L196.5965965965966,197.86798903197246L196.7967967967968,197.87161763102088L196.99699699699698,197.87524069726203L197.1971971971972,197.8788582447421L197.39739739739738,197.88247028745752L197.5975975975976,197.88607683935493L197.7977977977978,197.88967791433163L197.997997997998,197.89327352623573L198.19819819819818,197.89686368886635L198.3983983983984,197.90044841597384L198.5985985985986,197.9040277212601L198.7987987987988,197.90760161837864L198.998998998999,197.9111701209349L199.1991991991992,197.9147332424865L199.39939939939939,197.9182909965434L199.5995995995996,197.921843396568L199.7997997997998,197.92539045597562L200,197.92893218813452" stroke="#4c78a8" stroke-width="2"/></g></g><path class="foreground" aria-hidden="true" d="" display="none"/></g><g transform="translate(0,0)"><path class="background" aria-hidden="true" d="M0,0h200v200h-200Z"/><g><g class="mark-line role-mark marks" clip-path="url(#clip2)" role="graphics-object" aria-roledescription="line mark container"><path aria-label="x: 0; y: 0; name: ð‘“Â², divergent" role="graphics-symbol" aria-roledescription="line mark" d="M0.20020020020020018,-9348.010067227458L0.40040040040040037,-4483.930387414419L0.6006006006006006,-2876.9302419887213L0.8008008008008007,-2079.0050336137297L1.001001001001001,-1603.1000250125078L1.2012012012012012,-1287.5171240910536L1.4014014014014013,-1063.1965427620542L1.6016016016016015,-895.7151937072091L1.8018018018018018,-766.0033557424865L2.002002002002002,-662.6493721273231L2.2022022022022023,-578.4092825388453L2.4024024024024024,-508.4651209943606L2.6026026026026026,-449.48883675172357L2.8028028028028027,-399.10834401628836L3.003003003003003,-355.5876956299718L3.203203203203203,-317.62751680686495L3.4034034034034035,-284.23607609359277L3.6036036036036037,-254.6434624714726L3.8038038038038042,-228.242950224445L4.004004004004004,-204.55001250625395L4.2042042042042045,-183.17308562793383L4.404404404404405,-163.79233522005742L4.604604604604605,-146.14398216547912L4.804804804804805,-130.00856204552667L5.005005005005005,-115.20201344549199L5.205205205205205,-101.56883116974198L5.405405405405405,-88.97674732957373L5.605605605605605,-77.31255709531277L5.805805805805806,-66.47881189275506L6.006006006006006,-56.391176947587326L6.206206206206207,-46.976302637589114L6.406406406406406,-38.170096853604505L6.606606606606606,-29.916312994434023L6.806806806806807,-22.16538836832891L7.007007007007007,-14.873482727866216L7.207207207207207,-8.001677871243285L7.4074074074074066,-1.5153077165046547L7.6076076076076085,4.616605283400221L7.807807807807808,10.42182655048074L8.008008008008009,15.925313936338492L8.208208208208207,21.149562742056858L8.408408408408409,26.11490116899038L8.608608608608609,30.8397443055306L8.80880880880881,35.340813276031824L9.00900900900901,39.63332499583072L9.20920920920921,43.73115702605104L9.40940940940941,47.64699125414935L9.60960960960961,51.39243950281971L9.80980980980981,54.9781536613833L10.01001001001001,58.41392251711643L10.21021021021021,61.70875712106425L10.41041041041041,64.87096623952286L10.61061061061061,67.90822320728687L10.81081081081081,70.82762530298221L11.01101101101101,73.63574660317647L11.21121121121121,76.33868513471293L11.411411411411411,78.94210502921896L11.611611611611613,81.45127428622463L11.811811811811811,83.87109866874358L12.012012012012011,86.20615218501406L12.212212212212211,88.46070455033225L12.412412412412413,90.63874597185473L12.612612612612612,92.74400955550574L12.812812812812812,94.77999159656751L13.013013013013014,96.74996998318248L13.213213213213212,98.6570209140873L13.413413413413414,100.50403410774318L13.613613613613614,102.29372665908592L13.813813813813812,104.02865568192072L14.014014014014014,105.71122985913404L14.214214214214213,107.34372000906276L14.414414414414415,108.92826876426372L14.614614614614615,110.46689944832626L14.814814814814813,111.9615242270663L15.015015015015015,113.41395160225578L15.215215215215217,114.82589330883006L15.415415415415415,116.19897067015377L15.615615615615615,117.53472046029533L15.815815815815814,118.83460031728052L16.016016016016017,120.09999374687304L16.216216216216218,121.33221475250447L16.416416416416414,122.53251212348175L16.616616616616618,123.70207341048678L16.816816816816818,124.84202861460447L17.017017017017018,125.95345361363286L17.217217217217218,127.03737334720708L17.417417417417415,128.09476478027779L17.61761761761762,129.12655966269858L17.81781781781782,130.13364710107183L18.01801801801802,131.116875957559L18.21821821821822,132.07705708906056L18.41841841841842,133.0149654389996L18.61861861861862,133.93134199288275L18.81881881881882,134.82689560785792L19.01901901901902,135.70230472562034L19.21921921921922,136.55821897723666L19.41941941941942,137.3952606877438L19.61961961961962,138.21402628773623L19.81981981981982,139.01508763856668L20.02002002002002,139.798993277254L20.22022022022022,140.56626958670512L20.42042042042042,141.3174218964157L20.62062062062062,142.05293551841137L20.82082082082082,142.77327672282135L21.02102102102102,143.47889365714107L21.22122122122122,144.17021721293128L21.42142142142142,144.84766184341984L21.62162162162162,145.51162633521312L21.82182182182182,146.16249453708843L22.02202202202202,146.80063604862013L22.22222222222222,147.42640687119285L22.42242242242242,148.04015002377218L22.62262262262262,148.64219612563326L22.822822822822822,149.23286394809324L23.023023023023022,149.81246093714952L23.223223223223226,150.38128370879485L23.423423423423422,150.93961851865626L23.623623623623622,151.4877417074953L23.823823823823822,152.02592012400012L24.024024024024023,152.55441152620634L24.224224224224226,153.07346496279294L24.424424424424423,153.58332113541778L24.624624624624623,154.08421274318172L24.824824824824827,154.5763648102377L25.025025025025027,155.05999499749845L25.225225225225223,155.53531389933244L25.425425425425423,156.0025253260838L25.625625625625624,156.46182657319775L25.825825825825827,156.913408677685L26.026026026026027,157.35745666261278L26.226226226226224,157.79414977026846L26.426426426426424,158.2236616846012L26.626626626626624,158.64616074351136L26.826826826826828,159.06181014152307L27.027027027027028,159.4707681233427L27.227227227227228,159.87318816877672L27.427427427427425,160.26921916945489L27.627627627627625,160.6590055977778L27.82782782782783,161.042687668484L28.02802802802803,161.42040149320974L28.22822822822823,161.79227922839166L28.428428428428425,162.15844921684425L28.628628628628626,162.51903612332447L28.82882882882883,162.87416106437834L29.02902902902903,163.22394173274864L29.22922922922923,163.5684925166065L29.429429429429426,163.90792461385618L29.629629629629626,164.24234614174767L29.82982982982983,164.57186224202067L30.03003003003003,164.89657518178933L30.23023023023023,165.21658445036798L30.430430430430434,165.53198685222642L30.630630630630627,165.84287659625335L30.83083083083083,166.1493453814975L31.03103103103103,166.45148247954745L31.23123123123123,166.74937481370188L31.431431431431434,167.04310703507522L31.631631631631627,167.3327615957756L31.83183183183183,167.61841881928567L32.032032032032035,167.90015696816926L32.232232232232235,168.1780523092217L32.432432432432435,168.4521791761758L32.63263263263263,168.72261003006847L32.83283283283283,168.9894155173699L33.033033033033036,169.25266452597072L33.233233233233236,169.51242423911827L33.433433433433436,169.76876018738923L33.633633633633636,170.0217362987809L33.83383383383383,170.27141494700012L34.034034034034036,170.51785699802488L34.234234234234236,170.76112185500952L34.434434434434436,171.0012675016025L34.63463463463464,171.23835054374106L34.83483483483483,171.47242624998452L35.03503503503504,171.70354859044633L35.23523523523524,171.93177027437955L35.43543543543544,172.15714278647144L35.63563563563564,172.3797164218969L35.83583583583583,172.59954032018072L36.03603603603604,172.81666249791536L36.23623623623624,173.0311298803785L36.43643643643644,173.2429883320938L36.63663663663664,173.4522826863754L36.83683683683684,173.6590567738951L37.03703703703704,173.86335345030997L37.23723723723724,174.06521462298602L37.43743743743744,174.26468127685172L37.63763763763764,174.46179349941508L37.83783783783784,174.6565905049744L38.03803803803804,174.84911065805383L38.23823823823824,175.03939149609172L38.43843843843844,175.22746975140987L38.63863863863864,175.41338137248937L38.83883883883884,175.5971615445792L39.03903903903904,175.77884470966097L39.23923923923924,175.9584645857937L39.43943943943944,176.1360541858604L39.63963963963964,176.31164583573843L39.83983983983984,176.4852711919137L40.04004004004004,176.6569612585582L40.24024024024024,176.82674640409064L40.44044044044044,176.9946563772373L40.64064064064064,177.1607203226112L40.84084084084084,177.32496679582624L41.04104104104104,177.48742377816174L41.24124124124124,177.64811869079398L41.44144144144144,177.80707840860842L41.64164164164164,177.9643292736076L41.84184184184184,178.11989710792807L42.04204204204204,178.27380722647985L42.24224224224224,178.4260844492206L42.44244244244244,178.5767531130774L42.64264264264264,178.72583708352695L42.84284284284284,178.87335976584666L43.04304304304304,179.01934411604623L43.24324324324324,179.1638126514911L43.44344344344344,179.3067874612276L43.64364364364364,179.4482902160192L43.84384384384384,179.5883421781035L44.04404404404404,179.72696421067914L44.24424424424424,179.8641767871306L44.44444444444444,180L44.64464464464464,180.13445356971363L44.84484484484484,180.26755685307077L45.04504504504504,180.39932885150267L45.24524524524524,180.52978821910875L45.44544544544545,180.6589532704767L45.645645645645644,180.7868419882937L45.845845845845844,180.91347203075486L46.046046046046044,181.03886073877518L46.246246246246244,181.16302514301134L46.44644644644645,181.28598197069851L46.646646646646644,181.40774765230861L46.846846846846844,181.52833832803475L47.047047047047045,181.64776985410757L47.247247247247245,181.7660578089481L47.44744744744745,181.88321749916244L47.647647647647645,181.99926396538282L47.847847847847845,182.1142119879593L48.048048048048045,182.22807609250702L48.248248248248245,182.34087055531302L48.44844844844845,182.45260940860663L48.64864864864865,182.56330644569766L48.848848848848846,182.6729752259858L49.049049049049046,182.7816290798458L49.249249249249246,182.8892811133909L49.44944944944945,182.9959442131188L49.64964964964965,183.10163105044347L49.849849849849846,183.20635408611562L50.050050050050054,183.3101255745354L50.25025025025025,183.41295756796006L50.45045045045045,183.51486192061003L50.650650650650654,183.61585029267556L50.85085085085085,183.71593415422723L51.051051051051054,183.81512478903298L51.25125125125125,183.91343329828376L51.45145145145145,184.01087060423112L51.651651651651655,184.10744745373833L51.85185185185185,184.20317442174797L52.052052052052055,184.29806191466815L52.25225225225225,184.39212017367933L52.45245245245245,184.48535927796416L52.652652652652655,184.57778914786243L52.85285285285285,184.66941954795274L53.053053053053056,184.76026009006358L53.25325325325325,184.85032023621483L53.453453453453456,184.93960930149234L53.653653653653656,185.02813645685666L53.85385385385385,185.11591073188833L54.054054054054056,185.2029410174709L54.25425425425425,185.28923606841326L54.454454454454456,185.37480450601353L54.65465465465466,185.45965482056522L54.85485485485485,185.54379537380765L55.05505505505506,185.62723440132183L55.25525525525525,185.7099800148734L55.45545545545546,185.7920402047039L55.65565565565566,185.87342284177163L55.85585585585585,185.95413567994342L56.05605605605606,186.03418635813844L56.25625625625625,186.1135824024258L56.45645645645646,186.19233122807623L56.65665665665666,186.27044014156965L56.85685685685685,186.34791634255953L57.05705705705706,186.42476692579527L57.25725725725725,186.50099888300304L57.45745745745746,186.57661910472714L57.65765765765766,186.65163438213185L57.85785785785785,186.72605140876533L58.05805805805806,186.7998767822864L58.25825825825825,186.8731170061548L58.45845845845846,186.94577849128643L58.65865865865866,187.01786755767355L58.85885885885885,187.08939043597198L59.05905905905906,187.16035326905453L59.25925925925925,187.23076211353316L59.45945945945946,187.3006229412493L59.65965965965966,187.36994164073363L59.85985985985987,187.4387240186364L60.06006006006006,187.5069758011279L60.26026026026025,187.5747026352711L60.46046046046046,187.64191009036634L60.66066066066066,187.7086036592685L60.86086086086087,187.7747887596782L61.06106106106106,187.8404707354067L61.261261261261254,187.90565485761584L61.46146146146146,187.97034632603297L61.66166166166166,188.0345502701418L61.86186186186187,188.09827175035008L62.06206206206206,188.16151575913352L62.262262262262254,188.2242872221578L62.46246246246246,188.28659099937843L62.66266266266266,188.34843188611882L62.86286286286287,188.40981461412773L63.06306306306306,188.470743852616L63.263263263263255,188.53122420927318L63.46346346346346,188.5912602312645L63.66366366366366,188.6508564062089L63.86386386386387,188.7100171631379L64.06406406406407,188.76874687343653L64.26426426426426,188.82704985176596L64.46446446446447,188.88493035696894L64.66466466466466,188.94239259295773L64.86486486486487,188.99944070958557L65.06506506506507,189.05607880350146L65.26526526526526,189.11231091898915L65.46546546546547,189.16814104879015L65.66566566566566,189.22357313491162L65.86586586586587,189.27861106941907L66.06606606606607,189.33325869521445L66.26626626626627,189.38751980679976L66.46646646646647,189.44139815102653L66.66666666666666,189.4948974278318L66.86686686686687,189.54802129096018L67.06706706706707,189.6007733486732L67.26726726726727,189.65315716444508L67.46746746746747,189.7051762576467L67.66766766766766,189.75683410421638L67.86786786786787,189.80813413731894L68.06806806806807,189.8590797479929L68.26826826826827,189.90967428578597L68.46846846846847,189.959921059379L68.66866866866866,190.00982333719926L68.86886886886887,190.05938434802215L69.06906906906907,190.10860728156274L69.26926926926927,190.15749528905664L69.46946946946947,190.20605148383055L69.66966966966966,190.25427894186305L69.86986986986987,190.30218070233497L70.07007007007007,190.34975976817088L70.27027027027027,190.3970191065705L70.47047047047047,190.4439616495311L70.67067067067066,190.49059029436097L70.87087087087087,190.53690790418372L71.07107107107107,190.58291730843405L71.27127127127127,190.62862130334491L71.47147147147147,190.67402265242643L71.67167167167166,190.7191240869364L71.87187187187187,190.76392830634305L72.07207207207207,190.8084379787795L72.27227227227228,190.85265574149105L72.47247247247248,190.89658420127435L72.67267267267268,190.94022593490965L72.87287287287288,190.98358348958524L73.07307307307308,191.02665938331526L73.27327327327328,191.06945610535024L73.47347347347348,191.11197611658076L73.67367367367368,191.15422184993457L73.87387387387388,191.19619571076691L74.07407407407408,191.23790007724452L74.27427427427428,191.27933730072306L74.47447447447448,191.3205097061188L74.67467467467468,191.36141959227356L74.87487487487488,191.40206923231412L75.07507507507508,191.4424608740056L75.27527527527528,191.48259674009918L75.47547547547548,191.52247902867384L75.67567567567568,191.56210991347297L75.87587587587588,191.60149154423536L76.07607607607608,191.6406260470207L76.27627627627628,191.67951552453007L76.47647647647648,191.71816205642114L76.67667667667668,191.7565676996184L76.87687687687688,191.79473448861833L77.07707707707708,191.83266443578987L77.27727727727728,191.87035953166995L77.47747747747748,191.90782174525438L77.67767767767768,191.94505302428425L77.87787787787788,191.9820552955277L78.07807807807808,192.01883046505702L78.27827827827828,192.05538041852222L78.47847847847848,192.09170702141913L78.67867867867868,192.1278121193544L78.87887887887888,192.16369753830563L79.07907907907908,192.19936508487788L79.27927927927928,192.2348165465561L79.47947947947948,192.27005369195328L79.67967967967968,192.30507827105572L79.87987987987988,192.33989201546328L80.08008008008008,192.374496638627L80.28028028028028,192.40889383608248L80.48048048048048,192.44308528567987L80.68068068068068,192.47707264781053L80.88088088088088,192.51085756562978L81.08108108108108,192.5444416652769L81.28128128128128,192.57782655609122L81.48148148148148,192.61101383082536L81.68168168168168,192.6440050658549L81.88188188188188,192.67680182138542L82.08208208208208,192.70940564165585L82.28228228228228,192.74181805513905L82.48248248248248,192.77404057473967L82.68268268268268,192.8060746979885L82.88288288288288,192.83792190723437L83.08308308308308,192.8695836698332L83.28328328328328,192.90106143833376L83.48348348348348,192.93235665066146L83.68368368368368,192.96347073029892L83.88388388388388,192.99440508646387L84.08408408408408,193.0251611142848L84.28428428428428,193.05574019497377L84.48448448448448,193.08614369599667L84.68468468468468,193.11637297124128L84.88488488488488,193.1464293611826L85.08508508508508,193.17631419304612L85.28528528528528,193.20602878096818L85.4854854854855,193.23557442615464L85.68568568568568,193.26495241703702L85.88588588588588,193.29416402942624L86.08608608608608,193.32321052666435L86.28628628628628,193.3520931597742L86.48648648648648,193.38081316760656L86.68668668668668,193.40937177698575L86.88688688688688,193.4377702028526L87.08708708708708,193.4660096484059L87.28728728728728,193.49409130524145L87.4874874874875,193.52201635348956L87.68768768768768,193.54978596195005L87.88788788788789,193.5774012882261L88.08808808808809,193.60486347885552L88.28828828828829,193.63217366944068L88.48848848848849,193.65933298477643L88.68868868868869,193.6863425389762L88.88888888888889,193.71320343559643L89.08908908908909,193.7399167677594L89.28928928928929,193.76648361827415L89.4894894894895,193.79290505975578L89.68968968968969,193.81918215474323L89.88988988988989,193.84531595581538L90.09009009009009,193.87130750570546L90.29029029029029,193.89715783741423L90.49049049049049,193.92286797432106L90.69069069069069,193.94843893029415L90.8908908908909,193.9738717097987L91.09109109109109,193.99916730800393L91.29129129129129,194.02432671088872L91.4914914914915,194.04935089534544L91.69169169169169,194.07424082928287L91.8918918918919,194.0989974717273L92.09209209209209,194.1236217729226L92.29229229229229,194.14811467442883L92.49249249249249,194.1724771092195L92.69269269269269,194.19671000177766L92.8928928928929,194.22081426819054L93.09309309309309,194.244790816243L93.29329329329329,194.26864054551004L93.4934934934935,194.2923643474475L93.69369369369369,194.31596310548198L93.8938938938939,194.33943769509975L94.09409409409409,194.3627889839339L94.29429429429429,194.38601783185092L94.49449449449449,194.40912509103578L94.69469469469469,194.43211160607618L94.8948948948949,194.45497821404547L95.09509509509509,194.47772574458466L95.29529529529529,194.50035501998323L95.4954954954955,194.52286685525914L95.69569569569569,194.5452620582374L95.8958958958959,194.56754142962814L96.09609609609609,194.58970576310318L96.29629629629629,194.61175584537196L96.49649649649649,194.63369245625643L96.69669669669669,194.65551636876495L96.8968968968969,194.67722834916506L97.09709709709709,194.69882915705577L97.2972972972973,194.7203195454385L97.4974974974975,194.74170026078747L97.69769769769769,194.7629720431187L97.8978978978979,194.784135626059L98.09809809809809,194.80519173691303L98.2982982982983,194.82614109673037L98.49849849849849,194.84698442037134L98.69869869869869,194.86772241657212L98.8988988988989,194.888355788009L99.09909909909909,194.90888523136186L99.2992992992993,194.9293114373769L99.4994994994995,194.94963509092858L99.69969969969969,194.9698568710806L99.8998998998999,194.9899774511465L100.10010010010011,195.00999749874921L100.30030030030031,195.02991767587997L100.5005005005005,195.04973863895654L100.7007007007007,195.06946103888063L100.9009009009009,195.08908552109477L101.10110110110111,195.10861272563835L101.30130130130131,195.12804328720293L101.50150150150151,195.14737783518711L101.7017017017017,195.16661699375058L101.9019019019019,195.18576138186734L102.10210210210211,195.20481161337875L102.30230230230231,195.22376829704544L102.5025025025025,195.24263203659888L102.7027027027027,195.26140343079229L102.9029029029029,195.28008307345084L103.10310310310311,195.29867155352142L103.30330330330331,195.31716945512156L103.50350350350351,195.33557735758814L103.7037037037037,195.35389583552504L103.9039039039039,195.3721254588507L104.10410410410411,195.39026679284487L104.30430430430431,195.40832039819463L104.5045045045045,195.4262868310404L104.7047047047047,195.4441666430208L104.9049049049049,195.46196038131745L105.10510510510511,195.47966858869893L105.30530530530531,195.49729180356445L105.50550550550551,195.51483055998685L105.7057057057057,195.53228538775514L105.9059059059059,195.54965681241669L106.10610610610611,195.5669453553186L106.30630630630631,195.584151533649L106.5065065065065,195.60127586047747L106.7067067067067,195.6183188447954L106.90690690690691,195.6352809915554L107.10710710710711,195.65216280171074L107.30730730730731,195.66896477225407L107.50750750750751,195.6856873962557L107.7077077077077,195.70233116290154L107.90790790790791,195.71889655753043L108.10810810810811,195.73538406167134L108.30830830830831,195.75179415307986L108.5085085085085,195.7681273057744L108.7087087087087,195.784383990072L108.90890890890891,195.80056467262366L109.10910910910911,195.81666981644926L109.30930930930931,195.8326998809723L109.50950950950951,195.84865532205393L109.7097097097097,195.86453659202672L109.90990990990991,195.88034413972827L110.11011011011011,195.896078410534L110.31031031031031,195.91173984639002L110.5105105105105,195.9273288858454L110.7107107107107,195.94284596408406L110.91091091091091,195.95829151295632L111.11111111111111,195.97366596101025L111.31131131131131,195.98896973352257L111.51151151151151,196.00420325252904L111.7117117117117,196.0193669368548L111.91191191191191,196.03446120214426L112.11211211211211,196.04948646089056L112.31231231231232,196.06444312246495L112.5125125125125,196.0793315931454L112.7127127127127,196.09415227614554L112.91291291291292,196.10890557164265L113.11311311311312,196.12359187680576L113.31331331331332,196.13821158582334L113.51351351351352,196.15276508993048L113.7137137137137,196.1672527774362L113.91391391391392,196.18167503375L114.11411411411412,196.19603224140837L114.31431431431432,196.21032478010116L114.5145145145145,196.2245530266972L114.7147147147147,196.23871735527018L114.91491491491492,196.2528181371239L115.11511511511512,196.26685574081725L115.31531531531532,196.28083053218916L115.51551551551552,196.2947428743832L115.7157157157157,196.3085931278716L115.91591591591592,196.32238165047957L116.11611611611612,196.3361087974088L116.31631631631632,196.3497749212612L116.5165165165165,196.36338037206204L116.7167167167167,196.376925497283L116.91691691691692,196.39041064186492L117.11711711711712,196.40383614824032L117.31731731731732,196.4172023563558L117.51751751751752,196.430509603694L117.7177177177177,196.44375822529543L117.91791791791792,196.45694855378014L118.11811811811812,196.470080919369L118.31831831831832,196.48315564990494L118.5185185185185,196.49617307087382L118.7187187187187,196.5091335054252L118.91891891891892,196.52203727439274L119.11911911911912,196.53488469631455L119.31931931931932,196.54767608745328L119.51951951951952,196.56041176181594L119.71971971971973,196.5730920311736L119.91991991991992,196.58571720508073L120.12012012012012,196.59828759089467L120.32032032032032,196.61080349379446L120.5205205205205,196.6232652167999L120.72072072072073,196.63567306079003L120.92092092092092,196.64802732452173L121.12112112112112,196.66032830464806L121.32132132132132,196.67257629573615L121.52152152152152,196.68477159028535L121.72172172172174,196.6969144787448L121.92192192192192,196.7090052495311L122.12212212212212,196.72104418904553L122.32232232232232,196.7330315816915L122.52252252252251,196.74496770989137L122.72272272272274,196.75685285410333L122.92292292292292,196.76868729283817L123.12312312312312,196.78047130267572L123.32332332332332,196.7922051582812L123.52352352352352,196.8038891324216L123.72372372372374,196.81552349598135L123.92392392392392,196.82710851797847L124.12412412412412,196.8386444655802L124.32432432432432,196.8501316041185L124.52452452452451,196.8615701971055L124.72472472472474,196.87296050624877L124.92492492492492,196.88430279146633L125.12512512512512,196.8955973109016L125.32532532532532,196.9068443209383L125.52552552552552,196.91804407621495L125.72572572572574,196.92919682963952L125.92592592592592,196.94030283240366L126.12612612612612,196.95136233399705L126.32632632632632,196.96237558222137L126.52652652652651,196.97334282320423L126.72672672672674,196.9842643014132L126.92692692692692,196.99514025966914L127.12712712712712,197.00597093916002L127.32732732732732,197.01675657945415L127.52752752752752,197.0274974185136L127.72772772772774,197.03819369270724L127.92792792792793,197.04884563682376L128.12812812812814,197.05945348408463L128.32832832832833,197.07001746615686L128.5285285285285,197.08053781316565L128.72872872872873,197.09101475370682L128.92892892892894,197.1014485148593L129.12912912912913,197.11183932219745L129.3293293293293,197.12218739980315L129.52952952952953,197.13249297027784L129.72972972972974,197.14275625475457L129.92992992992993,197.1529774729097L130.13013013013014,197.1631568429747L130.33033033033033,197.17329458174763L130.5305305305305,197.18339090460478L130.73073073073073,197.19344602551195L130.93093093093094,197.2034601570357L131.13113113113113,197.21343351035463L131.3313313313313,197.2233662952703L131.53153153153156,197.23325872021832L131.73173173173174,197.2431109922791L131.93193193193193,197.2529233171886L132.13213213213214,197.26269589934898L132.33233233233233,197.2724289418394L132.53253253253254,197.28212264642593L132.73273273273273,197.2917772135725L132.93293293293294,197.3013928424507L133.13313313313313,197.31096973095023L133.33333333333331,197.32050807568876L133.53353353353356,197.3300080720221L133.73373373373374,197.3394699140539L133.93393393393393,197.34889379464553L134.13413413413414,197.35827990542577L134.33433433433433,197.36762843680046L134.53453453453454,197.37693957796188L134.73473473473473,197.38621351689832L134.93493493493494,197.39545044040338L135.13513513513513,197.40465053408525L135.33533533533532,197.4138139823758L135.53553553553556,197.4229409685398L135.73573573573574,197.43203167468377L135.93593593593593,197.44108628176508L136.13613613613614,197.45010496960066L136.33633633633633,197.45908791687586L136.53653653653654,197.468035301153L136.73673673673673,197.47694729888013L136.93693693693695,197.48582408539949L137.13713713713713,197.49466583495587L137.33733733733732,197.50347272070516L137.53753753753756,197.5122449147225L137.73773773773775,197.52098258801055L137.93793793793793,197.52968591050774L138.13813813813815,197.5383550510961L138.33833833833833,197.54699017760956L138.53853853853855,197.55559145684163L138.73873873873873,197.56415905455341L138.93893893893895,197.57269313548136L139.13913913913913,197.58119386334494L139.33933933933932,197.58966140085434L139.53953953953956,197.59809590971807L139.73973973973975,197.6064975506504L139.93993993993993,197.6148664833789L140.14014014014015,197.62320286665172L140.34034034034033,197.63150685824507L140.54054054054055,197.63977861497025L140.74074074074073,197.648018292681L140.94094094094095,197.6562260462807L141.14114114114113,197.66440202972913L141.34134134134132,197.67254639604977L141.54154154154156,197.68065929733666L141.74174174174175,197.68874088476113L141.94194194194193,197.6967913085789L142.14214214214215,197.7048107181365L142.34234234234233,197.71279926187833L142.54254254254255,197.72075708735292L142.74274274274273,197.72868434121992L142.94294294294295,197.73658116925623L143.14314314314313,197.7444477163628L143.34334334334332,197.75228412657083L143.54354354354356,197.7600905430482L143.74374374374375,197.7678671081058L143.94394394394394,197.7756139632038L144.14414414414415,197.7833312489577L144.34434434434436,197.7910191051446L144.54454454454455,197.7986776707093L144.74474474474474,197.8063070837703L144.94494494494495,197.8139074816257L145.14514514514514,197.82147900075933L145.34534534534535,197.8290217768464L145.54554554554556,197.8365359447595L145.74574574574575,197.84402163857436L145.94594594594594,197.85147899157556L146.14614614614615,197.85890813626216L146.34634634634637,197.86630920435337L146.54654654654655,197.87368232679427L146.74674674674674,197.8810276337611L146.94694694694695,197.88834525466697L147.14714714714714,197.89563531816728L147.34734734734735,197.90289795216495L147.54754754754757,197.91013328381592L147.74774774774775,197.91734143953457L147.94794794794794,197.9245225449987L148.14814814814815,197.931676725155L148.34834834834837,197.93880410422406L148.54854854854855,197.9459048057057L148.74874874874874,197.95297895238383L148.94894894894895,197.96002666633171L149.14914914914914,197.9670480689168L149.34934934934935,197.97404328080574L149.54954954954957,197.9810124219695L149.74974974974975,197.98795561168788L149.94994994994994,197.99487296855474L150.15015015015015,198.00176461048252L150.35035035035037,198.00863065470713L150.55055055055055,198.01547121779265L150.75075075075074,198.02228641563605L150.95095095095095,198.02907636347172L151.15115115115114,198.03584117587627L151.35135135135135,198.04258096677293L151.55155155155157,198.04929584943613L151.75175175175175,198.05598593649609L151.95195195195194,198.06265133994313L152.15215215215215,198.06929217113216L152.35235235235237,198.0759085407871L152.55255255255256,198.0825005590052L152.75275275275274,198.08906833526137L152.95295295295296,198.09561197841234L153.15315315315314,198.10213159670116L153.35335335335336,198.10862729776113L153.55355355355357,198.11509918862018L153.75375375375376,198.12154737570492L153.95395395395394,198.1279719648448L154.15415415415416,198.13437306127605L154.35435435435437,198.14075076964596L154.55455455455456,198.14710519401672L154.75475475475474,198.15343643786935L154.95495495495496,198.1597446041078L155.15515515515514,198.16602979506283L155.35535535535536,198.1722921124958L155.55555555555557,198.1785316576026L155.75575575575576,198.18474853101748L155.95595595595594,198.19094283281683L156.15615615615616,198.1971146625228L156.35635635635637,198.2032641191073L156.55655655655656,198.20939130099552L156.75675675675674,198.2154963060696L156.95695695695696,198.22157923167237L157.15715715715717,198.2276401746108L157.35735735735736,198.2336792311598L157.55755755755757,198.23969649706567L157.75775775775776,198.24569206754947L157.95795795795794,198.2516660373109L158.15815815815816,198.2576185005314L158.35835835835837,198.26354955087777L158.55855855855856,198.2694592815056L158.75875875875874,198.27534778506256L158.95895895895896,198.28121515369193L159.15915915915917,198.28706147903574L159.35935935935936,198.29288685223827L159.55955955955957,198.29869136394916L159.75975975975976,198.30447510432685L159.95995995995995,198.31023816304165L160.16016016016016,198.3159806292791L160.36036036036037,198.32170259174305L160.56056056056056,198.32740413865884L160.76076076076075,198.33308535777644L160.96096096096096,198.33874633637367L161.16116116116117,198.34438716125908L161.36136136136136,198.3500079187752L161.56156156156158,198.35560869480145L161.76176176176176,198.36118957475725L161.96196196196195,198.366750643605L162.16216216216216,198.372291985853L162.36236236236238,198.3778136855584L162.56256256256256,198.38331582633023L162.76276276276275,198.3887984913322L162.96296296296296,198.39426176328553L163.16316316316318,198.399705724472L163.36336336336336,198.40513045673666L163.56356356356358,198.41053604149056L163.76376376376376,198.41592255971375L163.96396396396395,198.42129009195793L164.16416416416416,198.42663871834915L164.36436436436438,198.43196851859074L164.56456456456456,198.43727957196575L164.76476476476475,198.44257195733988L164.96496496496496,198.447845753164L165.16516516516518,198.45310103747684L165.36536536536536,198.4583378879077L165.56556556556558,198.46355638167893L165.76576576576576,198.46875659560857L165.96596596596595,198.47393860611297L166.16616616616616,198.47910248920923L166.36636636636638,198.4842483205179L166.56656656656656,198.48937617526533L166.76676676676675,198.49448612828624L166.96696696696696,198.49957825402618L167.16716716716718,198.504652626544L167.36736736736736,198.5097093195143L167.56756756756758,198.51474840622973L167.76776776776777,198.51976995960365L167.96796796796795,198.52477405217226L168.16816816816817,198.52976075609706L168.36836836836838,198.53473014316728L168.56856856856857,198.53968228480198L168.76876876876875,198.54461725205275L168.96896896896897,198.54953511560558L169.16916916916918,198.5544359457834L169.36936936936937,198.55931981254838L169.56956956956958,198.56418678550395L169.76976976976977,198.56903693389717L169.96996996996998,198.5738703266211L170.17017017017017,198.57868703221658L170.37037037037038,198.58348711887487L170.57057057057057,198.58827065443953L170.77077077077075,198.5930377064087L170.970970970971,198.5977883419371L171.17117117117118,198.60252262783837L171.37137137137137,198.6072406305869L171.57157157157158,198.61194241632012L171.77177177177177,198.61662805084055L171.97197197197198,198.6212975996178L172.17217217217217,198.62595112779056L172.37237237237238,198.6305887001688L172.57257257257257,198.63521038123565L172.77277277277275,198.6398162351494L172.97297297297297,198.64440632574556L173.17317317317318,198.64898071653877L173.37337337337337,198.6535394707248L173.57357357357358,198.6580826511825L173.77377377377377,198.66261032047555L173.97397397397398,198.66712254085465L174.17417417417417,198.6716193742593L174.37437437437438,198.6761008823196L174.57457457457457,198.6805671263582L174.77477477477476,198.68501816739226L174.974974974975,198.68945406613508L175.17517517517518,198.6938748829982L175.37537537537537,198.69828067809286L175.57557557557558,198.70267151123218L175.77577577577577,198.70704744193276L175.97597597597598,198.71140852941647L176.17617617617617,198.7157548326123L176.37637637637638,198.72008641015796L176.57657657657657,198.72440332040188L176.77677677677676,198.7287056214046L176.97697697697697,198.73299337094085L177.17717717717719,198.737266626501L177.37737737737737,198.7415254452928L177.57757757757759,198.74576988424326L177.77777777777777,198.75L177.977977977978,198.75421584893317L178.17817817817817,198.75841748713697L178.3783783783784,198.7626049704313L178.57857857857857,198.76677835436354L178.77877877877876,198.77093769420986L178.978978978979,198.7750830449771L179.1791791791792,198.77921446140422L179.37937937937937,198.78333199796396L179.5795795795796,198.78743570886428L179.77977977977977,198.79152564805008L179.97997997998,198.79560186920472L180.18018018018017,198.79966442575133L180.3803803803804,198.80371337085475L180.58058058058057,198.8077487574226L180.78078078078076,198.81177063810713L180.98098098098097,198.81577906530657L181.1811811811812,198.81977409116664L181.38138138138137,198.82375576758187L181.5815815815816,198.8277241461974L181.7817817817818,198.83167927841015L181.981981981982,198.83562121537034L182.18218218218217,198.839550007983L182.3823823823824,198.84346570690929L182.58258258258257,198.84736836256792L182.7827827827828,198.85125802513664L182.982982982983,198.85513474455368L183.1831831831832,198.85899857051888L183.38338338338338,198.86284955249533L183.5835835835836,198.8666877397106L183.7837837837838,198.87051318115817L183.983983983984,198.87432592559873L184.18418418418418,198.8781260215615L184.3843843843844,198.88191351734568L184.58458458458458,198.88568846102157L184.7847847847848,198.8894509004321L184.98498498498498,198.893200883194L185.1851851851852,198.89693845669908L185.38538538538538,198.9006636681156L185.5855855855856,198.90437656438957L185.7857857857858,198.90807719224583L185.985985985986,198.9117655981895L186.18618618618618,198.91544182850726L186.3863863863864,198.9191059292683L186.58658658658658,198.92275794632596L186.7867867867868,198.92639792531867L186.986986986987,198.93002591167118L187.1871871871872,198.93364195059598L187.38738738738738,198.93724608709428L187.5875875875876,198.94083836595732L187.7877877877878,198.94441883176748L187.987987987988,198.94798752889955L188.18818818818818,198.95154450152185L188.3883883883884,198.95508979359738L188.58858858858858,198.95862344888502L188.7887887887888,198.9621455109406L188.98898898898898,198.9656560231181L189.1891891891892,198.9691550285708L189.38938938938938,198.97264257025242L189.5895895895896,198.97611869091804L189.7897897897898,198.97958343312553L189.98998998999,198.98303683923635L190.19019019019018,198.98647895141687L190.3903903903904,198.98990981163936L190.59059059059058,198.99332946168303L190.7907907907908,198.99673794313514L190.990990990991,199.0001352973922L191.1911911911912,199.00352156566078L191.39139139139138,199.00689678895873L191.5915915915916,199.01026100811623L191.7917917917918,199.01361426377673L191.991991991992,199.01695659639807L192.19219219219218,199.0202880462535L192.3923923923924,199.02360865343263L192.59259259259258,199.02691845784247L192.7927927927928,199.03021749920848L192.99299299299298,199.0335058170756L193.1931931931932,199.03678345080908L193.39339339339338,199.04005043959563L193.5935935935936,199.04330682244432L193.7937937937938,199.04655263818762L193.993993993994,199.04978792548224L194.19419419419418,199.05301272281025L194.3943943943944,199.05622706847987L194.5945945945946,199.0594310006266L194.7947947947948,199.062624557214L194.994994994995,199.06580777603477L195.1951951951952,199.06898069471154L195.39539539539538,199.07214335069781L195.5955955955956,199.07529578127907L195.7957957957958,199.07843802357343L195.995995995996,199.08157011453272L196.19619619619618,199.08469209094332L196.3963963963964,199.08780398942702L196.5965965965966,199.09090584644204L196.7967967967968,199.09399769828377L196.99699699699698,199.0970795810857L197.1971971971972,199.1001515308203L197.39739739739738,199.10321358329998L197.5975975975976,199.10626577417767L197.7977977977978,199.10930813894808L197.997997997998,199.11234071294814L198.19819819819818,199.1153635313582L198.3983983983984,199.11837662920266L198.5985985985986,199.1213800413508L198.7987987987988,199.12437380251765L198.998998998999,199.12735794726498L199.1991991991992,199.13033251000186L199.39939939939939,199.13329752498552L199.5995995995996,199.13625302632238L199.7997997997998,199.1391990479686L200,199.14213562373095" stroke="#f58518" stroke-width="2"/></g></g><path class="foreground" aria-hidden="true" d="" display="none"/></g></g><g class="mark-group role-legend" role="graphics-symbol" aria-roledescription="legend" aria-label="Symbol legend for stroke color with 2 values: ð‘“, convergent, ð‘“Â², divergent"><g transform="translate(218,0)"><path class="background" aria-hidden="true" d="M0,0h80v24h-80Z" pointer-events="none"/><g><g class="mark-group role-legend-entry"><g transform="translate(0,0)"><path class="background" aria-hidden="true" d="M0,0h0v0h0Z" pointer-events="none"/><g><g class="mark-group role-scope" role="graphics-object" aria-roledescription="group mark container"><g transform="translate(0,0)"><path class="background" aria-hidden="true" d="M0,0h80v11h-80Z" pointer-events="none" opacity="1"/><g><g class="mark-symbol role-legend-symbol" pointer-events="none"><path transform="translate(6,6)" d="M-5,0L5,0" stroke="#4c78a8" stroke-width="1.5" opacity="1"/></g><g class="mark-text role-legend-label" pointer-events="none"><text text-anchor="start" transform="translate(16,9)" font-family="sans-serif" font-size="10px" fill="#000" opacity="1">ð‘“, convergent</text></g></g><path class="foreground" aria-hidden="true" d="" pointer-events="none" display="none"/></g><g transform="translate(0,13)"><path class="background" aria-hidden="true" d="M0,0h80v11h-80Z" pointer-events="none" opacity="1"/><g><g class="mark-symbol role-legend-symbol" pointer-events="none"><path transform="translate(6,6)" d="M-5,0L5,0" stroke="#f58518" stroke-width="1.5" opacity="1"/></g><g class="mark-text role-legend-label" pointer-events="none"><text text-anchor="start" transform="translate(16,9)" font-family="sans-serif" font-size="10px" fill="#000" opacity="1">ð‘“Â², divergent</text></g></g><path class="foreground" aria-hidden="true" d="" pointer-events="none" display="none"/></g></g></g><path class="foreground" aria-hidden="true" d="" pointer-events="none" display="none"/></g></g></g><path class="foreground" aria-hidden="true" d="" pointer-events="none" display="none"/></g></g></g><path class="foreground" aria-hidden="true" d="" display="none"/></g></g></g><defs><clipPath id="clip1"><rect x="0" y="0" width="200" height="200"/></clipPath><clipPath id="clip2"><rect x="0" y="0" width="200" height="200"/></clipPath></defs></svg>
