<?xml version="1.0" encoding="utf-8"?>
<!DOCTYPE svg PUBLIC "-//W3C//DTD SVG 1.1//EN" "http://www.w3.org/Graphics/SVG/1.1/DTD/svg11.dtd">
<svg xmlns="http://www.w3.org/2000/svg" xmlns:xlink="http://www.w3.org/1999/xlink" version="1.1" class="marks" width="344" height="242" viewBox="0 0 344 242"><rect width="344" height="242" fill="white"/><g fill="none" stroke-miterlimit="10" transform="translate(38,5)"><g class="mark-group role-frame root" role="graphics-object" aria-roledescription="group mark container"><g transform="translate(0,0)"><path class="background" aria-hidden="true" d="M0.5,0.5h200v200h-200Z" stroke="#ddd"/><g><g class="mark-group role-axis" aria-hidden="true"><g transform="translate(0.5,200.5)"><path class="background" aria-hidden="true" d="M0,0h0v0h0Z" pointer-events="none"/><g><g class="mark-rule role-axis-grid" pointer-events="none"><line transform="translate(0,-200)" x2="0" y2="200" stroke="#ddd" stroke-width="1" opacity="1"/><line transform="translate(33,-200)" x2="0" y2="200" stroke="#ddd" stroke-width="1" opacity="1"/><line transform="translate(67,-200)" x2="0" y2="200" stroke="#ddd" stroke-width="1" opacity="1"/><line transform="translate(100,-200)" x2="0" y2="200" stroke="#ddd" stroke-width="1" opacity="1"/><line transform="translate(133,-200)" x2="0" y2="200" stroke="#ddd" stroke-width="1" opacity="1"/><line transform="translate(167,-200)" x2="0" y2="200" stroke="#ddd" stroke-width="1" opacity="1"/><line transform="translate(200,-200)" x2="0" y2="200" stroke="#ddd" stroke-width="1" opacity="1"/></g></g><path class="foreground" aria-hidden="true" d="" pointer-events="none" display="none"/></g></g><g class="mark-group role-axis" aria-hidden="true"><g transform="translate(0.5,0.5)"><path class="background" aria-hidden="true" d="M0,0h0v0h0Z" pointer-events="none"/><g><g class="mark-rule role-axis-grid" pointer-events="none"><line transform="translate(0,200)" x2="200" y2="0" stroke="#ddd" stroke-width="1" opacity="1"/><line transform="translate(0,164)" x2="200" y2="0" stroke="#ddd" stroke-width="1" opacity="1"/><line transform="translate(0,127)" x2="200" y2="0" stroke="#ddd" stroke-width="1" opacity="1"/><line transform="translate(0,91)" x2="200" y2="0" stroke="#ddd" stroke-width="1" opacity="1"/><line transform="translate(0,55)" x2="200" y2="0" stroke="#ddd" stroke-width="1" opacity="1"/><line transform="translate(0,18)" x2="200" y2="0" stroke="#ddd" stroke-width="1" opacity="1"/></g></g><path class="foreground" aria-hidden="true" d="" pointer-events="none" display="none"/></g></g><g class="mark-group role-axis" role="graphics-symbol" aria-roledescription="axis" aria-label="X-axis titled 'x' for a linear scale with values from âˆ’30 to 30"><g transform="translate(0.5,200.5)"><path class="background" aria-hidden="true" d="M0,0h0v0h0Z" pointer-events="none"/><g><g class="mark-rule role-axis-tick" pointer-events="none"><line transform="translate(0,0)" x2="0" y2="5" stroke="#888" stroke-width="1" opacity="1"/><line transform="translate(33,0)" x2="0" y2="5" stroke="#888" stroke-width="1" opacity="1"/><line transform="translate(67,0)" x2="0" y2="5" stroke="#888" stroke-width="1" opacity="1"/><line transform="translate(100,0)" x2="0" y2="5" stroke="#888" stroke-width="1" opacity="1"/><line transform="translate(133,0)" x2="0" y2="5" stroke="#888" stroke-width="1" opacity="1"/><line transform="translate(167,0)" x2="0" y2="5" stroke="#888" stroke-width="1" opacity="1"/><line transform="translate(200,0)" x2="0" y2="5" stroke="#888" stroke-width="1" opacity="1"/></g><g class="mark-text role-axis-label" pointer-events="none"><text text-anchor="start" transform="translate(0,15)" font-family="sans-serif" font-size="10px" fill="#000" opacity="1">âˆ’30</text><text text-anchor="middle" transform="translate(33.33333333333333,15)" font-family="sans-serif" font-size="10px" fill="#000" opacity="1">âˆ’20</text><text text-anchor="middle" transform="translate(66.66666666666666,15)" font-family="sans-serif" font-size="10px" fill="#000" opacity="1">âˆ’10</text><text text-anchor="middle" transform="translate(100,15)" font-family="sans-serif" font-size="10px" fill="#000" opacity="1">0</text><text text-anchor="middle" transform="translate(133.33333333333331,15)" font-family="sans-serif" font-size="10px" fill="#000" opacity="1">10</text><text text-anchor="middle" transform="translate(166.66666666666669,15)" font-family="sans-serif" font-size="10px" fill="#000" opacity="1">20</text><text text-anchor="end" transform="translate(200,15)" font-family="sans-serif" font-size="10px" fill="#000" opacity="1">30</text></g><g class="mark-rule role-axis-domain" pointer-events="none"><line transform="translate(0,0)" x2="200" y2="0" stroke="#888" stroke-width="1" opacity="1"/></g><g class="mark-text role-axis-title" pointer-events="none"><text text-anchor="middle" transform="translate(100,30)" font-family="sans-serif" font-size="11px" font-weight="bold" fill="#000" opacity="1">x</text></g></g><path class="foreground" aria-hidden="true" d="" pointer-events="none" display="none"/></g></g><g class="mark-group role-axis" role="graphics-symbol" aria-roledescription="axis" aria-label="Y-axis titled 'y' for a linear scale with values from 0.0 to 1.1"><g transform="translate(0.5,0.5)"><path class="background" aria-hidden="true" d="M0,0h0v0h0Z" pointer-events="none"/><g><g class="mark-rule role-axis-tick" pointer-events="none"><line transform="translate(0,200)" x2="-5" y2="0" stroke="#888" stroke-width="1" opacity="1"/><line transform="translate(0,164)" x2="-5" y2="0" stroke="#888" stroke-width="1" opacity="1"/><line transform="translate(0,127)" x2="-5" y2="0" stroke="#888" stroke-width="1" opacity="1"/><line transform="translate(0,91)" x2="-5" y2="0" stroke="#888" stroke-width="1" opacity="1"/><line transform="translate(0,55)" x2="-5" y2="0" stroke="#888" stroke-width="1" opacity="1"/><line transform="translate(0,18)" x2="-5" y2="0" stroke="#888" stroke-width="1" opacity="1"/></g><g class="mark-text role-axis-label" pointer-events="none"><text text-anchor="end" transform="translate(-7,203)" font-family="sans-serif" font-size="10px" fill="#000" opacity="1">0.0</text><text text-anchor="end" transform="translate(-7,166.63636363636363)" font-family="sans-serif" font-size="10px" fill="#000" opacity="1">0.2</text><text text-anchor="end" transform="translate(-7,130.27272727272725)" font-family="sans-serif" font-size="10px" fill="#000" opacity="1">0.4</text><text text-anchor="end" transform="translate(-7,93.90909090909092)" font-family="sans-serif" font-size="10px" fill="#000" opacity="1">0.6</text><text text-anchor="end" transform="translate(-7,57.54545454545454)" font-family="sans-serif" font-size="10px" fill="#000" opacity="1">0.8</text><text text-anchor="end" transform="translate(-7,21.181818181818187)" font-family="sans-serif" font-size="10px" fill="#000" opacity="1">1.0</text></g><g class="mark-rule role-axis-domain" pointer-events="none"><line transform="translate(0,200)" x2="0" y2="-200" stroke="#888" stroke-width="1" opacity="1"/></g><g class="mark-text role-axis-title" pointer-events="none"><text text-anchor="middle" transform="translate(-30,98)" font-family="sans-serif" font-size="11px" font-weight="bold" fill="#000" opacity="1">y</text></g></g><path class="foreground" aria-hidden="true" d="" pointer-events="none" display="none"/></g></g><g class="mark-group role-scope pathgroup" role="graphics-object" aria-roledescription="group mark container"><g transform="translate(0,0)"><path class="background" aria-hidden="true" d="M0,0h200v200h-200Z"/><g><g class="mark-line role-mark marks" clip-path="url(#clip1)" role="graphics-object" aria-roledescription="line mark container"><path aria-label="x: âˆ’30; y: 0.0333333333333; name: ğ‘“, divergent" role="graphics-symbol" aria-roledescription="line mark" d="M0,193.93939393939394L0.8032128514056207,193.8903202061097L1.6064257028112414,193.8404452690167L2.409638554216862,193.7897493453049L3.2128514056224944,193.73821199547342L4.016064257028115,193.68581209585395L4.819277108433736,193.632527809743L5.622489959839356,193.57833655705997L6.425702811244976,193.52321498244245L7.228915662650598,193.46713892168438L8.03212851405623,193.41008336641525L8.83534136546185,193.3520224269123L9.638554216867472,193.2929292929293L10.441767068273093,193.23277619241745L11.244979919678713,193.17153434800494L12.048192771084333,193.10917393109176L12.851405622489967,193.04566401340594L13.654618473895585,192.98097251585625L14.457831325301207,192.91506615450277L15.261044176706829,192.8479103834554L16.064257028112447,192.77946933449326L16.86746987951807,192.709705753184L17.67068273092369,192.63858093126387L18.473895582329323,192.56605463502015L19.277108433734945,192.49208502939848L20.080321285140563,192.41662859753313L20.883534136546185,192.3396400553761L21.686746987951803,192.26107226107226L22.489959839357425,192.18087611869996L23.293172690763058,192.09900047596383L24.096385542168676,192.01539201539202L24.899598393574298,191.92999513855128L25.702811244979916,191.84275184275182L26.506024096385538,191.75360158966717L27.30923694779116,191.6624811652436L28.11244979919678,191.56932453021838L28.915662650602414,191.47406266050334L29.718875502008036,191.37662337662337L30.522088353413658,191.27693116132423L31.32530120481928,191.17490696438065L32.128514056224894,191.07046799354492L32.93172690763051,190.9635274904736L33.734939759036145,190.85399449035813L34.53815261044177,190.74177356385945L35.34136546184739,190.62676453980802L36.144578313253014,190.5088622069754L36.94779116465863,190.38795599305155L37.75100401606426,190.26392961876832L38.55421686746989,190.13666072489602L39.35742971887551,190.00602046959662L40.16064257028113,189.87187309334962L40.963855421686745,189.73407544836115L41.76706827309237,189.59247648902823L42.57028112449799,189.446916719644L43.37349397590361,189.2972275950999L44.17670682730924,189.14323086984956L44.979919678714865,188.98473788984737L45.78313253012048,188.82154882154882L46.5863453815261,188.65345181134654L47.38955823293172,188.48022206800832L48.19277108433735,188.3016208597604L48.99598393574297,188.11739441660703L49.79919678714859,187.9272727272727L50.602409638554214,187.73096821877309L51.40562248995983,187.52817430503382L52.20883534136546,187.31856378915205L53.01204819277109,187.1017871017871L53.81526104417671,186.87747035573125L54.61847389558232,186.64521319388575L55.42168674698795,186.4045864045864L56.22489959839358,186.15512927439534L57.028112449799195,185.8963466440102L57.83132530120483,185.62770562770564L58.63453815261044,185.3486319505737L59.43775100401607,185.05850585058505L60.24096385542168,184.7566574839302L61.044176706827315,184.4423617619494L61.84738955823293,184.11483253588517L62.65060240963856,183.77321603128055L63.45381526104419,183.41658341658342L64.25702811244979,183.04392236976508L65.06024096385542,182.6541274817137L65.86345381526104,182.24598930481284L66.66666666666666,181.8181818181818L67.46987951807229,181.3692480359147L68.27309236947791,180.897583429229L69.07630522088354,180.4014167650531L69.87951807228914,179.87878787878788L70.68273092369478,179.32752179327522L71.4859437751004,178.7451984635083L72.28915662650603,178.12911725955206L73.09236947791166,177.4762550881954L73.89558232931726,176.78321678321677L74.6987951807229,176.04617604617604L75.50200803212851,175.2608047690015L76.30522088353415,174.42218798151L77.10843373493977,173.52472089314196L77.91164658634538,172.5619834710744L78.71485943775099,171.52658662092625L79.51807228915662,170.40998217468805L80.32128514056225,169.2022263450835L81.12449799196787,167.8916827852998L81.92771084337349,166.46464646464648L82.73092369477911,164.9048625792812L83.53413654618474,163.1929046563193L84.33734939759037,161.30536130536132L85.14056224899598,159.21375921375923L85.94377510040161,156.88311688311688L86.74698795180723,154.26997245179064L87.55020080321285,151.31964809384164L88.35341365461848,147.9623824451411L89.1566265060241,144.1077441077441L89.95983935742973,139.63636363636365L90.76305220883535,134.38735177865613L91.56626506024097,128.13852813852816L92.3694779116466,120.57416267942584L93.1726907630522,111.22994652406418L93.97590361445782,99.39393939393939L94.77911646586344,83.91608391608392L95.58232931726907,62.809917355371915L96.3855421686747,32.32323232323233L97.18875502008032,18.181818181818187L97.99196787148594,18.181818181818187L98.79518072289156,18.181818181818187L99.59839357429718,18.181818181818187L100.40160642570282,18.181818181818187L101.20481927710843,18.181818181818187L102.00803212851406,18.181818181818187L102.81124497991966,18.181818181818187L103.6144578313253,32.32323232323233L104.41767068273091,62.809917355371915L105.22088353413655,83.91608391608392L106.02409638554218,99.39393939393939L106.82730923694778,111.22994652406418L107.63052208835342,120.57416267942584L108.43373493975903,128.13852813852816L109.23694779116467,134.38735177865613L110.04016064257027,139.63636363636365L110.8433734939759,144.1077441077441L111.64658634538152,147.9623824451411L112.44979919678715,151.31964809384164L113.25301204819279,154.26997245179064L114.05622489959839,156.88311688311688L114.85943775100402,159.21375921375923L115.66265060240963,161.30536130536132L116.46586345381526,163.1929046563193L117.26907630522088,164.9048625792812L118.07228915662651,166.46464646464648L118.87550200803214,167.8916827852998L119.67871485943775,169.2022263450835L120.48192771084338,170.40998217468805L121.285140562249,171.52658662092625L122.08835341365463,172.5619834710744L122.89156626506023,173.52472089314196L123.69477911646587,174.42218798151L124.4979919678715,175.2608047690015L125.30120481927712,176.04617604617604L126.10441767068275,176.78321678321677L126.90763052208835,177.4762550881954L127.71084337349399,178.12911725955206L128.51405622489958,178.7451984635083L129.3172690763052,179.32752179327522L130.12048192771084,179.87878787878788L130.92369477911646,180.4014167650531L131.72690763052208,180.897583429229L132.53012048192772,181.3692480359147L133.33333333333331,181.8181818181818L134.13654618473893,182.24598930481284L134.93975903614458,182.6541274817137L135.7429718875502,183.04392236976508L136.54618473895582,183.41658341658342L137.34939759036143,183.77321603128055L138.15261044176708,184.11483253588517L138.9558232931727,184.4423617619494L139.75903614457832,184.7566574839302L140.56224899598394,185.05850585058505L141.36546184738955,185.3486319505737L142.16867469879517,185.62770562770564L142.9718875502008,185.8963466440102L143.77510040160644,186.15512927439534L144.57831325301206,186.4045864045864L145.38152610441767,186.64521319388575L146.1847389558233,186.87747035573125L146.9879518072289,187.1017871017871L147.79116465863453,187.31856378915205L148.59437751004018,187.52817430503382L149.3975903614458,187.73096821877309L150.2008032128514,187.9272727272727L151.00401606425703,188.11739441660703L151.80722891566265,188.3016208597604L152.6104417670683,188.48022206800832L153.41365461847388,188.65345181134654L154.21686746987953,188.82154882154882L155.02008032128515,188.98473788984737L155.82329317269077,189.14323086984956L156.62650602409641,189.2972275950999L157.42971887550203,189.446916719644L158.23293172690762,189.59247648902823L159.03614457831324,189.73407544836115L159.83935742971886,189.87187309334962L160.6425702811245,190.00602046959662L161.4457831325301,190.13666072489602L162.24899598393574,190.26392961876832L163.05220883534136,190.38795599305155L163.85542168674698,190.5088622069754L164.6586345381526,190.62676453980802L165.46184738955822,190.74177356385945L166.26506024096386,190.85399449035813L167.06827309236948,190.9635274904736L167.8714859437751,191.07046799354492L168.67469879518075,191.17490696438065L169.47791164658634,191.27693116132423L170.28112449799195,191.37662337662337L171.08433734939757,191.47406266050334L171.88755020080322,191.56932453021838L172.69076305220884,191.6624811652436L173.49397590361446,191.75360158966717L174.2971887550201,191.84275184275182L175.1004016064257,191.92999513855128L175.9036144578313,192.01539201539202L176.70682730923696,192.09900047596383L177.51004016064257,192.18087611869996L178.3132530120482,192.26107226107226L179.1164658634538,192.3396400553761L179.91967871485946,192.41662859753313L180.72289156626508,192.49208502939848L181.52610441767067,192.56605463502015L182.32931726907634,192.63858093126387L183.13253012048193,192.709705753184L183.93574297188755,192.77946933449326L184.7389558232932,192.8479103834554L185.54216867469881,192.91506615450277L186.3453815261044,192.98097251585625L187.14859437751002,193.04566401340594L187.95180722891567,193.10917393109176L188.7550200803213,193.17153434800494L189.55823293172688,193.23277619241745L190.36144578313252,193.2929292929293L191.16465863453814,193.3520224269123L191.96787148594376,193.41008336641525L192.7710843373494,193.46713892168438L193.57429718875503,193.52321498244245L194.37751004016064,193.57833655705997L195.18072289156626,193.632527809743L195.98393574297188,193.68581209585395L196.78714859437753,193.73821199547342L197.59036144578312,193.7897493453049L198.39357429718876,193.8404452690167L199.19678714859438,193.8903202061097L200,193.93939393939394" stroke="#4c78a8" stroke-width="2"/></g></g><path class="foreground" aria-hidden="true" d="" display="none"/></g><g transform="translate(0,0)"><path class="background" aria-hidden="true" d="M0,0h200v200h-200Z"/><g><g class="mark-line role-mark marks" clip-path="url(#clip2)" role="graphics-object" aria-roledescription="line mark container"><path aria-label="x: âˆ’30; y: 0.00111111111111; name: ğ‘“Â², convergent" role="graphics-symbol" aria-roledescription="line mark" d="M0,199.7979797979798L0.8032128514056207,199.7946949704887L1.6064257028112414,199.79132937033813L2.409638554216862,199.78788032743222L3.2128514056224944,199.784345060425L4.016064257028115,199.78072067111125L4.819277108433736,199.77700413848467L5.622489959839356,199.77319231244084L6.425702811244976,199.7692819070999L7.228915662650598,199.76526949372285L8.03212851405623,199.7611514931932L8.83534136546185,199.75692416803247L9.638554216867472,199.75258361391695L10.441767068273093,199.74812575065948L11.244979919678713,199.74354631261738L12.048192771084333,199.7388408384843L12.851405622489967,199.7340046604206L13.654618473895585,199.7290328924726L14.457831325301207,199.7239204182271L15.261044176706829,199.71866187764303L16.064257028112447,199.71325165299663L16.86746987951807,199.70768385387163L17.67068273092369,199.70195230111946L18.473895582329323,199.6960505097077L19.277108433734945,199.68997167036818L20.080321285140563,199.68370862994735L20.883534136546185,199.6772538703534L21.686746987951803,199.6705994859841L22.489959839357425,199.66373715950886L23.293172690763058,199.65665813586648L24.096385542168676,199.64935319432672L24.899598393574298,199.64181261844908L25.702811244979916,199.6340261637559L26.506024096385538,199.62598302291934L27.30923694779116,199.61767178824047L28.11244979919678,199.60908041117773L28.915662650602414,199.60019615865636L29.718875502008036,199.5910055658627L30.522088353413658,199.5814943851965L31.32530120481928,199.57164753101964L32.128514056224894,199.56144901980133L32.93172690763051,199.55088190521514L33.734939759036145,199.5399282076968L34.53815261044177,199.52856883791432L35.34136546184739,199.5167835135429L36.144578313253014,199.504550668666L36.94779116465863,199.49184735504667L37.75100401606426,199.47864913442436L38.55421686746989,199.46492996089304L39.35742971887551,199.45066205230233L40.16064257028113,199.4358157494953L40.963855421686745,199.4203593620503L41.76706827309237,199.40425899902715L42.57028112449799,199.38747838302828L43.37349397590361,199.36997864566902L44.17670682730924,199.35171810230037L44.979919678714865,199.33265200354552L45.78313253012048,199.3127322608804L46.5863453815261,199.29190714311412L47.38955823293172,199.27012094018679L48.19277108433735,199.24731359020166L48.99598393574297,199.22342026502236L49.79919678714859,199.19837090909093L50.602409638554214,199.17208972533186L51.40562248995983,199.1444946010891L52.20883534136546,199.11549646596606L53.01204819277109,199.08499857217805L53.81526104417671,199.05289568654408L54.61847389558232,199.01907318149782L55.42168674698795,198.98340601043301L56.22489959839358,198.94575755025213L57.028112449799195,198.90597829107745L57.83132530120483,198.86390434961862L58.63453815261044,198.81935577854136L59.43775100401607,198.77213463920648L60.24096385542168,198.72202279915777L61.044176706827315,198.6687794084967L61.84738955823293,198.61213800050365L62.65060240963856,198.5518031511788L63.45381526104419,198.48744661931474L64.25702811244979,198.41870287268594L65.06024096385542,198.34516388618647L65.86345381526104,198.2663730732935L66.66666666666666,198.1818181818182L67.46987951807229,198.09092294689003L68.27309236947791,197.99303724636204L69.07630522088354,197.88742544350572L69.87951807228914,197.77325252525253L70.68273092369478,197.6495675463587L71.4859437751004,197.51528376404391L72.28915662650603,197.36915468484466L73.09236947791166,197.20974503331377L73.89558232931726,197.03539537385691L74.6987951807229,196.84417874894064L75.50200803212851,196.63384720627397L76.30522088353415,196.40176542790735L77.10843373493977,196.1448277791768L77.91164658634538,195.85935386927122L78.71485943775099,195.54095601799412L79.51807228915662,195.18436964803746L80.32128514056225,194.78323425845292L81.12449799196787,194.32980781102103L81.92771084337349,193.81459034792368L82.73092369477911,193.22582231181474L83.53413654618474,192.5488075279866L84.33734939759037,191.76498714960252L85.14056224899598,190.85065409389733L85.94377510040161,189.7751391465677L86.74698795180723,188.49820519242007L87.55020080321285,186.96622836060922L88.35341365461848,185.10647497567828L89.1566265060241,182.81830652201023L89.95983935742973,179.95927272727275L90.76305220883535,176.322392163602L91.56626506024097,171.5976087404659L92.3694779116466,165.3034500125913L93.1726907630522,156.6593268323372L93.97590361445782,144.33131313131312L94.77911646586344,125.8848843464228L95.58232931726907,96.48384673178063L96.3855421686747,45.364758698092025L97.18875502008032,18.181818181818187L97.99196787148594,18.181818181818187L98.79518072289156,18.181818181818187L99.59839357429718,18.181818181818187L100.40160642570282,18.181818181818187L101.20481927710843,18.181818181818187L102.00803212851406,18.181818181818187L102.81124497991966,18.181818181818187L103.6144578313253,45.364758698092025L104.41767068273091,96.48384673178063L105.22088353413655,125.8848843464228L106.02409638554218,144.33131313131312L106.82730923694778,156.6593268323372L107.63052208835342,165.3034500125913L108.43373493975903,171.5976087404659L109.23694779116467,176.322392163602L110.04016064257027,179.95927272727275L110.8433734939759,182.81830652201023L111.64658634538152,185.10647497567828L112.44979919678715,186.96622836060922L113.25301204819279,188.49820519242007L114.05622489959839,189.7751391465677L114.85943775100402,190.85065409389733L115.66265060240963,191.76498714960252L116.46586345381526,192.5488075279866L117.26907630522088,193.22582231181474L118.07228915662651,193.81459034792368L118.87550200803214,194.32980781102103L119.67871485943775,194.78323425845292L120.48192771084338,195.18436964803746L121.285140562249,195.54095601799412L122.08835341365463,195.85935386927122L122.89156626506023,196.1448277791768L123.69477911646587,196.40176542790735L124.4979919678715,196.63384720627397L125.30120481927712,196.84417874894064L126.10441767068275,197.03539537385691L126.90763052208835,197.20974503331377L127.71084337349399,197.36915468484466L128.51405622489958,197.51528376404391L129.3172690763052,197.6495675463587L130.12048192771084,197.77325252525253L130.92369477911646,197.88742544350572L131.72690763052208,197.99303724636204L132.53012048192772,198.09092294689003L133.33333333333331,198.1818181818182L134.13654618473893,198.2663730732935L134.93975903614458,198.34516388618647L135.7429718875502,198.41870287268594L136.54618473895582,198.48744661931474L137.34939759036143,198.5518031511788L138.15261044176708,198.61213800050365L138.9558232931727,198.6687794084967L139.75903614457832,198.72202279915777L140.56224899598394,198.77213463920648L141.36546184738955,198.81935577854136L142.16867469879517,198.86390434961862L142.9718875502008,198.90597829107745L143.77510040160644,198.94575755025213L144.57831325301206,198.98340601043301L145.38152610441767,199.01907318149782L146.1847389558233,199.05289568654408L146.9879518072289,199.08499857217805L147.79116465863453,199.11549646596606L148.59437751004018,199.1444946010891L149.3975903614458,199.17208972533186L150.2008032128514,199.19837090909093L151.00401606425703,199.22342026502236L151.80722891566265,199.24731359020166L152.6104417670683,199.27012094018679L153.41365461847388,199.29190714311412L154.21686746987953,199.3127322608804L155.02008032128515,199.33265200354552L155.82329317269077,199.35171810230037L156.62650602409641,199.36997864566902L157.42971887550203,199.38747838302828L158.23293172690762,199.40425899902715L159.03614457831324,199.4203593620503L159.83935742971886,199.4358157494953L160.6425702811245,199.45066205230233L161.4457831325301,199.46492996089304L162.24899598393574,199.47864913442436L163.05220883534136,199.49184735504667L163.85542168674698,199.504550668666L164.6586345381526,199.5167835135429L165.46184738955822,199.52856883791432L166.26506024096386,199.5399282076968L167.06827309236948,199.55088190521514L167.8714859437751,199.56144901980133L168.67469879518075,199.57164753101964L169.47791164658634,199.5814943851965L170.28112449799195,199.5910055658627L171.08433734939757,199.60019615865636L171.88755020080322,199.60908041117773L172.69076305220884,199.61767178824047L173.49397590361446,199.62598302291934L174.2971887550201,199.6340261637559L175.1004016064257,199.64181261844908L175.9036144578313,199.64935319432672L176.70682730923696,199.65665813586648L177.51004016064257,199.66373715950886L178.3132530120482,199.6705994859841L179.1164658634538,199.6772538703534L179.91967871485946,199.68370862994735L180.72289156626508,199.68997167036818L181.52610441767067,199.6960505097077L182.32931726907634,199.70195230111946L183.13253012048193,199.70768385387163L183.93574297188755,199.71325165299663L184.7389558232932,199.71866187764303L185.54216867469881,199.7239204182271L186.3453815261044,199.7290328924726L187.14859437751002,199.7340046604206L187.95180722891567,199.7388408384843L188.7550200803213,199.74354631261738L189.55823293172688,199.74812575065948L190.36144578313252,199.75258361391695L191.16465863453814,199.75692416803247L191.96787148594376,199.7611514931932L192.7710843373494,199.76526949372285L193.57429718875503,199.7692819070999L194.37751004016064,199.77319231244084L195.18072289156626,199.77700413848467L195.98393574297188,199.78072067111125L196.78714859437753,199.784345060425L197.59036144578312,199.78788032743222L198.39357429718876,199.79132937033813L199.19678714859438,199.7946949704887L200,199.7979797979798" stroke="#f58518" stroke-width="2"/></g></g><path class="foreground" aria-hidden="true" d="" display="none"/></g></g><g class="mark-group role-legend" role="graphics-symbol" aria-roledescription="legend" aria-label="Symbol legend for stroke color with 2 values: ğ‘“, divergent, ğ‘“Â², convergent"><g transform="translate(218,0)"><path class="background" aria-hidden="true" d="M0,0h83v24h-83Z" pointer-events="none"/><g><g class="mark-group role-legend-entry"><g transform="translate(0,0)"><path class="background" aria-hidden="true" d="M0,0h0v0h0Z" pointer-events="none"/><g><g class="mark-group role-scope" role="graphics-object" aria-roledescription="group mark container"><g transform="translate(0,0)"><path class="background" aria-hidden="true" d="M0,0h83v11h-83Z" pointer-events="none" opacity="1"/><g><g class="mark-symbol role-legend-symbol" pointer-events="none"><path transform="translate(6,6)" d="M-5,0L5,0" stroke="#4c78a8" stroke-width="1.5" opacity="1"/></g><g class="mark-text role-legend-label" pointer-events="none"><text text-anchor="start" transform="translate(16,9)" font-family="sans-serif" font-size="10px" fill="#000" opacity="1">ğ‘“, divergent</text></g></g><path class="foreground" aria-hidden="true" d="" pointer-events="none" display="none"/></g><g transform="translate(0,13)"><path class="background" aria-hidden="true" d="M0,0h83v11h-83Z" pointer-events="none" opacity="1"/><g><g class="mark-symbol role-legend-symbol" pointer-events="none"><path transform="translate(6,6)" d="M-5,0L5,0" stroke="#f58518" stroke-width="1.5" opacity="1"/></g><g class="mark-text role-legend-label" pointer-events="none"><text text-anchor="start" transform="translate(16,9)" font-family="sans-serif" font-size="10px" fill="#000" opacity="1">ğ‘“Â², convergent</text></g></g><path class="foreground" aria-hidden="true" d="" pointer-events="none" display="none"/></g></g></g><path class="foreground" aria-hidden="true" d="" pointer-events="none" display="none"/></g></g></g><path class="foreground" aria-hidden="true" d="" pointer-events="none" display="none"/></g></g></g><path class="foreground" aria-hidden="true" d="" display="none"/></g></g></g><defs><clipPath id="clip1"><rect x="0" y="0" width="200" height="200"/></clipPath><clipPath id="clip2"><rect x="0" y="0" width="200" height="200"/></clipPath></defs></svg>
