<?xml version="1.0" encoding="utf-8"?>
<!DOCTYPE svg PUBLIC "-//W3C//DTD SVG 1.1//EN" "http://www.w3.org/Graphics/SVG/1.1/DTD/svg11.dtd">
<svg xmlns="http://www.w3.org/2000/svg" xmlns:xlink="http://www.w3.org/1999/xlink" version="1.1" class="marks" width="475" height="255" viewBox="0 0 475 255"><rect width="475" height="255" fill="white"/><g fill="none" stroke-miterlimit="10" transform="translate(41,29)"><g class="mark-group role-frame root" role="graphics-object" aria-roledescription="group mark container"><g transform="translate(0,0)"><path class="background" aria-hidden="true" d="M0,0h0v0h0Z"/><g><g class="mark-group role-row-header row_header" role="graphics-object" aria-roledescription="group mark container"><g transform="translate(-3,0)"><path class="background" aria-hidden="true" d="M0,0h0v200h0Z"/><g><g class="mark-group role-axis" role="graphics-symbol" aria-roledescription="axis" aria-label="Y-axis titled 'y' for a linear scale with values from 0.0 to 2.0"><g transform="translate(0.5,0.5)"><path class="background" aria-hidden="true" d="M0,0h0v0h0Z" pointer-events="none"/><g><g class="mark-rule role-axis-tick" pointer-events="none"><line transform="translate(0,200)" x2="-5" y2="0" stroke="#888" stroke-width="1" opacity="1"/><line transform="translate(0,150)" x2="-5" y2="0" stroke="#888" stroke-width="1" opacity="1"/><line transform="translate(0,100)" x2="-5" y2="0" stroke="#888" stroke-width="1" opacity="1"/><line transform="translate(0,50)" x2="-5" y2="0" stroke="#888" stroke-width="1" opacity="1"/><line transform="translate(0,0)" x2="-5" y2="0" stroke="#888" stroke-width="1" opacity="1"/></g><g class="mark-text role-axis-label" pointer-events="none"><text text-anchor="end" transform="translate(-7,203)" font-family="sans-serif" font-size="10px" fill="#000" opacity="1">0.0</text><text text-anchor="end" transform="translate(-7,153)" font-family="sans-serif" font-size="10px" fill="#000" opacity="1">0.5</text><text text-anchor="end" transform="translate(-7,103)" font-family="sans-serif" font-size="10px" fill="#000" opacity="1">1.0</text><text text-anchor="end" transform="translate(-7,53)" font-family="sans-serif" font-size="10px" fill="#000" opacity="1">1.5</text><text text-anchor="end" transform="translate(-7,3)" font-family="sans-serif" font-size="10px" fill="#000" opacity="1">2.0</text></g><g class="mark-rule role-axis-domain" pointer-events="none"><line transform="translate(0,200)" x2="0" y2="-200" stroke="#888" stroke-width="1" opacity="1"/></g><g class="mark-text role-axis-title" pointer-events="none"><text text-anchor="middle" transform="translate(-30,98)" font-family="sans-serif" font-size="11px" font-weight="bold" fill="#000" opacity="1">y</text></g></g><path class="foreground" aria-hidden="true" d="" pointer-events="none" display="none"/></g></g></g><path class="foreground" aria-hidden="true" d="" display="none"/></g></g><g class="mark-group role-column-header column_header" role="graphics-object" aria-roledescription="group mark container"><g transform="translate(0,-4)"><path class="background" aria-hidden="true" d="M0,0h200v0h-200Z"/><g><g class="mark-group role-title"><g transform="translate(100,-20)"><path class="background" aria-hidden="true" d="M0,0h0v0h0Z" pointer-events="none"/><g><g class="mark-text role-title-text" role="graphics-symbol" aria-roledescription="title" aria-label="Title text '𝜌₁'" pointer-events="none"><text text-anchor="middle" transform="translate(0,8)" font-family="sans-serif" font-size="10px" fill="#000" opacity="1">𝜌₁</text></g></g><path class="foreground" aria-hidden="true" d="" pointer-events="none" display="none"/></g></g></g><path class="foreground" aria-hidden="true" d="" display="none"/></g><g transform="translate(226,-4)"><path class="background" aria-hidden="true" d="M0,0h200v0h-200Z"/><g><g class="mark-group role-title"><g transform="translate(100,-20)"><path class="background" aria-hidden="true" d="M0,0h0v0h0Z" pointer-events="none"/><g><g class="mark-text role-title-text" role="graphics-symbol" aria-roledescription="title" aria-label="Title text '𝜌₂'" pointer-events="none"><text text-anchor="middle" transform="translate(0,8)" font-family="sans-serif" font-size="10px" fill="#000" opacity="1">𝜌₂</text></g></g><path class="foreground" aria-hidden="true" d="" pointer-events="none" display="none"/></g></g></g><path class="foreground" aria-hidden="true" d="" display="none"/></g></g><g class="mark-group role-column-footer column_footer" role="graphics-object" aria-roledescription="group mark container"><g transform="translate(0,204)"><path class="background" aria-hidden="true" d="M0,0h200v0h-200Z"/><g><g class="mark-group role-axis" role="graphics-symbol" aria-roledescription="axis" aria-label="X-axis for a linear scale with values from 0.0 to 1.0"><g transform="translate(0.5,0.5)"><path class="background" aria-hidden="true" d="M0,0h0v0h0Z" pointer-events="none"/><g><g class="mark-rule role-axis-tick" pointer-events="none"><line transform="translate(0,0)" x2="0" y2="5" stroke="#888" stroke-width="1" opacity="1"/><line transform="translate(40,0)" x2="0" y2="5" stroke="#888" stroke-width="1" opacity="1"/><line transform="translate(80,0)" x2="0" y2="5" stroke="#888" stroke-width="1" opacity="1"/><line transform="translate(120,0)" x2="0" y2="5" stroke="#888" stroke-width="1" opacity="1"/><line transform="translate(160,0)" x2="0" y2="5" stroke="#888" stroke-width="1" opacity="1"/><line transform="translate(200,0)" x2="0" y2="5" stroke="#888" stroke-width="1" opacity="1"/></g><g class="mark-text role-axis-label" pointer-events="none"><text text-anchor="start" transform="translate(0,15)" font-family="sans-serif" font-size="10px" fill="#000" opacity="1">0.0</text><text text-anchor="middle" transform="translate(40,15)" font-family="sans-serif" font-size="10px" fill="#000" opacity="1">0.2</text><text text-anchor="middle" transform="translate(80,15)" font-family="sans-serif" font-size="10px" fill="#000" opacity="1">0.4</text><text text-anchor="middle" transform="translate(120,15)" font-family="sans-serif" font-size="10px" fill="#000" opacity="1">0.6</text><text text-anchor="middle" transform="translate(160,15)" font-family="sans-serif" font-size="10px" fill="#000" opacity="1">0.8</text><text text-anchor="end" transform="translate(200,15)" font-family="sans-serif" font-size="10px" fill="#000" opacity="1">1.0</text></g><g class="mark-rule role-axis-domain" pointer-events="none"><line transform="translate(0,0)" x2="200" y2="0" stroke="#888" stroke-width="1" opacity="1"/></g></g><path class="foreground" aria-hidden="true" d="" pointer-events="none" display="none"/></g></g></g><path class="foreground" aria-hidden="true" d="" display="none"/></g><g transform="translate(226,204)"><path class="background" aria-hidden="true" d="M0,0h200v0h-200Z"/><g><g class="mark-group role-axis" role="graphics-symbol" aria-roledescription="axis" aria-label="X-axis for a linear scale with values from 0.0 to 1.0"><g transform="translate(0.5,0.5)"><path class="background" aria-hidden="true" d="M0,0h0v0h0Z" pointer-events="none"/><g><g class="mark-rule role-axis-tick" pointer-events="none"><line transform="translate(0,0)" x2="0" y2="5" stroke="#888" stroke-width="1" opacity="1"/><line transform="translate(40,0)" x2="0" y2="5" stroke="#888" stroke-width="1" opacity="1"/><line transform="translate(80,0)" x2="0" y2="5" stroke="#888" stroke-width="1" opacity="1"/><line transform="translate(120,0)" x2="0" y2="5" stroke="#888" stroke-width="1" opacity="1"/><line transform="translate(160,0)" x2="0" y2="5" stroke="#888" stroke-width="1" opacity="1"/><line transform="translate(200,0)" x2="0" y2="5" stroke="#888" stroke-width="1" opacity="1"/></g><g class="mark-text role-axis-label" pointer-events="none"><text text-anchor="start" transform="translate(0,15)" font-family="sans-serif" font-size="10px" fill="#000" opacity="1">0.0</text><text text-anchor="middle" transform="translate(40,15)" font-family="sans-serif" font-size="10px" fill="#000" opacity="1">0.2</text><text text-anchor="middle" transform="translate(80,15)" font-family="sans-serif" font-size="10px" fill="#000" opacity="1">0.4</text><text text-anchor="middle" transform="translate(120,15)" font-family="sans-serif" font-size="10px" fill="#000" opacity="1">0.6</text><text text-anchor="middle" transform="translate(160,15)" font-family="sans-serif" font-size="10px" fill="#000" opacity="1">0.8</text><text text-anchor="end" transform="translate(200,15)" font-family="sans-serif" font-size="10px" fill="#000" opacity="1">1.0</text></g><g class="mark-rule role-axis-domain" pointer-events="none"><line transform="translate(0,0)" x2="200" y2="0" stroke="#888" stroke-width="1" opacity="1"/></g></g><path class="foreground" aria-hidden="true" d="" pointer-events="none" display="none"/></g></g></g><path class="foreground" aria-hidden="true" d="" display="none"/></g></g><g class="mark-group role-scope cell" role="graphics-object" aria-roledescription="group mark container"><g transform="translate(0,0)"><path class="background" aria-hidden="true" d="M0.5,0.5h200v200h-200Z" stroke="#ddd"/><g><g class="mark-group role-axis" aria-hidden="true"><g transform="translate(0.5,200.5)"><path class="background" aria-hidden="true" d="M0,0h0v0h0Z" pointer-events="none"/><g><g class="mark-rule role-axis-grid" pointer-events="none"><line transform="translate(0,-200)" x2="0" y2="200" stroke="#ddd" stroke-width="1" opacity="1"/><line transform="translate(40,-200)" x2="0" y2="200" stroke="#ddd" stroke-width="1" opacity="1"/><line transform="translate(80,-200)" x2="0" y2="200" stroke="#ddd" stroke-width="1" opacity="1"/><line transform="translate(120,-200)" x2="0" y2="200" stroke="#ddd" stroke-width="1" opacity="1"/><line transform="translate(160,-200)" x2="0" y2="200" stroke="#ddd" stroke-width="1" opacity="1"/><line transform="translate(200,-200)" x2="0" y2="200" stroke="#ddd" stroke-width="1" opacity="1"/></g></g><path class="foreground" aria-hidden="true" d="" pointer-events="none" display="none"/></g></g><g class="mark-group role-axis" aria-hidden="true"><g transform="translate(0.5,0.5)"><path class="background" aria-hidden="true" d="M0,0h0v0h0Z" pointer-events="none"/><g><g class="mark-rule role-axis-grid" pointer-events="none"><line transform="translate(0,200)" x2="200" y2="0" stroke="#ddd" stroke-width="1" opacity="1"/><line transform="translate(0,150)" x2="200" y2="0" stroke="#ddd" stroke-width="1" opacity="1"/><line transform="translate(0,100)" x2="200" y2="0" stroke="#ddd" stroke-width="1" opacity="1"/><line transform="translate(0,50)" x2="200" y2="0" stroke="#ddd" stroke-width="1" opacity="1"/><line transform="translate(0,0)" x2="200" y2="0" stroke="#ddd" stroke-width="1" opacity="1"/></g></g><path class="foreground" aria-hidden="true" d="" pointer-events="none" display="none"/></g></g><g class="mark-line role-mark child_layer_0_marks" role="graphics-object" aria-roledescription="line mark container"><path aria-label="x: 0; y: 0" role="graphics-symbol" aria-roledescription="line mark" d="M0,200L0.8032128514056224,198.39357429718876L1.6064257028112447,196.78714859437753L2.4096385542168677,195.18072289156626L3.2128514056224895,193.57429718875503L4.016064257028113,191.96787148594376L4.819277108433735,190.36144578313252L5.622489959839357,188.7550200803213L6.425702811244979,187.14859437751002L7.228915662650602,185.5421686746988L8.032128514056225,183.93574297188755L8.835341365461847,182.3293172690763L9.63855421686747,180.72289156626508L10.441767068273093,179.1164658634538L11.244979919678714,177.51004016064257L12.048192771084338,175.90361445783134L12.851405622489958,174.29718875502007L13.654618473895583,172.69076305220884L14.457831325301203,171.08433734939757L15.261044176706829,169.47791164658634L16.06425702811245,167.8714859437751L16.867469879518072,166.26506024096386L17.670682730923694,164.65863453815263L18.473895582329316,163.05220883534136L19.27710843373494,161.44578313253012L20.080321285140563,159.83935742971886L20.883534136546185,158.23293172690765L21.686746987951807,156.6265060240964L22.48995983935743,155.02008032128515L23.293172690763054,153.41365461847388L24.096385542168676,151.80722891566265L24.899598393574294,150.2008032128514L25.702811244979916,148.59437751004018L26.506024096385545,146.9879518072289L27.309236947791167,145.38152610441765L28.11244979919679,143.77510040160644L28.915662650602407,142.16867469879517L29.71887550200803,140.56224899598396L30.522088353413658,138.9558232931727L31.32530120481928,137.34939759036143L32.1285140562249,135.7429718875502L32.93172690763052,134.13654618473896L33.734939759036145,132.53012048192772L34.53815261044177,130.92369477911646L35.34136546184739,129.31726907630522L36.144578313253014,127.71084337349396L36.94779116465863,126.10441767068275L37.75100401606426,124.49799196787149L38.55421686746988,122.89156626506023L39.3574297188755,121.285140562249L40.16064257028113,119.67871485943775L40.963855421686745,118.07228915662651L41.76706827309237,116.46586345381526L42.570281124497996,114.85943775100402L43.373493975903614,113.25301204819276L44.17670682730924,111.64658634538154L44.97991967871486,110.04016064257027L45.78313253012048,108.43373493975905L46.58634538152611,106.82730923694778L47.389558232931726,105.22088353413655L48.19277108433735,103.6144578313253L48.99598393574297,102.00803212851406L49.79919678714859,100.40160642570282L50.602409638554214,98.79518072289157L51.40562248995983,97.18875502008034L52.208835341365464,95.58232931726907L53.01204819277109,93.97590361445782L53.81526104417671,92.36947791164658L54.61847389558233,90.76305220883533L55.42168674698795,89.1566265060241L56.22489959839358,87.55020080321285L57.028112449799195,85.94377510040161L57.831325301204814,84.33734939759037L58.63453815261044,82.73092369477912L59.43775100401606,81.12449799196789L60.24096385542169,79.51807228915662L61.044176706827315,77.91164658634537L61.84738955823293,76.30522088353413L62.65060240963856,74.69879518072288L63.45381526104418,73.09236947791165L64.2570281124498,71.4859437751004L65.06024096385542,69.87951807228916L65.86345381526104,68.27309236947792L66.66666666666666,66.66666666666667L67.46987951807229,65.06024096385543L68.27309236947792,63.45381526104417L69.07630522088354,61.847389558232926L69.87951807228916,60.24096385542168L70.68273092369478,58.63453815261044L71.4859437751004,57.028112449799195L72.28915662650603,55.42168674698795L73.09236947791165,53.81526104417671L73.89558232931726,52.208835341365464L74.69879518072288,50.60240963855422L75.50200803212851,48.995983935742984L76.30522088353415,47.38955823293172L77.10843373493977,45.783132530120476L77.91164658634538,44.17670682730923L78.714859437751,42.57028112449799L79.51807228915662,40.963855421686745L80.32128514056225,39.3574297188755L81.12449799196787,37.75100401606426L81.92771084337349,36.14457831325302L82.73092369477911,34.53815261044178L83.53413654618474,32.931726907630534L84.33734939759037,31.32530120481927L85.14056224899599,29.718875502008025L85.94377510040161,28.11244979919678L86.74698795180723,26.506024096385538L87.55020080321285,24.899598393574294L88.35341365461848,23.293172690763054L89.1566265060241,21.68674698795181L89.95983935742971,20.080321285140567L90.76305220883533,18.473895582329327L91.56626506024097,16.867469879518083L92.3694779116466,15.261044176706818L93.17269076305222,13.654618473895574L93.97590361445783,12.04819277108433L94.77911646586345,10.441767068273089L95.58232931726907,8.835341365461847L96.3855421686747,7.2289156626506035L97.18875502008032,5.622489959839361L97.99196787148594,4.016064257028118L98.79518072289156,2.4096385542168752L99.59839357429718,0.8032128514056325L100.40160642570282,0.8032128514056325L101.20481927710843,2.409638554216853L102.00803212851406,4.016064257028118L102.81124497991966,5.6224899598393385L103.6144578313253,7.2289156626506035L104.41767068273093,8.835341365461868L105.22088353413655,10.441767068273089L106.02409638554218,12.048192771084354L106.82730923694778,13.654618473895574L107.63052208835342,15.26104417670684L108.43373493975903,16.86746987951806L109.23694779116467,18.473895582329327L110.04016064257027,20.080321285140545L110.8433734939759,21.68674698795181L111.64658634538152,23.29317269076303L112.44979919678715,24.899598393574294L113.25301204819279,26.50602409638556L114.05622489959839,28.11244979919678L114.85943775100402,29.718875502008046L115.66265060240963,31.32530120481927L116.46586345381526,32.931726907630534L117.26907630522088,34.538152610441756L118.07228915662651,36.14457831325302L118.87550200803211,37.751004016064236L119.67871485943775,39.3574297188755L120.48192771084338,40.963855421686766L121.285140562249,42.57028112449799L122.08835341365463,44.17670682730925L122.89156626506023,45.783132530120476L123.69477911646587,47.38955823293174L124.49799196787149,48.995983935742956L125.30120481927712,50.60240963855422L126.10441767068272,52.20883534136544L126.90763052208835,53.81526104417671L127.71084337349396,55.42168674698793L128.5140562248996,57.028112449799195L129.31726907630522,58.63453815261046L130.12048192771084,60.24096385542168L130.92369477911646,61.84738955823295L131.72690763052208,63.45381526104417L132.53012048192772,65.06024096385543L133.33333333333331,66.66666666666666L134.13654618473896,68.27309236947792L134.93975903614458,69.87951807228913L135.7429718875502,71.4859437751004L136.54618473895584,73.09236947791166L137.34939759036143,74.69879518072288L138.15261044176708,76.30522088353415L138.9558232931727,77.91164658634537L139.75903614457832,79.51807228915663L140.56224899598394,81.12449799196786L141.36546184738955,82.73092369477912L142.16867469879517,84.33734939759034L142.9718875502008,85.94377510040161L143.7751004016064,87.55020080321283L144.57831325301206,89.1566265060241L145.38152610441767,90.76305220883536L146.1847389558233,92.36947791164658L146.9879518072289,93.97590361445785L147.79116465863453,95.58232931726907L148.59437751004018,97.18875502008034L149.39759036144576,98.79518072289156L150.2008032128514,100.40160642570282L151.00401606425703,102.00803212851403L151.80722891566265,103.6144578313253L152.6104417670683,105.22088353413656L153.41365461847388,106.82730923694778L154.21686746987953,108.43373493975905L155.02008032128515,110.04016064257027L155.82329317269077,111.64658634538154L156.6265060240964,113.25301204819276L157.429718875502,114.85943775100402L158.23293172690762,116.46586345381525L159.03614457831324,118.07228915662651L159.83935742971886,119.67871485943773L160.6425702811245,121.285140562249L161.44578313253012,122.89156626506026L162.24899598393574,124.49799196787149L163.05220883534136,126.10441767068275L163.85542168674698,127.71084337349396L164.65863453815263,129.31726907630522L165.46184738955822,130.92369477911646L166.26506024096386,132.53012048192772L167.06827309236948,134.13654618473893L167.8714859437751,135.7429718875502L168.67469879518075,137.34939759036146L169.47791164658634,138.9558232931727L170.28112449799198,140.56224899598396L171.08433734939757,142.16867469879517L171.88755020080322,143.77510040160644L172.69076305220884,145.38152610441765L173.49397590361446,146.9879518072289L174.29718875502007,148.59437751004015L175.1004016064257,150.2008032128514L175.9036144578313,151.80722891566262L176.70682730923696,153.41365461847388L177.51004016064257,155.02008032128515L178.3132530120482,156.6265060240964L179.1164658634538,158.23293172690765L179.91967871485943,159.83935742971886L180.72289156626508,161.44578313253012L181.52610441767067,163.05220883534136L182.3293172690763,164.65863453815263L183.13253012048193,166.26506024096383L183.93574297188755,167.8714859437751L184.7389558232932,169.47791164658636L185.5421686746988,171.08433734939757L186.34538152610443,172.69076305220887L187.14859437751002,174.29718875502007L187.95180722891567,175.90361445783134L188.7550200803213,177.51004016064255L189.5582329317269,179.1164658634538L190.36144578313252,180.72289156626505L191.16465863453814,182.3293172690763L191.96787148594376,183.93574297188752L192.7710843373494,185.5421686746988L193.57429718875503,187.14859437751005L194.37751004016064,188.7550200803213L195.18072289156626,190.36144578313255L195.98393574297188,191.96787148594376L196.78714859437753,193.57429718875503L197.59036144578312,195.18072289156626L198.39357429718876,196.78714859437753L199.19678714859435,198.39357429718874L200,200" stroke="#4c78a8" stroke-width="2"/></g><g class="mark-rule role-mark child_layer_1_marks" role="graphics-object" aria-roledescription="rule mark container"><line aria-label="Mean of x_mean: 0.5" role="graphics-symbol" aria-roledescription="rule mark" transform="translate(100,0)" x2="0" y2="200" stroke="#333" stroke-width="3" opacity="0.6"/></g><g class="mark-rule role-mark child_layer_2_marks" role="graphics-object" aria-roledescription="rule mark container"><line aria-label="Mean of lower: 0.295875854768" role="graphics-symbol" aria-roledescription="rule mark" transform="translate(59.17517095361369,0)" x2="0" y2="200" stroke="#333" stroke-width="2" stroke-dasharray="3,3" opacity="0.6"/></g><g class="mark-rule role-mark child_layer_3_marks" role="graphics-object" aria-roledescription="rule mark container"><line aria-label="Mean of upper: 0.704124145232" role="graphics-symbol" aria-roledescription="rule mark" transform="translate(140.8248290463863,0)" x2="0" y2="200" stroke="#333" stroke-width="2" stroke-dasharray="3,3" opacity="0.6"/></g></g><path class="foreground" aria-hidden="true" d="" display="none"/></g><g transform="translate(226,0)"><path class="background" aria-hidden="true" d="M0.5,0.5h200v200h-200Z" stroke="#ddd"/><g><g class="mark-group role-axis" aria-hidden="true"><g transform="translate(0.5,200.5)"><path class="background" aria-hidden="true" d="M0,0h0v0h0Z" pointer-events="none"/><g><g class="mark-rule role-axis-grid" pointer-events="none"><line transform="translate(0,-200)" x2="0" y2="200" stroke="#ddd" stroke-width="1" opacity="1"/><line transform="translate(40,-200)" x2="0" y2="200" stroke="#ddd" stroke-width="1" opacity="1"/><line transform="translate(80,-200)" x2="0" y2="200" stroke="#ddd" stroke-width="1" opacity="1"/><line transform="translate(120,-200)" x2="0" y2="200" stroke="#ddd" stroke-width="1" opacity="1"/><line transform="translate(160,-200)" x2="0" y2="200" stroke="#ddd" stroke-width="1" opacity="1"/><line transform="translate(200,-200)" x2="0" y2="200" stroke="#ddd" stroke-width="1" opacity="1"/></g></g><path class="foreground" aria-hidden="true" d="" pointer-events="none" display="none"/></g></g><g class="mark-group role-axis" aria-hidden="true"><g transform="translate(0.5,0.5)"><path class="background" aria-hidden="true" d="M0,0h0v0h0Z" pointer-events="none"/><g><g class="mark-rule role-axis-grid" pointer-events="none"><line transform="translate(0,200)" x2="200" y2="0" stroke="#ddd" stroke-width="1" opacity="1"/><line transform="translate(0,150)" x2="200" y2="0" stroke="#ddd" stroke-width="1" opacity="1"/><line transform="translate(0,100)" x2="200" y2="0" stroke="#ddd" stroke-width="1" opacity="1"/><line transform="translate(0,50)" x2="200" y2="0" stroke="#ddd" stroke-width="1" opacity="1"/><line transform="translate(0,0)" x2="200" y2="0" stroke="#ddd" stroke-width="1" opacity="1"/></g></g><path class="foreground" aria-hidden="true" d="" pointer-events="none" display="none"/></g></g><g class="mark-line role-mark child_layer_0_marks" role="graphics-object" aria-roledescription="line mark container"><path aria-label="x: 0; y: 0" role="graphics-symbol" aria-roledescription="line mark" d="M0,200L0.8032128514056224,199.87267934654537L1.6064257028112447,199.49104159715742L2.4096385542168677,198.85605855918885L3.2128514056224895,197.96934716174619L4.016064257028113,196.8331653383204L4.819277108433735,195.45040627715554L5.622489959839357,193.8245910539963L6.425702811244979,191.95985966597493L7.228915662650602,189.8609604894682L8.032128514056225,187.53323818876993L8.835341365461847,184.98262010636773L9.63855421686747,182.215601169481L10.441767068273093,179.239227351293L11.244979919678714,176.06107772899287L12.048192771084338,172.68924518431436L12.851405622489958,169.13231579571607L13.654618473895583,165.39934697467893L14.457831325301203,161.49984440179537L15.261044176706829,157.4437378213799L16.06425702811245,153.24135575623856L16.867469879518072,148.90339920698335L17.670682730923694,144.4409144028644L18.473895582329316,139.8652646735076L19.27710843373494,135.1881015131833L20.080321285140563,130.42133491128934L20.883534136546185,125.57710302459802L21.686746987951807,120.66774126849529L22.48995983935743,115.70575090591791L23.293172690763054,110.70376721397372L24.096385542168676,105.6745273093074L24.899598393574294,100.63083771413974L25.702811244979916,95.58554174557227L26.506024096385545,90.55148681119687L27.309236947791167,85.54149169428894L28.11244979919679,80.56831391189023L28.915662650602407,75.64461722890081L29.71887550200803,70.78293941090246L30.522088353413658,65.99566029782864L31.32530120481928,61.29497027977828L32.1285140562249,56.69283925524715L32.93172690763052,52.20098615082167L33.734939759036145,47.83084907995156L34.53815261044177,43.59355621678765L35.34136546184739,39.49989745925437L36.144578313253014,35.56029695351231L36.94779116465863,31.78478654977621L37.75100401606426,28.182980257080747L38.55421686746988,24.76404976204187L39.3574297188755,21.536701073954532L40.16064257028113,18.509152355696614L40.963855421686745,15.689112996891552L41.76706827309237,13.083763982618034L42.570281124497996,10.699739607655424L43.373493975903614,8.543110582829282L44.17670682730924,6.619368576473561L44.97991967871486,4.933412230374801L45.78313253012048,3.4895346858066834L46.58634538152611,2.291412651418767L47.389558232931726,1.3420970408178912L48.19277108433735,0.644005203681508L48.99598393574297,0.19891477018714188L49.79919678714859,0.00795912443163349L50.602409638554214,0.0716245183668418L51.40562248995983,0.38974883360172186L52.208835341365464,0.9615219942222586L53.01204819277109,1.7854880295797182L53.81526104417671,2.859548781793242L54.61847389558233,4.180969248526334L55.42168674698795,5.746384547432726L56.22489959839358,7.5518084845367595L57.028112449799195,9.59264370472972L57.831325301204814,11.863693398535101L58.63453815261044,14.359174535331952L59.43775100401606,17.072732589339946L60.24096385542169,19.997457720866564L61.044176706827315,23.125902371613382L61.84738955823293,26.450100229235773L62.65060240963856,29.961586512864912L63.45381526104418,33.65141952793622L64.2570281124498,37.51020343543725L65.06024096385542,41.52811217759527L65.86345381526104,45.694914499078806L66.66666666666666,49.99999999999998L67.46987951807229,54.43240615437583L68.27309236947792,58.980846225247305L69.07630522088354,63.63373800537391L69.87951807228916,68.37923331031759L70.68273092369478,73.20524814881469L71.4859437751004,78.09949349360868L72.28915662650603,83.04950657439034L73.09236947791165,88.04268261315846L73.89558232931726,93.0663069211918L74.69879518072288,98.10758727589803L75.50200803212851,103.15368649509709L76.30522088353415,108.19175512578924L77.10843373493977,113.20896416417025L77.91164658634538,118.19253772357445L78.714859437751,123.1297855671593L79.51807228915662,128.0081354224907L80.32128514056225,132.8151649957413L81.12449799196787,137.53863360398236L81.92771084337349,142.16651334501833L82.73092369477911,146.68701972539458L83.53413654618474,151.08864166858498L84.33734939759037,155.3601708269485L85.14056224899599,159.49073012281087L85.94377510040161,163.4698014459988L86.74698795180723,167.28725243729193L87.55020080321285,170.93336228959532L88.35341365461848,174.3988465011299L89.1566265060241,177.67488051760853L89.95983935742971,180.75312220319697L90.76305220883533,183.62573308303715L91.56626506024097,186.28539830324226L92.3694779116466,188.72534525753616L93.17269076305222,190.93936083310652L93.97590361445783,192.9218072317565L94.77911646586345,194.6676363260679L95.58232931726907,196.17240251401847L96.3855421686747,197.43227403932133L97.18875502008032,198.4440427486591L97.99196787148594,199.20513226096733L98.79518072289156,199.7136045279652L99.59839357429718,199.96816476922675L100.40160642570282,199.96816476922675L101.20481927710843,199.7136045279652L102.00803212851406,199.20513226096733L102.81124497991966,198.4440427486591L103.6144578313253,197.43227403932133L104.41767068273093,196.17240251401847L105.22088353413655,194.6676363260679L106.02409638554218,192.9218072317565L106.82730923694778,190.93936083310655L107.63052208835342,188.72534525753616L108.43373493975903,186.28539830324235L109.23694779116467,183.62573308303715L110.04016064257027,180.75312220319705L110.8433734939759,177.67488051760856L111.64658634538152,174.39884650112992L112.44979919678715,170.93336228959535L113.25301204819279,167.28725243729187L114.05622489959839,163.46980144599885L114.85943775100402,159.49073012281093L115.66265060240963,155.36017082694852L116.46586345381526,151.088641668585L117.26907630522088,146.68701972539466L118.07228915662651,142.1665133450184L118.87550200803211,137.5386336039825L119.67871485943775,132.81516499574133L120.48192771084338,128.00813542249065L121.285140562249,123.12978556715936L122.08835341365463,118.1925377235744L122.89156626506023,113.2089641641703L123.69477911646587,108.19175512578927L124.49799196787149,103.15368649509722L125.30120481927712,98.10758727589806L126.10441767068272,93.06630692119194L126.90763052208835,88.0426826131585L127.71084337349396,83.04950657439036L128.5140562248996,78.0994934936088L129.31726907630522,73.20524814881466L130.12048192771084,68.37923331031763L130.92369477911646,63.6337380053738L131.72690763052208,58.98084622524726L132.53012048192772,54.432406154375855L133.33333333333331,50.000000000000064L134.13654618473896,45.69491449907876L134.93975903614458,41.52811217759529L135.7429718875502,37.51020343543732L136.54618473895584,33.65141952793618L137.34939759036143,29.961586512864912L138.15261044176708,26.45010022923573L138.9558232931727,23.12590237161345L139.75903614457832,19.997457720866564L140.56224899598394,17.07273258933999L141.36546184738955,14.359174535331952L142.16867469879517,11.863693398535101L142.9718875502008,9.592643704729763L143.7751004016064,7.551808484536804L144.57831325301206,5.746384547432726L145.38152610441767,4.180969248526334L146.1847389558233,2.8595487817932863L146.9879518072289,1.7854880295797182L147.79116465863453,0.9615219942222586L148.59437751004018,0.38974883360172186L149.39759036144576,0.0716245183668418L150.2008032128514,0.00795912443163349L151.00401606425703,0.19891477018714188L151.80722891566265,0.644005203681508L152.6104417670683,1.3420970408178912L153.41365461847388,2.291412651418767L154.21686746987953,3.4895346858066834L155.02008032128515,4.933412230374801L155.82329317269077,6.619368576473561L156.6265060240964,8.54311058282924L157.429718875502,10.699739607655424L158.23293172690762,13.083763982617945L159.03614457831324,15.689112996891552L159.83935742971886,18.50915235569659L160.6425702811245,21.53670107395449L161.44578313253012,24.764049762041918L162.24899598393574,28.182980257080704L163.05220883534136,31.784786549776168L163.85542168674698,35.56029695351219L164.65863453815263,39.49989745925437L165.46184738955822,43.5935562167876L166.26506024096386,47.83084907995161L167.06827309236948,52.200986150821535L167.8714859437751,56.69283925524709L168.67469879518075,61.29497027977835L169.47791164658634,65.99566029782864L170.28112449799198,70.78293941090239L171.08433734939757,75.64461722890069L171.88755020080322,80.56831391189023L172.69076305220884,85.54149169428887L173.49397590361446,90.55148681119694L174.29718875502007,95.5855417455721L175.1004016064257,100.63083771413967L175.9036144578313,105.67452730930731L176.70682730923696,110.70376721397378L177.51004016064257,115.70575090591784L178.3132530120482,120.6677412684952L179.1164658634538,125.57710302459802L179.91967871485943,130.42133491128928L180.72289156626508,135.1881015131832L181.52610441767067,139.86526467350743L182.3293172690763,144.44091440286434L183.13253012048193,148.90339920698327L183.93574297188755,153.2413557562386L184.7389558232932,157.44373782137987L185.5421686746988,161.49984440179531L186.34538152610443,165.39934697467896L187.14859437751002,169.13231579571607L187.95180722891567,172.68924518431433L188.7550200803213,176.06107772899279L189.5582329317269,179.23922735129298L190.36144578313252,182.21560116948098L191.16465863453814,184.98262010636776L191.96787148594376,187.53323818876981L192.7710843373494,189.8609604894682L193.57429718875503,191.95985966597496L194.37751004016064,193.8245910539963L195.18072289156626,195.4504062771555L195.98393574297188,196.83316533832038L196.78714859437753,197.96934716174619L197.59036144578312,198.85605855918885L198.39357429718876,199.49104159715742L199.19678714859435,199.87267934654537L200,200" stroke="#4c78a8" stroke-width="2"/></g><g class="mark-rule role-mark child_layer_1_marks" role="graphics-object" aria-roledescription="rule mark container"><line aria-label="Mean of x_mean: 0.5" role="graphics-symbol" aria-roledescription="rule mark" transform="translate(100,0)" x2="0" y2="200" stroke="#333" stroke-width="3" opacity="0.6"/></g><g class="mark-rule role-mark child_layer_2_marks" role="graphics-object" aria-roledescription="rule mark container"><line aria-label="Mean of lower: 0.234165116326" role="graphics-symbol" aria-roledescription="rule mark" transform="translate(46.833023265172926,0)" x2="0" y2="200" stroke="#333" stroke-width="2" stroke-dasharray="3,3" opacity="0.6"/></g><g class="mark-rule role-mark child_layer_3_marks" role="graphics-object" aria-roledescription="rule mark container"><line aria-label="Mean of upper: 0.765834883674" role="graphics-symbol" aria-roledescription="rule mark" transform="translate(153.16697673482707,0)" x2="0" y2="200" stroke="#333" stroke-width="2" stroke-dasharray="3,3" opacity="0.6"/></g></g><path class="foreground" aria-hidden="true" d="" display="none"/></g></g></g><path class="foreground" aria-hidden="true" d="" display="none"/></g></g></g></svg>
