<?xml version="1.0" encoding="utf-8"?>
<!DOCTYPE svg PUBLIC "-//W3C//DTD SVG 1.1//EN" "http://www.w3.org/Graphics/SVG/1.1/DTD/svg11.dtd">
<svg xmlns="http://www.w3.org/2000/svg" xmlns:xlink="http://www.w3.org/1999/xlink" version="1.1" class="marks" width="342" height="247" viewBox="0 0 342 247"><rect width="342" height="247" fill="white"/><g fill="none" stroke-miterlimit="10" transform="translate(39,10)"><g class="mark-group role-frame root" role="graphics-object" aria-roledescription="group mark container"><g transform="translate(0,0)"><path class="background" aria-hidden="true" d="M0.5,0.5h200v200h-200Z" stroke="#ddd"/><g><g class="mark-group role-axis" aria-hidden="true"><g transform="translate(0.5,200.5)"><path class="background" aria-hidden="true" d="M0,0h0v0h0Z" pointer-events="none"/><g><g class="mark-rule role-axis-grid" pointer-events="none"><line transform="translate(20,-200)" x2="0" y2="200" stroke="#ddd" stroke-width="1" opacity="1"/><line transform="translate(60,-200)" x2="0" y2="200" stroke="#ddd" stroke-width="1" opacity="1"/><line transform="translate(100,-200)" x2="0" y2="200" stroke="#ddd" stroke-width="1" opacity="1"/><line transform="translate(140,-200)" x2="0" y2="200" stroke="#ddd" stroke-width="1" opacity="1"/><line transform="translate(180,-200)" x2="0" y2="200" stroke="#ddd" stroke-width="1" opacity="1"/></g></g><path class="foreground" aria-hidden="true" d="" pointer-events="none" display="none"/></g></g><g class="mark-group role-axis" aria-hidden="true"><g transform="translate(0.5,0.5)"><path class="background" aria-hidden="true" d="M0,0h0v0h0Z" pointer-events="none"/><g><g class="mark-rule role-axis-grid" pointer-events="none"><line transform="translate(0,200)" x2="200" y2="0" stroke="#ddd" stroke-width="1" opacity="1"/><line transform="translate(0,150)" x2="200" y2="0" stroke="#ddd" stroke-width="1" opacity="1"/><line transform="translate(0,100)" x2="200" y2="0" stroke="#ddd" stroke-width="1" opacity="1"/><line transform="translate(0,50)" x2="200" y2="0" stroke="#ddd" stroke-width="1" opacity="1"/><line transform="translate(0,0)" x2="200" y2="0" stroke="#ddd" stroke-width="1" opacity="1"/></g></g><path class="foreground" aria-hidden="true" d="" pointer-events="none" display="none"/></g></g><g class="mark-group role-axis" role="graphics-symbol" aria-roledescription="axis" aria-label="X-axis titled 'x' for a linear scale with values from âˆ’0.5 to 0.5"><g transform="translate(0.5,200.5)"><path class="background" aria-hidden="true" d="M0,0h0v0h0Z" pointer-events="none"/><g><g class="mark-rule role-axis-tick" pointer-events="none"><line transform="translate(20,0)" x2="0" y2="5" stroke="#888" stroke-width="1" opacity="1"/><line transform="translate(60,0)" x2="0" y2="5" stroke="#888" stroke-width="1" opacity="1"/><line transform="translate(100,0)" x2="0" y2="5" stroke="#888" stroke-width="1" opacity="1"/><line transform="translate(140,0)" x2="0" y2="5" stroke="#888" stroke-width="1" opacity="1"/><line transform="translate(180,0)" x2="0" y2="5" stroke="#888" stroke-width="1" opacity="1"/></g><g class="mark-text role-axis-label" pointer-events="none"><text text-anchor="middle" transform="translate(19.999999999999996,15)" font-family="sans-serif" font-size="10px" fill="#000" opacity="1">âˆ’0.4</text><text text-anchor="middle" transform="translate(60,15)" font-family="sans-serif" font-size="10px" fill="#000" opacity="1">âˆ’0.2</text><text text-anchor="middle" transform="translate(100,15)" font-family="sans-serif" font-size="10px" fill="#000" opacity="1">0.0</text><text text-anchor="middle" transform="translate(140,15)" font-family="sans-serif" font-size="10px" fill="#000" opacity="1">0.2</text><text text-anchor="middle" transform="translate(180,15)" font-family="sans-serif" font-size="10px" fill="#000" opacity="1">0.4</text></g><g class="mark-rule role-axis-domain" pointer-events="none"><line transform="translate(0,0)" x2="200" y2="0" stroke="#888" stroke-width="1" opacity="1"/></g><g class="mark-text role-axis-title" pointer-events="none"><text text-anchor="middle" transform="translate(100,30)" font-family="sans-serif" font-size="11px" font-weight="bold" fill="#000" opacity="1">x</text></g></g><path class="foreground" aria-hidden="true" d="" pointer-events="none" display="none"/></g></g><g class="mark-group role-axis" role="graphics-symbol" aria-roledescription="axis" aria-label="Y-axis titled 'y' for a linear scale with values from 0 to 40"><g transform="translate(0.5,0.5)"><path class="background" aria-hidden="true" d="M0,0h0v0h0Z" pointer-events="none"/><g><g class="mark-rule role-axis-tick" pointer-events="none"><line transform="translate(0,200)" x2="-5" y2="0" stroke="#888" stroke-width="1" opacity="1"/><line transform="translate(0,150)" x2="-5" y2="0" stroke="#888" stroke-width="1" opacity="1"/><line transform="translate(0,100)" x2="-5" y2="0" stroke="#888" stroke-width="1" opacity="1"/><line transform="translate(0,50)" x2="-5" y2="0" stroke="#888" stroke-width="1" opacity="1"/><line transform="translate(0,0)" x2="-5" y2="0" stroke="#888" stroke-width="1" opacity="1"/></g><g class="mark-text role-axis-label" pointer-events="none"><text text-anchor="end" transform="translate(-7,203)" font-family="sans-serif" font-size="10px" fill="#000" opacity="1">0</text><text text-anchor="end" transform="translate(-7,153)" font-family="sans-serif" font-size="10px" fill="#000" opacity="1">10</text><text text-anchor="end" transform="translate(-7,103)" font-family="sans-serif" font-size="10px" fill="#000" opacity="1">20</text><text text-anchor="end" transform="translate(-7,53)" font-family="sans-serif" font-size="10px" fill="#000" opacity="1">30</text><text text-anchor="end" transform="translate(-7,3)" font-family="sans-serif" font-size="10px" fill="#000" opacity="1">40</text></g><g class="mark-rule role-axis-domain" pointer-events="none"><line transform="translate(0,200)" x2="0" y2="-200" stroke="#888" stroke-width="1" opacity="1"/></g><g class="mark-text role-axis-title" pointer-events="none"><text text-anchor="middle" transform="translate(-23,100) rotate(-90) translate(0,-2)" font-family="sans-serif" font-size="11px" font-weight="bold" fill="#000" opacity="1">y</text></g></g><path class="foreground" aria-hidden="true" d="" pointer-events="none" display="none"/></g></g><g class="mark-group role-scope pathgroup" role="graphics-object" aria-roledescription="group mark container"><g transform="translate(0,0)"><path class="background" aria-hidden="true" d="M0,0h200v200h-200Z"/><g><g class="mark-line role-mark marks" clip-path="url(#clip1)" role="graphics-object" aria-roledescription="line mark container"><path aria-label="x: âˆ’0.5; y: 0.414213562373; name: ð‘“, convergent" role="graphics-symbol" aria-roledescription="line mark" d="M0,197.92893218813452L0.2002002002001957,197.921843396568L0.4004004004004025,197.9147332424865L0.6006006006005982,197.90760161837864L0.800800800800805,197.90044841597384L1.0010010010010006,197.89327352623573L1.2012012012011963,197.88607683935493L1.4014014014014031,197.8788582447421L1.6016016016015988,197.87161763102088L1.8018018018018056,197.86435488602044L2.0020020020020013,197.85706989676837L2.202202202202197,197.84976254948327L2.4024024024024038,197.84243272956732L2.6026026026025995,197.83508032159853L2.8028028028028062,197.8277052093234L3.003003003003002,197.82030727564896L3.2032032032032087,197.81288640263512L3.4034034034034044,197.80544247148666L3.6036036036036,197.7979753625453L3.803803803803807,197.7904849552816L4.004004004004003,197.78297112828687L4.20420420420421,197.77543375926476L4.404404404404405,197.76787272502304L4.604604604604601,197.76028790146495L4.8048048048048075,197.75267916358095L5.005005005005003,197.74504638543976L5.2052052052052105,197.7373894401798L5.405405405405405,197.72970820000032L5.605605605605602,197.7220025361522L5.805805805805808,197.71427231892926L6.006006006006004,197.70651741765886L6.206206206206211,197.69873770069265L6.406406406406406,197.6909330353972L6.6066066066066025,197.68310328814454L6.806806806806809,197.6752483243025L7.0070070070070045,197.66736800822494L7.207207207207212,197.6594622032421L7.4074074074074066,197.65153077165047L7.607607607607603,197.64357357470269L7.8078078078078095,197.6355904725975L8.008008008008005,197.62758132446942L8.208208208208212,197.61954598837806L8.408408408408407,197.61148432129795L8.608608608608604,197.60339617910748L8.80880880880881,197.5952814165783L9.009009009009006,197.58713988736434L9.209209209209213,197.57897144399058L9.409409409409408,197.57077593784211L9.609609609609615,197.56255321915242L9.80980980980981,197.55430313699216L10.010010010010006,197.5460255392575L10.210210210210214,197.53772027265816L10.410410410410408,197.5293871827057L10.610610610610616,197.52102611370134L10.81081081081081,197.51263690872375L11.011011011011007,197.50421940961667L11.211211211211214,197.49577345697645L11.41141141141141,197.48729889013933L11.611611611611616,197.47879554716857L11.811811811811811,197.47026326484155L12.012012012012008,197.46170187863646L12.212212212212215,197.45311122271914L12.41241241241241,197.44449112992947L12.612612612612617,197.43584143176778L12.812812812812812,197.42716195838096L13.013013013013008,197.4184525385485L13.213213213213216,197.40971299966827L13.41341341341341,197.40094316774218L13.613613613613618,197.39214286736157L13.813813813813812,197.3833119216926L14.014014014014009,197.3744501524612L14.214214214214216,197.36555737993794L14.414414414414411,197.35663342292293L14.614614614614618,197.34767809873L14.814814814814813,197.33869122317128L15.01501501501501,197.32967261054105L15.215215215215217,197.32062207359985L15.415415415415412,197.311539423558L15.615615615615619,197.30242447005904L15.815815815815814,197.2932770211631L16.01601601601602,197.28409688332985L16.216216216216218,197.27488386140126L16.416416416416414,197.2656377585843L16.616616616616618,197.25635837643313L16.816816816816814,197.24704551483129L17.01701701701702,197.23769897197369L17.217217217217218,197.22831854434796L17.417417417417415,197.21890402671613L17.61761761761762,197.20945521209558L17.817817817817815,197.19997189173998L18.018018018018022,197.19045385511996L18.21821821821822,197.18090088990343L18.418418418418415,197.17131278193577L18.61861861861862,197.16168931521952L18.818818818818816,197.15203027189403L19.019019019019023,197.1423354322148L19.21921921921922,197.13260457453237L19.419419419419416,197.1228374752711L19.61961961961962,197.11303390890754L19.819819819819816,197.1031936479487L20.020020020020024,197.0933164629097L20.22022022022022,197.0834021222914L20.420420420420417,197.0734503925576L20.62062062062062,197.06346103811185L20.820820820820817,197.05343382127413L21.021021021021024,197.0433685022571L21.22122122122122,197.0332648391419L21.421421421421417,197.02312258785383L21.62162162162162,197.0129415021376L21.821821821821818,197.00272133353215L22.022022022022025,196.99246183134514L22.22222222222222,196.98216274262728L22.42242242242243,196.97182381214603L22.62262262262262,196.961444782359L22.82282282282282,196.95102539338714L23.023023023023026,196.94056538298724L23.223223223223222,196.93006448652432L23.42342342342343,196.91952243694354L23.623623623623622,196.90893896474154L23.82382382382382,196.8983137979376L24.024024024024026,196.88764666204423L24.224224224224223,196.87693728003754L24.42442442442443,196.86618537232675L24.624624624624623,196.8553906567238L24.82482482482482,196.84455284841206L25.025025025025027,196.83367165991487L25.225225225225223,196.82274680106343L25.42542542542543,196.81177797896444L25.625625625625624,196.8007648979669L25.82582582582582,196.78970725962884L26.026026026026027,196.77860476268333L26.226226226226224,196.76745710300384L26.42642642642643,196.75626397356942L26.626626626626624,196.74502506442914L26.82682682682682,196.733740062666L27.027027027027028,196.72240865236037L27.227227227227225,196.71103051455285L27.427427427427432,196.69960532720654L27.627627627627625,196.6881327651688L27.82782782782782,196.67661250013228L28.02802802802803,196.66504420059562L28.228228228228225,196.65342753182318L28.428428428428433,196.64176215580463L28.628628628628626,196.63004773121332L28.828828828828833,196.61828391336465L29.02902902902903,196.60647035417318L29.229229229229226,196.59460670210962L29.429429429429433,196.58269260215673L29.629629629629626,196.57072769576476L29.829829829829833,196.55871162080615L30.03003003003003,196.54664401152942L30.230230230230227,196.53452449851255L30.430430430430434,196.5223527086153L30.630630630630627,196.5101282649311L30.830830830830834,196.49785078673793L31.03103103103103,196.4855198894486L31.231231231231227,196.47313518456016L31.431431431431434,196.46069627960236L31.631631631631627,196.44820277808554L31.831831831831835,196.43565427944753L32.032032032032035,196.42305037899962L32.23223223223223,196.41039066787192L32.432432432432435,196.39767473295737L32.63263263263263,196.38490215685545L32.832832832832835,196.37207251781436L33.033033033033036,196.35918538967275L33.23323323323323,196.34624034180004L33.433433433433436,196.33323693903617L33.63363363363363,196.32017474163004L33.833833833833836,196.30705330517713L34.034034034034036,196.29387218055595L34.23423423423423,196.28063091386343L34.434434434434436,196.2673290463494L34.63463463463463,196.25396611434968L34.83483483483484,196.24054164921836L35.03503503503504,196.22705517725856L35.23523523523524,196.21350621965243L35.43543543543544,196.19989429238964L35.63563563563563,196.1862189061948L35.83583583583584,196.17247956645355L36.03603603603604,196.15867577313745L36.23623623623624,196.14480702072748L36.43643643643644,196.13087279813652L36.63663663663663,196.1168725886299L36.83683683683684,196.1028058697451L37.03703703703704,196.08867211320992L37.23723723723724,196.07447078485902L37.43743743743744,196.0602013445492L37.63763763763763,196.04586324607305L37.83783783783784,196.0314559370712L38.03803803803804,196.0169788589429L38.23823823823824,196.00243144675517L38.43843843843844,195.98781312914994L38.63863863863863,195.97312332825013L38.83883883883884,195.9583614595634L39.03903903903904,195.9435269318847L39.23923923923924,195.9286191471967L39.43943943943944,195.91363750056854L39.63963963963963,195.89858138005275L39.83983983983984,195.8834501665803L40.04004004004004,195.86824323385363L40.24024024024024,195.85295994823775L40.44044044044044,195.83759966864943L40.64064064064065,195.82216174644424L40.84084084084084,195.80664552530135L41.04104104104104,195.79105034110654L41.24124124124124,195.77537552183273L41.44144144144144,195.7596203874183L41.64164164164165,195.74378424964323L41.84184184184184,195.72786641200278L42.04204204204204,195.71186616957888L42.24224224224224,195.69578280890892L42.44244244244244,195.67961560785224L42.64264264264265,195.6633638354539L42.84284284284284,195.6470267518058L43.04304304304304,195.63060360790533L43.24324324324324,195.61409364551093L43.44344344344344,195.59749609699534L43.64364364364365,195.58081018519545L43.84384384384384,195.56403512325952L44.04404404404404,195.5471701144914L44.24424424424424,195.53021435219148L44.44444444444444,195.51316701949486L44.64464464464465,195.4960272892057L44.84484484484484,195.47879432362893L45.04504504504504,195.46146727439816L45.24524524524524,195.4440452823003L45.44544544544544,195.42652747709644L45.64564564564565,195.4089129773397L45.845845845845844,195.39120089018834L46.046046046046044,195.37339031121624L46.246246246246244,195.3554803242185L46.446446446446444,195.3374700010138L46.64664664664665,195.31935840124208L46.846846846846844,195.30114457215853L47.04704704704705,195.28282754842303L47.247247247247245,195.26440635188513L47.447447447447445,195.24587999136483L47.64764764764765,195.2272474624284L47.847847847847845,195.20850774715987L48.04804804804805,195.18965981392725L48.248248248248245,195.17070261714403L48.448448448448445,195.15163509702572L48.64864864864865,195.1324561793407L48.848848848848846,195.11316477515635L49.04904904904905,195.0937597805791L49.249249249249246,195.07424007648927L49.449449449449446,195.05460452826992L49.64964964964965,195.03485198552985L49.849849849849846,195.0149812818205L50.050050050050054,194.99499123434657L50.25025025025025,194.97488064367053L50.45045045045045,194.95464829340997L50.650650650650654,194.93429294992896L50.85085085085085,194.91381336202178L51.051051051051054,194.89320826059014L51.25125125125125,194.87247635831264L51.45145145145145,194.85161634930716L51.651651651651655,194.83062690878523L51.85185185185186,194.80950669269862L52.052052052052055,194.788254337378L52.25225225225225,194.76686845916288L52.45245245245245,194.74534765402348L52.652652652652655,194.72369049717332L52.85285285285286,194.70189554267327L53.053053053053056,194.6799613230258L53.25325325325325,194.6578863487602L53.45345345345345,194.6356691080075L53.653653653653656,194.6133080660658L53.85385385385386,194.5908016649548L54.054054054054056,194.56814832295987L54.25425425425425,194.54534643416534L54.45445445445445,194.52239436797606L54.65465465465466,194.49929046862778L54.854854854854864,194.47603305468536L55.05505505505506,194.45262041852885L55.25525525525525,194.4290508258268L55.45545545545545,194.4053225149967L55.65565565565566,194.38143369665187L55.855855855855864,194.35738255303477L56.05605605605606,194.33316723743593L56.25625625625625,194.30878587359848L56.45645645645645,194.2842365551074L56.65665665665666,194.25951734476348L56.856856856856865,194.23462627394122L57.05705705705706,194.20956134193023L57.25725725725725,194.1843205152599L57.45745745745745,194.15890172700637L57.65765765765766,194.1333028760815L57.857857857857866,194.1075218265036L58.05805805805806,194.08155640664873L58.25825825825825,194.05540440848222L58.45845845845845,194.02906358677018L58.65865865865866,194.00253165826967L58.858858858858866,193.97580630089763L59.05905905905906,193.94888515287695L59.25925925925925,193.92176581186004L59.45945945945945,193.8944458340282L59.65965965965966,193.8669227331667L59.85985985985987,193.83919397971437L60.06006006006006,193.81125699978713L60.26026026026025,193.78310917417448L60.46046046046045,193.7547478373079L60.66066066066066,193.72617027620066L60.86086086086087,193.69737372935782L61.06106106106106,193.6683553856552L61.261261261261254,193.63911238318676L61.46146146146146,193.6096418080791L61.66166166166166,193.57994069327177L61.86186186186187,193.55000601726255L62.06206206206206,193.51983470281635L62.262262262262254,193.48942361563658L62.46246246246246,193.4587695629972L62.66266266266266,193.42786929233506L62.86286286286287,193.3967194898002L63.06306306306306,193.36531677876286L63.263263263263255,193.33365771827638L63.46346346346346,193.30173880149306L63.66366366366366,193.2695564540328L63.86386386386387,193.23710703230157L64.06406406406407,193.20438682175885L64.26426426426426,193.1713920351313L64.46446446446447,193.1381188105717L64.66466466466467,193.10456320976002L64.86486486486487,193.07072121594553L65.06506506506507,193.03658873192705L65.26526526526526,193.00216157796945L65.46546546546547,192.9674354896534L65.66566566566567,192.93240611565693L65.86586586586587,192.8970690154648L66.06606606606607,192.86141965700426L66.26626626626626,192.82545341420334L66.46646646646647,192.78916556446939L66.66666666666667,192.7525512860841L66.86686686686687,192.71560565551252L67.06706706706707,192.67832364462177L67.26726726726726,192.64070011780677L67.46746746746747,192.6027298290185L67.66766766766767,192.56440741869142L67.86786786786787,192.52572741056562L68.06806806806807,192.4866842083997L68.26826826826826,192.44727209256965L68.46846846846847,192.40748521654913L68.66866866866867,192.36731760326646L68.86886886886887,192.32676314133266L69.06906906906907,192.28581558113564L69.26926926926926,192.2444685307946L69.46946946946947,192.2027154519688L69.66966966966967,192.16054965551425L69.86986986986987,192.1179642969824L70.07007007007007,192.07495237195272L70.27027027027026,192.03150671119354L70.47047047047047,191.98761997564225L70.67067067067067,191.94328465119733L70.87087087087087,191.89849304331435L71.07107107107107,191.85323727139587L71.27127127127126,191.80750926296744L71.47147147147147,191.7613007476287L71.67167167167167,191.71460325076995L71.87187187187187,191.66740808704333L72.07207207207207,191.61970635357667L72.27227227227226,191.5714889229188L72.47247247247248,191.52274643570274L72.67267267267268,191.47346929301406L72.87287287287288,191.42364764845018L73.07307307307308,191.3732713998551L73.27327327327326,191.32233018071452L73.47347347347348,191.27081335119462L73.67367367367368,191.21870998880644L73.87387387387388,191.1660088786776L74.07407407407408,191.11269850341174L74.27427427427428,191.0587670325148L74.47447447447448,191.00420231136587L74.67467467467468,190.94899184970967L74.87487487487488,190.89312280964546L75.07507507507508,190.83658199308675L75.27527527527528,190.77935582866328L75.47547547547548,190.7214303580363L75.67567567567568,190.66279122159563L75.87587587587588,190.60342364350532L76.07607607607608,190.5433124160622L76.27627627627628,190.48244188333015L76.47647647647648,190.42079592401006L76.67667667667668,190.35835793350236L76.87687687687688,190.2951108051177L77.07707707707708,190.23103691038676L77.27727727727728,190.16611807841804L77.47747747747748,190.10033557424865L77.67767767767768,190.03367007612974L77.87787787787788,189.96610165168357L78.07807807807808,189.89760973286607L78.27827827827828,189.8281730896627L78.47847847847848,189.757769802442L78.67867867867868,189.68637723288438L78.87887887887888,189.6139719933992L79.07907907907908,189.5405299149355L79.27927927927928,189.4660260130871L79.47947947947948,189.39043445238255L79.67967967967968,189.3137285086451L79.87987987987988,189.23588052929796L80.08008008008008,189.15686189148033L80.28028028028028,189.0766429578312L80.48048048048048,188.9951930297849L80.68068068068068,188.91248029821128L80.88088088088088,188.82847179122115L81.08108108108108,188.74313331894137L81.28128128128128,188.65642941505007L81.4814814814815,188.568323274845L81.68168168168168,188.4787766895992L81.88188188188188,188.38774997693784L82.08208208208208,188.29520190694876L82.28228228228228,188.20108962371341L82.48248248248248,188.1053685619197L82.68268268268268,188.0079923581873L82.88288288288288,187.90891275670577L83.08308308308308,187.80807950874845L83.28328328328328,187.70544026558682L83.4834834834835,187.60094046428736L83.68368368368368,187.49452320582466L83.88388388388388,187.38612912489225L84.08408408408408,187.2756962507345L84.28428428428428,187.16315985825858L84.48448448448448,187.04845230861335L84.68468468468468,186.93150287834393L84.88488488488488,186.81223757614052L85.08508508508508,186.69057894610376L85.28528528528528,186.56644585633722L85.4854854854855,186.4397532715567L85.68568568568568,186.31041200826783L85.88588588588588,186.17832847091057L86.08608608608608,186.04340436719684L86.28628628628628,185.905536400674L86.48648648648648,185.76461593832866L86.68668668668668,185.6205286508007L86.88688688688688,185.47315412249935L87.08708708708708,185.32236542859937L87.28728728728728,185.16802867554077L87.4874874874875,185.0100025012508L87.68768768768768,184.8481375308482L87.88788788788789,184.68227578306636L88.08808808808809,184.51225002203356L88.28828828828829,184.33788304836415L88.48848848848849,184.15898692272958L88.68868868868869,183.97536211417452L88.88888888888889,183.78679656440357L89.08908908908909,183.59306465806128L89.28928928928929,183.39392608763586L89.4894894894895,183.1891246000009L89.68968968968969,182.97838660972636L89.88988988988989,182.76141966209298L90.09009009009009,182.5379107261712L90.29029029029029,182.30752429530335L90.49049049049049,182.06990026876878L90.69069069069069,181.82465158420376L90.89089089089089,181.57136156535984L91.09109109109109,181.3095809438461L91.29129129129129,181.03882450641282L91.4914914914915,180.7585673108306L91.69169169169169,180.46824040319035L91.89189189189189,180.1672259570811L92.09209209209209,179.8548517400939L92.29229229229229,179.53038479479326L92.49249249249249,179.19302419887214L92.69269269269269,178.8418927415903L92.8928928928929,178.47602731941228L93.09309309309309,178.09436781121357L93.29329329329329,177.69574414015827L93.4934934934935,177.27886116225494L93.69369369369369,176.84228093653283L93.8938938938939,176.3844018231945L94.09409409409409,175.90343371647566L94.29429429429429,175.3973685380221L94.49449449449449,174.86394488022995L94.69469469469469,174.30060537748864L94.8948948948949,173.70444496887964L95.09509509509509,173.07214765910425L95.29529529529529,172.39990862824448L95.4954954954955,171.6833375020846L95.69569569569569,170.91733714956027L95.8958958958959,170.09595033628864L96.09609609609609,169.21216364783658L96.2962962962963,168.25765385825233L96.49649649649649,167.22245564964743L96.69669669669669,166.0945201335806L96.8968968968969,164.85911906073005L97.09709709709709,163.49802663603273L97.2972972972973,161.98837366478688L97.4974974974975,160.301006722746L97.69769769769769,158.39807803926126L97.8978978978979,156.2293999568241L98.09809809809809,153.72673827011732L98.2982982982983,150.79450863503178L98.49849849849849,147.29384781498598L98.69869869869869,143.0136491450925L98.8988988988989,137.61373217851363L99.09909909909909,130.5016778712433L99.2992992992993,120.52684280959846L99.4994994994995,105.05001250625389L99.69969969969969,75.96512099436059L99.8998998998999,-18.494966386270086L100.10010010010011,-18.494966386270086L100.30030030030031,75.96512099436059L100.5005005005005,105.05001250625389L100.7007007007007,120.52684280959846L100.9009009009009,130.5016778712433L101.10110110110111,137.61373217851363L101.30130130130131,143.0136491450925L101.50150150150151,147.29384781498598L101.7017017017017,150.79450863503178L101.9019019019019,153.72673827011732L102.10210210210211,156.2293999568241L102.30230230230231,158.39807803926126L102.5025025025025,160.301006722746L102.7027027027027,161.98837366478688L102.9029029029029,163.49802663603273L103.10310310310311,164.85911906073005L103.30330330330331,166.0945201335806L103.50350350350351,167.22245564964743L103.7037037037037,168.25765385825233L103.9039039039039,169.21216364783658L104.10410410410411,170.09595033628864L104.30430430430431,170.91733714956027L104.5045045045045,171.6833375020846L104.7047047047047,172.39990862824448L104.9049049049049,173.07214765910425L105.10510510510511,173.70444496887964L105.30530530530531,174.30060537748864L105.50550550550551,174.86394488022995L105.7057057057057,175.3973685380221L105.9059059059059,175.90343371647566L106.10610610610611,176.3844018231945L106.30630630630631,176.84228093653283L106.5065065065065,177.27886116225494L106.7067067067067,177.69574414015827L106.9069069069069,178.09436781121357L107.10710710710711,178.47602731941228L107.30730730730731,178.8418927415903L107.50750750750751,179.19302419887214L107.7077077077077,179.53038479479326L107.9079079079079,179.8548517400939L108.10810810810811,180.1672259570811L108.30830830830831,180.46824040319035L108.5085085085085,180.7585673108306L108.7087087087087,181.03882450641282L108.90890890890891,181.3095809438461L109.10910910910911,181.57136156535984L109.30930930930931,181.82465158420376L109.50950950950951,182.06990026876878L109.7097097097097,182.30752429530335L109.90990990990991,182.5379107261712L110.11011011011011,182.76141966209298L110.31031031031031,182.97838660972636L110.5105105105105,183.1891246000009L110.7107107107107,183.39392608763586L110.91091091091091,183.59306465806128L111.11111111111111,183.78679656440357L111.31131131131131,183.97536211417452L111.51151151151151,184.15898692272958L111.7117117117117,184.33788304836415L111.91191191191191,184.51225002203356L112.11211211211211,184.68227578306636L112.31231231231232,184.8481375308482L112.5125125125125,185.0100025012508L112.7127127127127,185.16802867554077L112.91291291291292,185.32236542859937L113.11311311311312,185.47315412249935L113.31331331331332,185.6205286508007L113.51351351351352,185.76461593832866L113.7137137137137,185.905536400674L113.91391391391392,186.04340436719684L114.11411411411412,186.17832847091057L114.31431431431432,186.31041200826783L114.5145145145145,186.4397532715567L114.7147147147147,186.56644585633722L114.91491491491492,186.69057894610376L115.11511511511512,186.81223757614052L115.31531531531532,186.93150287834393L115.51551551551552,187.04845230861335L115.71571571571573,187.16315985825858L115.91591591591592,187.2756962507345L116.11611611611612,187.38612912489225L116.31631631631632,187.49452320582466L116.5165165165165,187.60094046428736L116.71671671671673,187.70544026558682L116.91691691691692,187.80807950874845L117.11711711711712,187.90891275670577L117.31731731731732,188.0079923581873L117.51751751751752,188.1053685619197L117.71771771771773,188.20108962371341L117.91791791791792,188.29520190694876L118.11811811811812,188.38774997693784L118.31831831831832,188.4787766895992L118.5185185185185,188.568323274845L118.71871871871873,188.65642941505007L118.91891891891892,188.74313331894137L119.11911911911912,188.82847179122115L119.31931931931932,188.91248029821128L119.51951951951952,188.9951930297849L119.71971971971973,189.0766429578312L119.91991991991992,189.15686189148033L120.12012012012012,189.23588052929796L120.32032032032032,189.3137285086451L120.5205205205205,189.39043445238255L120.72072072072073,189.4660260130871L120.92092092092092,189.5405299149355L121.12112112112112,189.6139719933992L121.32132132132132,189.68637723288438L121.52152152152152,189.757769802442L121.72172172172174,189.8281730896627L121.92192192192192,189.89760973286607L122.12212212212212,189.96610165168357L122.32232232232232,190.03367007612974L122.52252252252251,190.10033557424865L122.72272272272274,190.16611807841804L122.92292292292292,190.23103691038676L123.12312312312312,190.2951108051177L123.32332332332332,190.35835793350236L123.52352352352352,190.42079592401006L123.72372372372374,190.48244188333015L123.92392392392392,190.5433124160622L124.12412412412412,190.60342364350532L124.32432432432432,190.66279122159563L124.52452452452451,190.7214303580363L124.72472472472474,190.77935582866328L124.92492492492492,190.83658199308675L125.12512512512512,190.89312280964546L125.32532532532532,190.94899184970967L125.52552552552552,191.00420231136587L125.72572572572574,191.0587670325148L125.92592592592592,191.11269850341174L126.12612612612612,191.1660088786776L126.32632632632632,191.21870998880644L126.52652652652651,191.27081335119462L126.72672672672674,191.32233018071452L126.92692692692692,191.3732713998551L127.12712712712712,191.42364764845018L127.32732732732732,191.47346929301406L127.52752752752752,191.52274643570274L127.72772772772774,191.5714889229188L127.92792792792793,191.61970635357667L128.12812812812814,191.66740808704333L128.32832832832833,191.71460325076995L128.5285285285285,191.7613007476287L128.72872872872873,191.80750926296744L128.92892892892894,191.85323727139587L129.12912912912913,191.89849304331435L129.3293293293293,191.94328465119733L129.52952952952953,191.98761997564225L129.72972972972974,192.03150671119354L129.92992992992993,192.07495237195272L130.13013013013014,192.1179642969824L130.33033033033033,192.16054965551425L130.5305305305305,192.2027154519688L130.73073073073073,192.2444685307946L130.93093093093094,192.28581558113564L131.13113113113113,192.32676314133266L131.3313313313313,192.36731760326646L131.53153153153153,192.40748521654913L131.73173173173174,192.44727209256965L131.93193193193193,192.4866842083997L132.13213213213214,192.52572741056562L132.33233233233233,192.56440741869142L132.5325325325325,192.6027298290185L132.73273273273273,192.64070011780677L132.93293293293294,192.67832364462177L133.13313313313313,192.71560565551252L133.33333333333331,192.7525512860841L133.53353353353353,192.78916556446939L133.73373373373374,192.82545341420334L133.93393393393393,192.86141965700426L134.13413413413414,192.8970690154648L134.33433433433433,192.93240611565693L134.53453453453452,192.9674354896534L134.73473473473473,193.00216157796945L134.93493493493494,193.03658873192705L135.13513513513513,193.07072121594553L135.33533533533532,193.10456320976002L135.53553553553553,193.1381188105717L135.73573573573574,193.1713920351313L135.93593593593593,193.20438682175885L136.13613613613614,193.23710703230157L136.33633633633636,193.2695564540328L136.53653653653652,193.30173880149306L136.73673673673673,193.33365771827638L136.93693693693695,193.36531677876286L137.13713713713713,193.3967194898002L137.33733733733735,193.42786929233506L137.53753753753753,193.4587695629972L137.73773773773775,193.48942361563658L137.93793793793793,193.51983470281635L138.13813813813815,193.55000601726255L138.33833833833836,193.57994069327177L138.53853853853852,193.6096418080791L138.73873873873873,193.63911238318676L138.93893893893895,193.6683553856552L139.13913913913913,193.69737372935782L139.33933933933935,193.72617027620066L139.53953953953956,193.7547478373079L139.73973973973975,193.78310917417448L139.93993993993993,193.81125699978713L140.14014014014015,193.83919397971437L140.34034034034036,193.8669227331667L140.54054054054055,193.8944458340282L140.74074074074073,193.92176581186004L140.94094094094095,193.94888515287695L141.14114114114113,193.97580630089763L141.34134134134135,194.00253165826967L141.54154154154156,194.02906358677018L141.74174174174175,194.05540440848222L141.94194194194193,194.08155640664873L142.14214214214215,194.1075218265036L142.34234234234236,194.1333028760815L142.54254254254255,194.15890172700637L142.74274274274273,194.1843205152599L142.94294294294295,194.20956134193023L143.14314314314313,194.23462627394122L143.34334334334335,194.25951734476348L143.54354354354356,194.2842365551074L143.74374374374375,194.30878587359848L143.94394394394394,194.33316723743593L144.14414414414415,194.35738255303477L144.34434434434436,194.38143369665187L144.54454454454455,194.4053225149967L144.74474474474474,194.4290508258268L144.94494494494495,194.45262041852885L145.14514514514514,194.47603305468536L145.34534534534535,194.49929046862778L145.54554554554556,194.52239436797606L145.74574574574575,194.54534643416534L145.94594594594594,194.56814832295987L146.14614614614615,194.5908016649548L146.34634634634637,194.6133080660658L146.54654654654655,194.6356691080075L146.74674674674674,194.6578863487602L146.94694694694695,194.6799613230258L147.14714714714714,194.70189554267327L147.34734734734735,194.72369049717332L147.54754754754757,194.74534765402348L147.74774774774775,194.76686845916288L147.94794794794794,194.788254337378L148.14814814814815,194.80950669269862L148.34834834834837,194.83062690878523L148.54854854854855,194.85161634930716L148.74874874874874,194.87247635831264L148.94894894894895,194.89320826059014L149.14914914914914,194.91381336202178L149.34934934934935,194.93429294992896L149.54954954954957,194.95464829340997L149.74974974974975,194.97488064367053L149.94994994994994,194.99499123434657L150.15015015015015,195.0149812818205L150.35035035035037,195.03485198552985L150.55055055055055,195.05460452826992L150.75075075075074,195.07424007648927L150.95095095095095,195.0937597805791L151.15115115115114,195.11316477515635L151.35135135135135,195.1324561793407L151.55155155155157,195.15163509702572L151.75175175175175,195.17070261714403L151.95195195195194,195.18965981392725L152.15215215215215,195.20850774715987L152.35235235235237,195.2272474624284L152.55255255255256,195.24587999136483L152.75275275275274,195.26440635188513L152.95295295295296,195.28282754842303L153.15315315315314,195.30114457215853L153.35335335335336,195.31935840124208L153.55355355355357,195.3374700010138L153.75375375375376,195.3554803242185L153.95395395395397,195.37339031121624L154.15415415415416,195.39120089018834L154.35435435435437,195.4089129773397L154.55455455455456,195.42652747709644L154.75475475475474,195.4440452823003L154.95495495495499,195.46146727439816L155.15515515515514,195.47879432362893L155.35535535535536,195.4960272892057L155.55555555555557,195.51316701949486L155.75575575575576,195.53021435219148L155.95595595595597,195.5471701144914L156.15615615615616,195.56403512325952L156.35635635635637,195.58081018519545L156.55655655655656,195.59749609699534L156.75675675675674,195.61409364551093L156.95695695695696,195.63060360790533L157.15715715715714,195.6470267518058L157.35735735735736,195.6633638354539L157.55755755755757,195.67961560785224L157.75775775775776,195.69578280890892L157.95795795795797,195.71186616957888L158.15815815815816,195.72786641200278L158.35835835835837,195.74378424964323L158.55855855855856,195.7596203874183L158.75875875875874,195.77537552183273L158.958958958959,195.79105034110654L159.15915915915915,195.80664552530135L159.35935935935936,195.82216174644424L159.55955955955957,195.83759966864943L159.75975975975976,195.85295994823775L159.95995995995997,195.86824323385363L160.16016016016016,195.8834501665803L160.36036036036037,195.89858138005275L160.56056056056056,195.91363750056854L160.76076076076075,195.9286191471967L160.96096096096096,195.9435269318847L161.16116116116115,195.9583614595634L161.36136136136136,195.97312332825013L161.56156156156158,195.98781312914994L161.76176176176176,196.00243144675517L161.96196196196198,196.0169788589429L162.16216216216216,196.0314559370712L162.36236236236238,196.04586324607305L162.56256256256256,196.0602013445492L162.76276276276275,196.07447078485902L162.962962962963,196.08867211320992L163.16316316316315,196.1028058697451L163.36336336336336,196.1168725886299L163.56356356356358,196.13087279813652L163.76376376376376,196.14480702072748L163.96396396396398,196.15867577313745L164.16416416416416,196.17247956645355L164.36436436436438,196.1862189061948L164.56456456456456,196.19989429238964L164.76476476476475,196.21350621965243L164.96496496496496,196.22705517725856L165.16516516516515,196.24054164921836L165.36536536536536,196.25396611434968L165.56556556556558,196.2673290463494L165.76576576576576,196.28063091386343L165.96596596596598,196.29387218055595L166.16616616616616,196.30705330517713L166.36636636636638,196.32017474163004L166.56656656656656,196.33323693903617L166.76676676676675,196.34624034180004L166.966966966967,196.35918538967275L167.16716716716715,196.37207251781436L167.36736736736736,196.38490215685545L167.56756756756758,196.39767473295737L167.76776776776777,196.41039066787192L167.96796796796798,196.42305037899962L168.16816816816817,196.43565427944753L168.36836836836838,196.44820277808554L168.56856856856857,196.46069627960236L168.76876876876875,196.47313518456016L168.96896896896897,196.4855198894486L169.16916916916915,196.49785078673793L169.36936936936937,196.5101282649311L169.56956956956958,196.5223527086153L169.76976976976977,196.53452449851255L169.96996996996998,196.54664401152942L170.17017017017017,196.55871162080615L170.37037037037038,196.57072769576476L170.57057057057057,196.58269260215673L170.77077077077075,196.59460670210962L170.970970970971,196.60647035417318L171.17117117117115,196.61828391336465L171.37137137137137,196.63004773121332L171.57157157157158,196.64176215580463L171.77177177177177,196.65342753182318L171.97197197197198,196.66504420059562L172.17217217217217,196.67661250013228L172.37237237237238,196.6881327651688L172.57257257257257,196.69960532720654L172.77277277277275,196.71103051455285L172.97297297297297,196.72240865236037L173.17317317317318,196.733740062666L173.37337337337337,196.74502506442914L173.57357357357358,196.75626397356942L173.77377377377377,196.76745710300384L173.97397397397398,196.77860476268333L174.17417417417417,196.78970725962884L174.37437437437438,196.8007648979669L174.57457457457457,196.81177797896444L174.77477477477476,196.82274680106343L174.974974974975,196.83367165991487L175.17517517517518,196.84455284841206L175.37537537537537,196.8553906567238L175.57557557557558,196.86618537232675L175.77577577577577,196.87693728003754L175.97597597597598,196.88764666204423L176.17617617617617,196.8983137979376L176.37637637637638,196.90893896474154L176.57657657657657,196.91952243694354L176.77677677677676,196.93006448652432L176.97697697697697,196.94056538298724L177.17717717717719,196.95102539338714L177.37737737737737,196.961444782359L177.57757757757759,196.97182381214603L177.77777777777777,196.98216274262728L177.977977977978,196.99246183134514L178.17817817817817,197.00272133353215L178.3783783783784,197.0129415021376L178.5785785785786,197.02312258785383L178.77877877877876,197.0332648391419L178.978978978979,197.0433685022571L179.1791791791792,197.05343382127413L179.37937937937937,197.06346103811185L179.5795795795796,197.0734503925576L179.77977977977977,197.0834021222914L179.97997997998,197.0933164629097L180.18018018018017,197.1031936479487L180.3803803803804,197.11303390890754L180.5805805805806,197.1228374752711L180.78078078078076,197.13260457453237L180.98098098098097,197.1423354322148L181.1811811811812,197.15203027189403L181.38138138138137,197.16168931521952L181.5815815815816,197.17131278193577L181.78178178178177,197.18090088990343L181.981981981982,197.19045385511996L182.18218218218217,197.19997189173998L182.3823823823824,197.20945521209558L182.5825825825826,197.21890402671613L182.78278278278276,197.22831854434796L182.982982982983,197.23769897197369L183.1831831831832,197.24704551483129L183.38338338338338,197.25635837643313L183.5835835835836,197.2656377585843L183.78378378378378,197.27488386140126L183.983983983984,197.28409688332985L184.18418418418418,197.2932770211631L184.3843843843844,197.30242447005904L184.5845845845846,197.311539423558L184.78478478478476,197.32062207359985L184.98498498498498,197.32967261054105L185.1851851851852,197.33869122317128L185.38538538538538,197.34767809873L185.5855855855856,197.35663342292293L185.78578578578578,197.36555737993794L185.985985985986,197.3744501524612L186.18618618618618,197.3833119216926L186.3863863863864,197.39214286736157L186.5865865865866,197.40094316774218L186.78678678678676,197.40971299966827L186.986986986987,197.4184525385485L187.1871871871872,197.42716195838096L187.38738738738738,197.43584143176778L187.5875875875876,197.44449112992947L187.78778778778778,197.45311122271914L187.987987987988,197.46170187863646L188.18818818818818,197.47026326484155L188.3883883883884,197.47879554716857L188.5885885885886,197.48729889013933L188.78878878878876,197.49577345697645L188.98898898898898,197.50421940961667L189.1891891891892,197.51263690872375L189.38938938938938,197.52102611370134L189.5895895895896,197.5293871827057L189.78978978978978,197.53772027265816L189.98998998999,197.5460255392575L190.19019019019018,197.55430313699216L190.3903903903904,197.56255321915242L190.5905905905906,197.57077593784211L190.79079079079077,197.57897144399058L190.990990990991,197.58713988736434L191.1911911911912,197.5952814165783L191.39139139139138,197.60339617910748L191.5915915915916,197.61148432129795L191.79179179179178,197.61954598837806L191.991991991992,197.62758132446942L192.19219219219218,197.6355904725975L192.3923923923924,197.64357357470269L192.5925925925926,197.65153077165047L192.79279279279277,197.6594622032421L192.99299299299298,197.66736800822494L193.1931931931932,197.6752483243025L193.39339339339338,197.68310328814454L193.5935935935936,197.6909330353972L193.79379379379378,197.69873770069265L193.993993993994,197.70651741765886L194.19419419419418,197.71427231892926L194.3943943943944,197.7220025361522L194.5945945945946,197.72970820000032L194.79479479479477,197.7373894401798L194.994994994995,197.74504638543976L195.1951951951952,197.75267916358095L195.39539539539538,197.76028790146495L195.5955955955956,197.76787272502304L195.79579579579578,197.77543375926476L195.995995995996,197.78297112828687L196.19619619619618,197.7904849552816L196.3963963963964,197.7979753625453L196.5965965965966,197.80544247148666L196.79679679679677,197.81288640263512L196.99699699699698,197.82030727564896L197.1971971971972,197.8277052093234L197.39739739739738,197.83508032159853L197.5975975975976,197.84243272956732L197.7977977977978,197.84976254948327L197.997997997998,197.85706989676837L198.19819819819818,197.86435488602044L198.3983983983984,197.87161763102088L198.5985985985986,197.8788582447421L198.7987987987988,197.88607683935493L198.998998998999,197.89327352623573L199.1991991991992,197.90044841597384L199.39939939939939,197.90760161837864L199.5995995995996,197.9147332424865L199.7997997997998,197.921843396568L200,197.92893218813452" stroke="#4c78a8" stroke-width="2"/></g></g><path class="foreground" aria-hidden="true" d="" display="none"/></g><g transform="translate(0,0)"><path class="background" aria-hidden="true" d="M0,0h200v200h-200Z"/><g><g class="mark-line role-mark marks" clip-path="url(#clip2)" role="graphics-object" aria-roledescription="line mark container"><path aria-label="x: âˆ’0.5; y: 0.171572875254; name: ð‘“Â², divergent" role="graphics-symbol" aria-roledescription="line mark" d="M0,199.14213562373095L0.2002002002001957,199.13625302632238L0.4004004004004025,199.13033251000186L0.6006006006005982,199.12437380251765L0.800800800800805,199.11837662920266L1.0010010010010006,199.11234071294814L1.2012012012011963,199.10626577417767L1.4014014014014031,199.1001515308203L1.6016016016015988,199.09399769828377L1.8018018018018056,199.08780398942702L2.0020020020020013,199.08157011453272L2.202202202202197,199.07529578127907L2.4024024024024038,199.06898069471154L2.6026026026025995,199.062624557214L2.8028028028028062,199.05622706847987L3.003003003003002,199.04978792548224L3.2032032032032087,199.04330682244432L3.4034034034034044,199.03678345080908L3.6036036036036,199.03021749920848L3.803803803803807,199.02360865343263L4.004004004004003,199.01695659639807L4.20420420420421,199.01026100811623L4.404404404404405,199.00352156566078L4.604604604604601,198.99673794313514L4.8048048048048075,198.98990981163936L5.005005005005003,198.98303683923635L5.2052052052052105,198.97611869091804L5.405405405405405,198.9691550285708L5.605605605605602,198.9621455109406L5.805805805805808,198.95508979359738L6.006006006006004,198.94798752889955L6.206206206206211,198.94083836595732L6.406406406406406,198.93364195059598L6.6066066066066025,198.92639792531867L6.806806806806809,198.9191059292683L7.0070070070070045,198.9117655981895L7.207207207207212,198.90437656438957L7.4074074074074066,198.89693845669908L7.607607607607603,198.8894509004321L7.8078078078078095,198.88191351734568L8.008008008008005,198.87432592559873L8.208208208208212,198.8666877397106L8.408408408408407,198.85899857051888L8.608608608608604,198.85125802513664L8.80880880880881,198.84346570690929L9.009009009009006,198.83562121537034L9.209209209209213,198.8277241461974L9.409409409409408,198.81977409116664L9.609609609609615,198.81177063810713L9.80980980980981,198.80371337085475L10.010010010010006,198.79560186920472L10.210210210210214,198.78743570886428L10.410410410410408,198.77921446140422L10.610610610610616,198.77093769420986L10.81081081081081,198.7626049704313L11.011011011011007,198.75421584893317L11.211211211211214,198.74576988424326L11.41141141141141,198.737266626501L11.611611611611616,198.7287056214046L11.811811811811811,198.72008641015796L12.012012012012008,198.71140852941647L12.212212212212215,198.70267151123218L12.41241241241241,198.6938748829982L12.612612612612617,198.68501816739226L12.812812812812812,198.6761008823196L13.013013013013008,198.66712254085465L13.213213213213216,198.6580826511825L13.41341341341341,198.64898071653877L13.613613613613618,198.6398162351494L13.813813813813812,198.6305887001688L14.014014014014009,198.6212975996178L14.214214214214216,198.61194241632012L14.414414414414411,198.60252262783837L14.614614614614618,198.5930377064087L14.814814814814813,198.58348711887487L15.01501501501501,198.5738703266211L15.215215215215217,198.56418678550395L15.415415415415412,198.5544359457834L15.615615615615619,198.54461725205275L15.815815815815814,198.53473014316728L16.01601601601602,198.52477405217226L16.216216216216218,198.51474840622973L16.416416416416414,198.504652626544L16.616616616616618,198.49448612828624L16.816816816816814,198.4842483205179L17.01701701701702,198.47393860611297L17.217217217217218,198.46355638167893L17.417417417417415,198.45310103747684L17.61761761761762,198.44257195733988L17.817817817817815,198.43196851859074L18.018018018018022,198.42129009195793L18.21821821821822,198.41053604149056L18.418418418418415,198.399705724472L18.61861861861862,198.3887984913322L18.818818818818816,198.3778136855584L19.019019019019023,198.366750643605L19.21921921921922,198.35560869480145L19.419419419419416,198.34438716125908L19.61961961961962,198.33308535777644L19.819819819819816,198.32170259174305L20.020020020020024,198.31023816304165L20.22022022022022,198.29869136394916L20.420420420420417,198.28706147903574L20.62062062062062,198.27534778506256L20.820820820820817,198.26354955087777L21.021021021021024,198.2516660373109L21.22122122122122,198.23969649706567L21.421421421421417,198.2276401746108L21.62162162162162,198.2154963060696L21.821821821821818,198.2032641191073L22.022022022022025,198.19094283281683L22.22222222222222,198.1785316576026L22.42242242242243,198.16602979506283L22.62262262262262,198.15343643786935L22.82282282282282,198.14075076964596L23.023023023023026,198.1279719648448L23.223223223223222,198.11509918862018L23.42342342342343,198.10213159670116L23.623623623623622,198.08906833526137L23.82382382382382,198.0759085407871L24.024024024024026,198.06265133994313L24.224224224224223,198.04929584943613L24.42442442442443,198.03584117587627L24.624624624624623,198.02228641563605L24.82482482482482,198.00863065470713L25.025025025025027,197.99487296855474L25.225225225225223,197.9810124219695L25.42542542542543,197.9670480689168L25.625625625625624,197.95297895238383L25.82582582582582,197.93880410422406L26.026026026026027,197.9245225449987L26.226226226226224,197.91013328381592L26.42642642642643,197.89563531816728L26.626626626626624,197.8810276337611L26.82682682682682,197.86630920435337L27.027027027027028,197.85147899157556L27.227227227227225,197.8365359447595L27.427427427427432,197.82147900075933L27.627627627627625,197.8063070837703L27.82782782782782,197.7910191051446L28.02802802802803,197.7756139632038L28.228228228228225,197.7600905430482L28.428428428428433,197.7444477163628L28.628628628628626,197.72868434121992L28.828828828828833,197.71279926187833L29.02902902902903,197.6967913085789L29.229229229229226,197.68065929733666L29.429429429429433,197.66440202972913L29.629629629629626,197.648018292681L29.829829829829833,197.63150685824507L30.03003003003003,197.6148664833789L30.230230230230227,197.59809590971807L30.430430430430434,197.58119386334494L30.630630630630627,197.56415905455341L30.830830830830834,197.54699017760956L31.03103103103103,197.52968591050774L31.231231231231227,197.5122449147225L31.431431431431434,197.49466583495587L31.631631631631627,197.47694729888013L31.831831831831835,197.45908791687586L32.032032032032035,197.44108628176508L32.23223223223223,197.4229409685398L32.432432432432435,197.40465053408525L32.63263263263263,197.38621351689832L32.832832832832835,197.36762843680046L33.033033033033036,197.34889379464553L33.23323323323323,197.3300080720221L33.433433433433436,197.31096973095023L33.63363363363363,197.2917772135725L33.833833833833836,197.2724289418394L34.034034034034036,197.2529233171886L34.23423423423423,197.23325872021832L34.434434434434436,197.21343351035463L34.63463463463463,197.19344602551195L34.83483483483484,197.17329458174763L35.03503503503504,197.1529774729097L35.23523523523524,197.13249297027784L35.43543543543544,197.11183932219745L35.63563563563563,197.09101475370682L35.83583583583584,197.07001746615686L36.03603603603604,197.04884563682376L36.23623623623624,197.0274974185136L36.43643643643644,197.00597093916002L36.63663663663663,196.9842643014132L36.83683683683684,196.96237558222137L37.03703703703704,196.94030283240366L37.23723723723724,196.91804407621495L37.43743743743744,196.8955973109016L37.63763763763763,196.87296050624877L37.83783783783784,196.8501316041185L38.03803803803804,196.82710851797847L38.23823823823824,196.8038891324216L38.43843843843844,196.78047130267572L38.63863863863863,196.75685285410333L38.83883883883884,196.7330315816915L39.03903903903904,196.7090052495311L39.23923923923924,196.68477159028535L39.43943943943944,196.66032830464806L39.63963963963963,196.63567306079003L39.83983983983984,196.61080349379446L40.04004004004004,196.58571720508073L40.24024024024024,196.56041176181594L40.44044044044044,196.53488469631455L40.64064064064065,196.5091335054252L40.84084084084084,196.48315564990494L41.04104104104104,196.45694855378014L41.24124124124124,196.430509603694L41.44144144144144,196.40383614824032L41.64164164164165,196.376925497283L41.84184184184184,196.3497749212612L42.04204204204204,196.32238165047957L42.24224224224224,196.2947428743832L42.44244244244244,196.26685574081725L42.64264264264265,196.23871735527018L42.84284284284284,196.21032478010116L43.04304304304304,196.18167503375L43.24324324324324,196.15276508993048L43.44344344344344,196.12359187680576L43.64364364364365,196.09415227614554L43.84384384384384,196.06444312246495L44.04404404404404,196.03446120214426L44.24424424424424,196.00420325252904L44.44444444444444,195.97366596101025L44.64464464464465,195.94284596408406L44.84484484484484,195.91173984639002L45.04504504504504,195.88034413972827L45.24524524524524,195.84865532205393L45.44544544544544,195.81666981644926L45.64564564564565,195.784383990072L45.845845845845844,195.75179415307986L46.046046046046044,195.71889655753043L46.246246246246244,195.6856873962557L46.446446446446444,195.65216280171074L46.64664664664665,195.6183188447954L46.846846846846844,195.584151533649L47.04704704704705,195.54965681241669L47.247247247247245,195.51483055998685L47.447447447447445,195.47966858869893L47.64764764764765,195.4441666430208L47.847847847847845,195.40832039819463L48.04804804804805,195.3721254588507L48.248248248248245,195.33557735758814L48.448448448448445,195.29867155352142L48.64864864864865,195.26140343079229L48.848848848848846,195.22376829704544L49.04904904904905,195.18576138186734L49.249249249249246,195.14737783518711L49.449449449449446,195.10861272563835L49.64964964964965,195.06946103888063L49.849849849849846,195.02991767587997L50.050050050050054,194.9899774511465L50.25025025025025,194.94963509092858L50.45045045045045,194.90888523136186L50.650650650650654,194.86772241657212L50.85085085085085,194.82614109673037L51.051051051051054,194.784135626059L51.25125125125125,194.74170026078747L51.45145145145145,194.69882915705577L51.651651651651655,194.65551636876495L51.85185185185186,194.61175584537196L52.052052052052055,194.56754142962814L52.25225225225225,194.52286685525914L52.45245245245245,194.47772574458466L52.652652652652655,194.43211160607618L52.85285285285286,194.38601783185092L53.053053053053056,194.33943769509975L53.25325325325325,194.2923643474475L53.45345345345345,194.244790816243L53.653653653653656,194.19671000177766L53.85385385385386,194.14811467442883L54.054054054054056,194.0989974717273L54.25425425425425,194.04935089534544L54.45445445445445,193.99916730800393L54.65465465465466,193.94843893029415L54.854854854854864,193.89715783741423L55.05505505505506,193.84531595581538L55.25525525525525,193.79290505975578L55.45545545545545,193.7399167677594L55.65565565565566,193.6863425389762L55.855855855855864,193.63217366944068L56.05605605605606,193.5774012882261L56.25625625625625,193.52201635348956L56.45645645645645,193.4660096484059L56.65665665665666,193.40937177698575L56.856856856856865,193.3520931597742L57.05705705705706,193.29416402942624L57.25725725725725,193.23557442615464L57.45745745745745,193.17631419304612L57.65765765765766,193.11637297124128L57.857857857857866,193.05574019497377L58.05805805805806,192.99440508646387L58.25825825825825,192.93235665066146L58.45845845845845,192.8695836698332L58.65865865865866,192.8060746979885L58.858858858858866,192.74181805513905L59.05905905905906,192.67680182138542L59.25925925925925,192.61101383082536L59.45945945945945,192.5444416652769L59.65965965965966,192.47707264781053L59.85985985985987,192.40889383608248L60.06006006006006,192.33989201546328L60.26026026026025,192.27005369195328L60.46046046046045,192.19936508487788L60.66066066066066,192.1278121193544L60.86086086086087,192.05538041852222L61.06106106106106,191.9820552955277L61.261261261261254,191.90782174525438L61.46146146146146,191.83266443578987L61.66166166166166,191.7565676996184L61.86186186186187,191.67951552453007L62.06206206206206,191.60149154423536L62.262262262262254,191.52247902867384L62.46246246246246,191.4424608740056L62.66266266266266,191.36141959227356L62.86286286286287,191.27933730072306L63.06306306306306,191.19619571076691L63.263263263263255,191.11197611658076L63.46346346346346,191.02665938331526L63.66366366366366,190.94022593490965L63.86386386386387,190.85265574149105L64.06406406406407,190.76392830634305L64.26426426426426,190.67402265242643L64.46446446446447,190.58291730843405L64.66466466466467,190.49059029436097L64.86486486486487,190.3970191065705L65.06506506506507,190.30218070233497L65.26526526526526,190.20605148383055L65.46546546546547,190.10860728156274L65.66566566566567,190.00982333719926L65.86586586586587,189.90967428578597L66.06606606606607,189.80813413731894L66.26626626626626,189.7051762576467L66.46646646646647,189.6007733486732L66.66666666666667,189.4948974278318L66.86686686686687,189.38751980679976L67.06706706706707,189.27861106941907L67.26726726726726,189.16814104879015L67.46746746746747,189.05607880350146L67.66766766766767,188.94239259295773L67.86786786786787,188.82704985176596L68.06806806806807,188.7100171631379L68.26826826826826,188.5912602312645L68.46846846846847,188.470743852616L68.66866866866867,188.34843188611882L68.86886886886887,188.2242872221578L69.06906906906907,188.09827175035008L69.26926926926926,187.97034632603297L69.46946946946947,187.8404707354067L69.66966966966967,187.7086036592685L69.86986986986987,187.5747026352711L70.07007007007007,187.4387240186364L70.27027027027026,187.3006229412493L70.47047047047047,187.16035326905453L70.67067067067067,187.01786755767355L70.87087087087087,186.8731170061548L71.07107107107107,186.72605140876533L71.27127127127126,186.57661910472714L71.47147147147147,186.42476692579527L71.67167167167167,186.27044014156965L71.87187187187187,186.1135824024258L72.07207207207207,185.95413567994342L72.27227227227226,185.7920402047039L72.47247247247248,185.62723440132183L72.67267267267268,185.45965482056522L72.87287287287288,185.28923606841326L73.07307307307308,185.11591073188833L73.27327327327326,184.93960930149234L73.47347347347348,184.76026009006358L73.67367367367368,184.57778914786243L73.87387387387388,184.39212017367933L74.07407407407408,184.20317442174797L74.27427427427428,184.01087060423112L74.47447447447448,183.81512478903298L74.67467467467468,183.61585029267556L74.87487487487488,183.41295756796006L75.07507507507508,183.20635408611562L75.27527527527528,182.9959442131188L75.47547547547548,182.7816290798458L75.67567567567568,182.56330644569766L75.87587587587588,182.34087055531302L76.07607607607608,182.1142119879593L76.27627627627628,181.88321749916244L76.47647647647648,181.64776985410757L76.67667667667668,181.40774765230861L76.87687687687688,181.16302514301134L77.07707707707708,180.91347203075486L77.27727727727728,180.6589532704767L77.47747747747748,180.39932885150267L77.67767767767768,180.13445356971363L77.87787787787788,179.8641767871306L78.07807807807808,179.5883421781035L78.27827827827828,179.3067874612276L78.47847847847848,179.01934411604623L78.67867867867868,178.72583708352695L78.87887887887888,178.4260844492206L79.07907907907908,178.11989710792807L79.27927927927928,177.80707840860842L79.47947947947948,177.48742377816174L79.67967967967968,177.1607203226112L79.87987987987988,176.82674640409064L80.08008008008008,176.4852711919137L80.28028028028028,176.1360541858604L80.48048048048048,175.77884470966097L80.68068068068068,175.41338137248937L80.88088088088088,175.03939149609172L81.08108108108108,174.6565905049744L81.28128128128128,174.26468127685172L81.4814814814815,173.86335345030997L81.68168168168168,173.4522826863754L81.88188188188188,173.0311298803785L82.08208208208208,172.59954032018072L82.28228228228228,172.15714278647144L82.48248248248248,171.70354859044633L82.68268268268268,171.23835054374106L82.88288288288288,170.76112185500952L83.08308308308308,170.27141494700012L83.28328328328328,169.76876018738923L83.4834834834835,169.25266452597072L83.68368368368368,168.72261003006847L83.88388388388388,168.1780523092217L84.08408408408408,167.61841881928567L84.28428428428428,167.04310703507522L84.48448448448448,166.45148247954745L84.68468468468468,165.84287659625335L84.88488488488488,165.21658445036798L85.08508508508508,164.57186224202067L85.28528528528528,163.90792461385618L85.4854854854855,163.22394173274864L85.68568568568568,162.51903612332447L85.88588588588588,161.79227922839166L86.08608608608608,161.042687668484L86.28628628628628,160.26921916945489L86.48648648648648,159.4707681233427L86.68668668668668,158.64616074351136L86.88688688688688,157.79414977026846L87.08708708708708,156.913408677685L87.28728728728728,156.0025253260838L87.4874874874875,155.05999499749845L87.68768768768768,154.08421274318172L87.88788788788789,153.07346496279294L88.08808808808809,152.02592012400012L88.28828828828829,150.93961851865626L88.48848848848849,149.81246093714952L88.68868868868869,148.64219612563326L88.88888888888889,147.42640687119285L89.08908908908909,146.16249453708843L89.28928928928929,144.84766184341984L89.4894894894895,143.47889365714107L89.68968968968969,142.05293551841137L89.88988988988989,140.56626958670512L90.09009009009009,139.01508763856668L90.29029029029029,137.3952606877438L90.49049049049049,135.70230472562034L90.69069069069069,133.93134199288275L90.89089089089089,132.07705708906056L91.09109109109109,130.13364710107183L91.29129129129129,128.09476478027779L91.4914914914915,125.95345361363286L91.69169169169169,123.70207341048678L91.89189189189189,121.33221475250447L92.09209209209209,118.83460031728052L92.29229229229229,116.19897067015377L92.49249249249249,113.41395160225578L92.69269269269269,110.46689944832626L92.8928928928929,107.34372000906276L93.09309309309309,104.02865568192072L93.29329329329329,100.50403410774318L93.4934934934935,96.74996998318248L93.69369369369369,92.74400955550574L93.8938938938939,88.46070455033225L94.09409409409409,83.87109866874358L94.29429429429429,78.94210502921896L94.49449449449449,73.63574660317647L94.69469469469469,67.90822320728687L94.8948948948949,61.70875712106425L95.09509509509509,54.9781536613833L95.29529529529529,47.64699125414935L95.4954954954955,39.63332499583072L95.69569569569569,30.8397443055306L95.8958958958959,21.149562742056858L96.09609609609609,10.42182655048074L96.2962962962963,-1.5153077165046547L96.49649649649649,-14.873482727866216L96.69669669669669,-29.916312994434023L96.8968968968969,-46.976302637589114L97.09709709709709,-66.47881189275506L97.2972972972973,-88.97674732957373L97.4974974974975,-115.20201344549199L97.69769769769769,-146.14398216547912L97.8978978978979,-183.17308562793383L98.09809809809809,-228.242950224445L98.2982982982983,-284.23607609359277L98.49849849849849,-355.5876956299718L98.69869869869869,-449.48883675172357L98.8988988988989,-578.4092825388453L99.09909909909909,-766.0033557424865L99.2992992992993,-1063.1965427620542L99.4994994994995,-1603.1000250125078L99.69969969969969,-2876.9302419887213L99.8998998998999,-9348.010067227458L100.10010010010011,-9348.010067227458L100.30030030030031,-2876.9302419887213L100.5005005005005,-1603.1000250125078L100.7007007007007,-1063.1965427620542L100.9009009009009,-766.0033557424865L101.10110110110111,-578.4092825388453L101.30130130130131,-449.48883675172357L101.50150150150151,-355.5876956299718L101.7017017017017,-284.23607609359277L101.9019019019019,-228.242950224445L102.10210210210211,-183.17308562793383L102.30230230230231,-146.14398216547912L102.5025025025025,-115.20201344549199L102.7027027027027,-88.97674732957373L102.9029029029029,-66.47881189275506L103.10310310310311,-46.976302637589114L103.30330330330331,-29.916312994434023L103.50350350350351,-14.873482727866216L103.7037037037037,-1.5153077165046547L103.9039039039039,10.42182655048074L104.10410410410411,21.149562742056858L104.30430430430431,30.8397443055306L104.5045045045045,39.63332499583072L104.7047047047047,47.64699125414935L104.9049049049049,54.9781536613833L105.10510510510511,61.70875712106425L105.30530530530531,67.90822320728687L105.50550550550551,73.63574660317647L105.7057057057057,78.94210502921896L105.9059059059059,83.87109866874358L106.10610610610611,88.46070455033225L106.30630630630631,92.74400955550574L106.5065065065065,96.74996998318248L106.7067067067067,100.50403410774318L106.9069069069069,104.02865568192072L107.10710710710711,107.34372000906276L107.30730730730731,110.46689944832626L107.50750750750751,113.41395160225578L107.7077077077077,116.19897067015377L107.9079079079079,118.83460031728052L108.10810810810811,121.33221475250447L108.30830830830831,123.70207341048678L108.5085085085085,125.95345361363286L108.7087087087087,128.09476478027779L108.90890890890891,130.13364710107183L109.10910910910911,132.07705708906056L109.30930930930931,133.93134199288275L109.50950950950951,135.70230472562034L109.7097097097097,137.3952606877438L109.90990990990991,139.01508763856668L110.11011011011011,140.56626958670512L110.31031031031031,142.05293551841137L110.5105105105105,143.47889365714107L110.7107107107107,144.84766184341984L110.91091091091091,146.16249453708843L111.11111111111111,147.42640687119285L111.31131131131131,148.64219612563326L111.51151151151151,149.81246093714952L111.7117117117117,150.93961851865626L111.91191191191191,152.02592012400012L112.11211211211211,153.07346496279294L112.31231231231232,154.08421274318172L112.5125125125125,155.05999499749845L112.7127127127127,156.0025253260838L112.91291291291292,156.913408677685L113.11311311311312,157.79414977026846L113.31331331331332,158.64616074351136L113.51351351351352,159.4707681233427L113.7137137137137,160.26921916945489L113.91391391391392,161.042687668484L114.11411411411412,161.79227922839166L114.31431431431432,162.51903612332447L114.5145145145145,163.22394173274864L114.7147147147147,163.90792461385618L114.91491491491492,164.57186224202067L115.11511511511512,165.21658445036798L115.31531531531532,165.84287659625335L115.51551551551552,166.45148247954745L115.71571571571573,167.04310703507522L115.91591591591592,167.61841881928567L116.11611611611612,168.1780523092217L116.31631631631632,168.72261003006847L116.5165165165165,169.25266452597072L116.71671671671673,169.76876018738923L116.91691691691692,170.27141494700012L117.11711711711712,170.76112185500952L117.31731731731732,171.23835054374106L117.51751751751752,171.70354859044633L117.71771771771773,172.15714278647144L117.91791791791792,172.59954032018072L118.11811811811812,173.0311298803785L118.31831831831832,173.4522826863754L118.5185185185185,173.86335345030997L118.71871871871873,174.26468127685172L118.91891891891892,174.6565905049744L119.11911911911912,175.03939149609172L119.31931931931932,175.41338137248937L119.51951951951952,175.77884470966097L119.71971971971973,176.1360541858604L119.91991991991992,176.4852711919137L120.12012012012012,176.82674640409064L120.32032032032032,177.1607203226112L120.5205205205205,177.48742377816174L120.72072072072073,177.80707840860842L120.92092092092092,178.11989710792807L121.12112112112112,178.4260844492206L121.32132132132132,178.72583708352695L121.52152152152152,179.01934411604623L121.72172172172174,179.3067874612276L121.92192192192192,179.5883421781035L122.12212212212212,179.8641767871306L122.32232232232232,180.13445356971363L122.52252252252251,180.39932885150267L122.72272272272274,180.6589532704767L122.92292292292292,180.91347203075486L123.12312312312312,181.16302514301134L123.32332332332332,181.40774765230861L123.52352352352352,181.64776985410757L123.72372372372374,181.88321749916244L123.92392392392392,182.1142119879593L124.12412412412412,182.34087055531302L124.32432432432432,182.56330644569766L124.52452452452451,182.7816290798458L124.72472472472474,182.9959442131188L124.92492492492492,183.20635408611562L125.12512512512512,183.41295756796006L125.32532532532532,183.61585029267556L125.52552552552552,183.81512478903298L125.72572572572574,184.01087060423112L125.92592592592592,184.20317442174797L126.12612612612612,184.39212017367933L126.32632632632632,184.57778914786243L126.52652652652651,184.76026009006358L126.72672672672674,184.93960930149234L126.92692692692692,185.11591073188833L127.12712712712712,185.28923606841326L127.32732732732732,185.45965482056522L127.52752752752752,185.62723440132183L127.72772772772774,185.7920402047039L127.92792792792793,185.95413567994342L128.12812812812814,186.1135824024258L128.32832832832833,186.27044014156965L128.5285285285285,186.42476692579527L128.72872872872873,186.57661910472714L128.92892892892894,186.72605140876533L129.12912912912913,186.8731170061548L129.3293293293293,187.01786755767355L129.52952952952953,187.16035326905453L129.72972972972974,187.3006229412493L129.92992992992993,187.4387240186364L130.13013013013014,187.5747026352711L130.33033033033033,187.7086036592685L130.5305305305305,187.8404707354067L130.73073073073073,187.97034632603297L130.93093093093094,188.09827175035008L131.13113113113113,188.2242872221578L131.3313313313313,188.34843188611882L131.53153153153153,188.470743852616L131.73173173173174,188.5912602312645L131.93193193193193,188.7100171631379L132.13213213213214,188.82704985176596L132.33233233233233,188.94239259295773L132.5325325325325,189.05607880350146L132.73273273273273,189.16814104879015L132.93293293293294,189.27861106941907L133.13313313313313,189.38751980679976L133.33333333333331,189.4948974278318L133.53353353353353,189.6007733486732L133.73373373373374,189.7051762576467L133.93393393393393,189.80813413731894L134.13413413413414,189.90967428578597L134.33433433433433,190.00982333719926L134.53453453453452,190.10860728156274L134.73473473473473,190.20605148383055L134.93493493493494,190.30218070233497L135.13513513513513,190.3970191065705L135.33533533533532,190.49059029436097L135.53553553553553,190.58291730843405L135.73573573573574,190.67402265242643L135.93593593593593,190.76392830634305L136.13613613613614,190.85265574149105L136.33633633633636,190.94022593490965L136.53653653653652,191.02665938331526L136.73673673673673,191.11197611658076L136.93693693693695,191.19619571076691L137.13713713713713,191.27933730072306L137.33733733733735,191.36141959227356L137.53753753753753,191.4424608740056L137.73773773773775,191.52247902867384L137.93793793793793,191.60149154423536L138.13813813813815,191.67951552453007L138.33833833833836,191.7565676996184L138.53853853853852,191.83266443578987L138.73873873873873,191.90782174525438L138.93893893893895,191.9820552955277L139.13913913913913,192.05538041852222L139.33933933933935,192.1278121193544L139.53953953953956,192.19936508487788L139.73973973973975,192.27005369195328L139.93993993993993,192.33989201546328L140.14014014014015,192.40889383608248L140.34034034034036,192.47707264781053L140.54054054054055,192.5444416652769L140.74074074074073,192.61101383082536L140.94094094094095,192.67680182138542L141.14114114114113,192.74181805513905L141.34134134134135,192.8060746979885L141.54154154154156,192.8695836698332L141.74174174174175,192.93235665066146L141.94194194194193,192.99440508646387L142.14214214214215,193.05574019497377L142.34234234234236,193.11637297124128L142.54254254254255,193.17631419304612L142.74274274274273,193.23557442615464L142.94294294294295,193.29416402942624L143.14314314314313,193.3520931597742L143.34334334334335,193.40937177698575L143.54354354354356,193.4660096484059L143.74374374374375,193.52201635348956L143.94394394394394,193.5774012882261L144.14414414414415,193.63217366944068L144.34434434434436,193.6863425389762L144.54454454454455,193.7399167677594L144.74474474474474,193.79290505975578L144.94494494494495,193.84531595581538L145.14514514514514,193.89715783741423L145.34534534534535,193.94843893029415L145.54554554554556,193.99916730800393L145.74574574574575,194.04935089534544L145.94594594594594,194.0989974717273L146.14614614614615,194.14811467442883L146.34634634634637,194.19671000177766L146.54654654654655,194.244790816243L146.74674674674674,194.2923643474475L146.94694694694695,194.33943769509975L147.14714714714714,194.38601783185092L147.34734734734735,194.43211160607618L147.54754754754757,194.47772574458466L147.74774774774775,194.52286685525914L147.94794794794794,194.56754142962814L148.14814814814815,194.61175584537196L148.34834834834837,194.65551636876495L148.54854854854855,194.69882915705577L148.74874874874874,194.74170026078747L148.94894894894895,194.784135626059L149.14914914914914,194.82614109673037L149.34934934934935,194.86772241657212L149.54954954954957,194.90888523136186L149.74974974974975,194.94963509092858L149.94994994994994,194.9899774511465L150.15015015015015,195.02991767587997L150.35035035035037,195.06946103888063L150.55055055055055,195.10861272563835L150.75075075075074,195.14737783518711L150.95095095095095,195.18576138186734L151.15115115115114,195.22376829704544L151.35135135135135,195.26140343079229L151.55155155155157,195.29867155352142L151.75175175175175,195.33557735758814L151.95195195195194,195.3721254588507L152.15215215215215,195.40832039819463L152.35235235235237,195.4441666430208L152.55255255255256,195.47966858869893L152.75275275275274,195.51483055998685L152.95295295295296,195.54965681241669L153.15315315315314,195.584151533649L153.35335335335336,195.6183188447954L153.55355355355357,195.65216280171074L153.75375375375376,195.6856873962557L153.95395395395397,195.71889655753043L154.15415415415416,195.75179415307986L154.35435435435437,195.784383990072L154.55455455455456,195.81666981644926L154.75475475475474,195.84865532205393L154.95495495495499,195.88034413972827L155.15515515515514,195.91173984639002L155.35535535535536,195.94284596408406L155.55555555555557,195.97366596101025L155.75575575575576,196.00420325252904L155.95595595595597,196.03446120214426L156.15615615615616,196.06444312246495L156.35635635635637,196.09415227614554L156.55655655655656,196.12359187680576L156.75675675675674,196.15276508993048L156.95695695695696,196.18167503375L157.15715715715714,196.21032478010116L157.35735735735736,196.23871735527018L157.55755755755757,196.26685574081725L157.75775775775776,196.2947428743832L157.95795795795797,196.32238165047957L158.15815815815816,196.3497749212612L158.35835835835837,196.376925497283L158.55855855855856,196.40383614824032L158.75875875875874,196.430509603694L158.958958958959,196.45694855378014L159.15915915915915,196.48315564990494L159.35935935935936,196.5091335054252L159.55955955955957,196.53488469631455L159.75975975975976,196.56041176181594L159.95995995995997,196.58571720508073L160.16016016016016,196.61080349379446L160.36036036036037,196.63567306079003L160.56056056056056,196.66032830464806L160.76076076076075,196.68477159028535L160.96096096096096,196.7090052495311L161.16116116116115,196.7330315816915L161.36136136136136,196.75685285410333L161.56156156156158,196.78047130267572L161.76176176176176,196.8038891324216L161.96196196196198,196.82710851797847L162.16216216216216,196.8501316041185L162.36236236236238,196.87296050624877L162.56256256256256,196.8955973109016L162.76276276276275,196.91804407621495L162.962962962963,196.94030283240366L163.16316316316315,196.96237558222137L163.36336336336336,196.9842643014132L163.56356356356358,197.00597093916002L163.76376376376376,197.0274974185136L163.96396396396398,197.04884563682376L164.16416416416416,197.07001746615686L164.36436436436438,197.09101475370682L164.56456456456456,197.11183932219745L164.76476476476475,197.13249297027784L164.96496496496496,197.1529774729097L165.16516516516515,197.17329458174763L165.36536536536536,197.19344602551195L165.56556556556558,197.21343351035463L165.76576576576576,197.23325872021832L165.96596596596598,197.2529233171886L166.16616616616616,197.2724289418394L166.36636636636638,197.2917772135725L166.56656656656656,197.31096973095023L166.76676676676675,197.3300080720221L166.966966966967,197.34889379464553L167.16716716716715,197.36762843680046L167.36736736736736,197.38621351689832L167.56756756756758,197.40465053408525L167.76776776776777,197.4229409685398L167.96796796796798,197.44108628176508L168.16816816816817,197.45908791687586L168.36836836836838,197.47694729888013L168.56856856856857,197.49466583495587L168.76876876876875,197.5122449147225L168.96896896896897,197.52968591050774L169.16916916916915,197.54699017760956L169.36936936936937,197.56415905455341L169.56956956956958,197.58119386334494L169.76976976976977,197.59809590971807L169.96996996996998,197.6148664833789L170.17017017017017,197.63150685824507L170.37037037037038,197.648018292681L170.57057057057057,197.66440202972913L170.77077077077075,197.68065929733666L170.970970970971,197.6967913085789L171.17117117117115,197.71279926187833L171.37137137137137,197.72868434121992L171.57157157157158,197.7444477163628L171.77177177177177,197.7600905430482L171.97197197197198,197.7756139632038L172.17217217217217,197.7910191051446L172.37237237237238,197.8063070837703L172.57257257257257,197.82147900075933L172.77277277277275,197.8365359447595L172.97297297297297,197.85147899157556L173.17317317317318,197.86630920435337L173.37337337337337,197.8810276337611L173.57357357357358,197.89563531816728L173.77377377377377,197.91013328381592L173.97397397397398,197.9245225449987L174.17417417417417,197.93880410422406L174.37437437437438,197.95297895238383L174.57457457457457,197.9670480689168L174.77477477477476,197.9810124219695L174.974974974975,197.99487296855474L175.17517517517518,198.00863065470713L175.37537537537537,198.02228641563605L175.57557557557558,198.03584117587627L175.77577577577577,198.04929584943613L175.97597597597598,198.06265133994313L176.17617617617617,198.0759085407871L176.37637637637638,198.08906833526137L176.57657657657657,198.10213159670116L176.77677677677676,198.11509918862018L176.97697697697697,198.1279719648448L177.17717717717719,198.14075076964596L177.37737737737737,198.15343643786935L177.57757757757759,198.16602979506283L177.77777777777777,198.1785316576026L177.977977977978,198.19094283281683L178.17817817817817,198.2032641191073L178.3783783783784,198.2154963060696L178.5785785785786,198.2276401746108L178.77877877877876,198.23969649706567L178.978978978979,198.2516660373109L179.1791791791792,198.26354955087777L179.37937937937937,198.27534778506256L179.5795795795796,198.28706147903574L179.77977977977977,198.29869136394916L179.97997997998,198.31023816304165L180.18018018018017,198.32170259174305L180.3803803803804,198.33308535777644L180.5805805805806,198.34438716125908L180.78078078078076,198.35560869480145L180.98098098098097,198.366750643605L181.1811811811812,198.3778136855584L181.38138138138137,198.3887984913322L181.5815815815816,198.399705724472L181.78178178178177,198.41053604149056L181.981981981982,198.42129009195793L182.18218218218217,198.43196851859074L182.3823823823824,198.44257195733988L182.5825825825826,198.45310103747684L182.78278278278276,198.46355638167893L182.982982982983,198.47393860611297L183.1831831831832,198.4842483205179L183.38338338338338,198.49448612828624L183.5835835835836,198.504652626544L183.78378378378378,198.51474840622973L183.983983983984,198.52477405217226L184.18418418418418,198.53473014316728L184.3843843843844,198.54461725205275L184.5845845845846,198.5544359457834L184.78478478478476,198.56418678550395L184.98498498498498,198.5738703266211L185.1851851851852,198.58348711887487L185.38538538538538,198.5930377064087L185.5855855855856,198.60252262783837L185.78578578578578,198.61194241632012L185.985985985986,198.6212975996178L186.18618618618618,198.6305887001688L186.3863863863864,198.6398162351494L186.5865865865866,198.64898071653877L186.78678678678676,198.6580826511825L186.986986986987,198.66712254085465L187.1871871871872,198.6761008823196L187.38738738738738,198.68501816739226L187.5875875875876,198.6938748829982L187.78778778778778,198.70267151123218L187.987987987988,198.71140852941647L188.18818818818818,198.72008641015796L188.3883883883884,198.7287056214046L188.5885885885886,198.737266626501L188.78878878878876,198.74576988424326L188.98898898898898,198.75421584893317L189.1891891891892,198.7626049704313L189.38938938938938,198.77093769420986L189.5895895895896,198.77921446140422L189.78978978978978,198.78743570886428L189.98998998999,198.79560186920472L190.19019019019018,198.80371337085475L190.3903903903904,198.81177063810713L190.5905905905906,198.81977409116664L190.79079079079077,198.8277241461974L190.990990990991,198.83562121537034L191.1911911911912,198.84346570690929L191.39139139139138,198.85125802513664L191.5915915915916,198.85899857051888L191.79179179179178,198.8666877397106L191.991991991992,198.87432592559873L192.19219219219218,198.88191351734568L192.3923923923924,198.8894509004321L192.5925925925926,198.89693845669908L192.79279279279277,198.90437656438957L192.99299299299298,198.9117655981895L193.1931931931932,198.9191059292683L193.39339339339338,198.92639792531867L193.5935935935936,198.93364195059598L193.79379379379378,198.94083836595732L193.993993993994,198.94798752889955L194.19419419419418,198.95508979359738L194.3943943943944,198.9621455109406L194.5945945945946,198.9691550285708L194.79479479479477,198.97611869091804L194.994994994995,198.98303683923635L195.1951951951952,198.98990981163936L195.39539539539538,198.99673794313514L195.5955955955956,199.00352156566078L195.79579579579578,199.01026100811623L195.995995995996,199.01695659639807L196.19619619619618,199.02360865343263L196.3963963963964,199.03021749920848L196.5965965965966,199.03678345080908L196.79679679679677,199.04330682244432L196.99699699699698,199.04978792548224L197.1971971971972,199.05622706847987L197.39739739739738,199.062624557214L197.5975975975976,199.06898069471154L197.7977977977978,199.07529578127907L197.997997997998,199.08157011453272L198.19819819819818,199.08780398942702L198.3983983983984,199.09399769828377L198.5985985985986,199.1001515308203L198.7987987987988,199.10626577417767L198.998998998999,199.11234071294814L199.1991991991992,199.11837662920266L199.39939939939939,199.12437380251765L199.5995995995996,199.13033251000186L199.7997997997998,199.13625302632238L200,199.14213562373095" stroke="#f58518" stroke-width="2"/></g></g><path class="foreground" aria-hidden="true" d="" display="none"/></g></g><g class="mark-group role-legend" role="graphics-symbol" aria-roledescription="legend" aria-label="Symbol legend for stroke color with 2 values: ð‘“, convergent, ð‘“Â², divergent"><g transform="translate(218,0)"><path class="background" aria-hidden="true" d="M0,0h80v24h-80Z" pointer-events="none"/><g><g class="mark-group role-legend-entry"><g transform="translate(0,0)"><path class="background" aria-hidden="true" d="M0,0h0v0h0Z" pointer-events="none"/><g><g class="mark-group role-scope" role="graphics-object" aria-roledescription="group mark container"><g transform="translate(0,0)"><path class="background" aria-hidden="true" d="M0,0h80v11h-80Z" pointer-events="none" opacity="1"/><g><g class="mark-symbol role-legend-symbol" pointer-events="none"><path transform="translate(6,6)" d="M-5,0L5,0" stroke="#4c78a8" stroke-width="1.5" opacity="1"/></g><g class="mark-text role-legend-label" pointer-events="none"><text text-anchor="start" transform="translate(16,9)" font-family="sans-serif" font-size="10px" fill="#000" opacity="1">ð‘“, convergent</text></g></g><path class="foreground" aria-hidden="true" d="" pointer-events="none" display="none"/></g><g transform="translate(0,13)"><path class="background" aria-hidden="true" d="M0,0h80v11h-80Z" pointer-events="none" opacity="1"/><g><g class="mark-symbol role-legend-symbol" pointer-events="none"><path transform="translate(6,6)" d="M-5,0L5,0" stroke="#f58518" stroke-width="1.5" opacity="1"/></g><g class="mark-text role-legend-label" pointer-events="none"><text text-anchor="start" transform="translate(16,9)" font-family="sans-serif" font-size="10px" fill="#000" opacity="1">ð‘“Â², divergent</text></g></g><path class="foreground" aria-hidden="true" d="" pointer-events="none" display="none"/></g></g></g><path class="foreground" aria-hidden="true" d="" pointer-events="none" display="none"/></g></g></g><path class="foreground" aria-hidden="true" d="" pointer-events="none" display="none"/></g></g></g><path class="foreground" aria-hidden="true" d="" display="none"/></g></g></g><defs><clipPath id="clip1"><rect x="0" y="0" width="200" height="200"/></clipPath><clipPath id="clip2"><rect x="0" y="0" width="200" height="200"/></clipPath></defs></svg>
