<svg viewBox="0 0 400 400" xmlns="http://www.w3.org/2000/svg"><rect fill="white" height="350" stroke="none" width="400" x="0" y="0"></rect><line stroke="black" stroke-width="2" x1="100" x2="100" y1="20" y2="330"></line><line stroke="black" stroke-width="2" x1="350" x2="350" y1="20" y2="330"></line><line stroke="#222" stroke-dasharray="3 3" stroke-width="1" x1="50" x2="350" y1="100" y2="100"></line><line stroke="#222" stroke-dasharray="3 3" stroke-width="1" x1="100" x2="350" y1="100" y2="300"></line><path d="M140,100 a40,40,0,0,1,-8.765247622278789,24.987801902176972" fill="none" stroke="#222" stroke-dasharray="3 3" stroke-width="1"></path><text dx="0" dy="21" fill="black" font-size="14px" x="140" y="100">ğœƒ</text><text dy="-7" fill="black" text-anchor="middle" x="225" y="100">ğ·</text><line stroke="#18b" stroke-width="2" x1="100" x2="350" y1="50" y2="300"></line><line stroke="#18b" stroke-width="2" x1="100" x2="350" y1="150" y2="300"></line><text dominant-baseline="middle" dx="-25" fill="black" font-family="sans-serif" text-anchor="end" x="100" y="50">Slit 1</text><text dominant-baseline="middle" dx="-25" fill="black" font-family="sans-serif" text-anchor="end" x="100" y="150">Slit 2</text><line stroke="black" stroke-width="1" x1="80" x2="120" y1="50" y2="50"></line><line stroke="black" stroke-width="1" x1="80" x2="120" y1="150" y2="150"></line><text dominant-baseline="middle" dx="-5" fill="black" text-anchor="end" x="100" y="75">ğ‘‘âˆ•2</text><text dominant-baseline="middle" dx="-5" fill="black" text-anchor="end" x="100" y="125">ğ‘‘âˆ•2</text><text dominant-baseline="middle" fill="black" font-family="sans-serif" text-anchor="center" transform="translate(13,-25) translate(350,200) rotate(90)">ğ· tan(ğœƒ)</text><text dominant-baseline="middle" fill="#18b" font-family="sans-serif" text-anchor="center" x="220" y="155">ğ‘™â‚</text><text dominant-baseline="middle" fill="#18b" font-family="sans-serif" text-anchor="center" x="210" y="235">ğ‘™â‚‚</text><text dominant-baseline="middle" dx="5" fill="black" font-family="sans-serif" text-anchor="left" x="350" y="300">ğ‘ƒ</text></svg>